<svg xmlns="http://www.w3.org/2000/svg" xmlns:xlink="http://www.w3.org/1999/xlink" width="604.834" height="450.443" viewBox="0 0 453.626 337.832"><path d="M0 337.832h453.626V0H0z" fill="#fff"/><path d="M57.466 302.82h388.96V7.2H57.466z" fill="#fff"/><clipPath id="a"><path transform="matrix(1 0 0 -1 0 337.832)" d="M57.466 35.013h388.96v295.62H57.466z"/></clipPath><g clip-path="url(#a)"><path stroke-width=".8" stroke-dasharray="2.96,1.28" stroke-linejoin="round" fill="none" stroke="#bebebe" stroke-opacity=".8" d="M110.506 302.82V7.2"/></g><symbol id="b"><path transform="translate(-.098) scale(.001)" d="M98 729h99V430h358v299h99V0h-99v347H197V0H98v729z"/></symbol><symbol id="c"><path transform="matrix(.001 0 0 .001 -.055 .013)" d="M306 484c-48 0-86-19-114-57s-42-89-42-154c0-66 13-117 41-155s66-56 115-56c48 0 86 18 114 56s42 89 42 155c0 64-14 116-42 154s-66 57-114 57zm0 76c78 0 139-26 184-76 44-51 67-121 67-211s-23-160-67-210c-45-51-106-76-184-76-79 0-141 25-185 76-44 50-66 120-66 210s22 160 66 211c44 50 106 76 185 76z"/></symbol><symbol id="d"><path transform="translate(-.091) scale(.001)" d="M520 442c22 40 49 69 80 89 31 19 68 29 111 29 56 0 100-20 131-60s47-97 47-170V0h-90v327c0 52-10 91-28 117-19 25-47 38-85 38-47 0-84-16-111-47s-40-73-40-126V0h-90v327c0 52-10 91-28 117-19 25-48 38-86 38-46 0-83-16-110-47s-40-73-40-126V0H91v547h90v-85c20 33 45 58 74 74 28 16 62 24 102 24s73-10 101-30 48-50 62-88z"/></symbol><symbol id="e"><path transform="matrix(.001 0 0 .001 -.055 .207)" d="M454 280c0 64-14 115-40 151-27 36-65 54-113 54s-86-18-113-54-40-87-40-151c0-65 13-115 40-151s65-54 113-54 86 18 113 54c26 36 40 86 40 151zm90-212c0-92-21-161-62-207-42-45-105-68-190-68-32 0-61 3-89 7-28 5-56 12-82 22v87c26-14 52-24 78-31s52-11 79-11c58 0 102 16 132 46 29 31 44 77 44 139v44c-19-32-43-56-72-72S319 0 279 0c-68 0-122 25-163 76S55 195 55 280c0 84 20 152 61 203s95 77 163 77c40 0 74-8 103-24s53-40 72-72v83h90V68z"/></symbol><symbol id="f"><path transform="translate(-.094) scale(.001)" d="M94 760h90V0H94v760z"/></symbol><symbol id="g"><path transform="matrix(.001 0 0 .001 -.03 .207)" d="M322-50c-26-64-51-107-75-127s-56-30-96-30H79v75h53c24 0 43 6 57 18s29 39 46 83l16 40L30 547h95l171-428 171 428h95L322-50z"/></symbol><symbol id="h"><path transform="matrix(.001 0 0 .001 -.091 .207)" d="M181 82v-289H91v754h90v-83c18 32 42 56 71 72s64 24 104 24c66 0 120-27 162-79 41-53 62-122 62-208s-21-156-62-208c-42-52-96-78-162-78-40 0-75 8-104 23s-53 39-71 72zm306 191c0 66-14 117-41 155-28 38-65 57-112 57-48 0-85-19-112-57-28-38-41-89-41-155s13-118 41-156c27-38 64-56 112-56 47 0 84 18 112 56 27 38 41 90 41 156z"/></symbol><symbol id="i"><path transform="translate(-.091) scale(.001)" d="M549 330V0h-90v327c0 52-11 90-31 116s-50 39-90 39c-49 0-87-16-115-47s-42-73-42-126V0H91v760h90V462c21 32 46 57 76 73 29 16 63 25 101 25 62 0 110-20 142-59s49-96 49-171z"/></symbol><use xlink:href="#b" transform="matrix(10 0 0 -10 82.86 313.914)"/><use xlink:href="#c" transform="matrix(10 0 0 -10 89.95 314.044)"/><use xlink:href="#d" transform="matrix(10 0 0 -10 96.43 313.914)"/><use xlink:href="#c" transform="matrix(10 0 0 -10 105.81 314.044)"/><use xlink:href="#e" transform="matrix(10 0 0 -10 111.93 315.984)"/><use xlink:href="#f" transform="matrix(10 0 0 -10 118.67 313.914)"/><use xlink:href="#g" transform="matrix(10 0 0 -10 120.81 315.984)"/><use xlink:href="#h" transform="matrix(10 0 0 -10 127.34 315.984)"/><use xlink:href="#i" transform="matrix(10 0 0 -10 133.69 313.914)"/><clipPath id="j"><path transform="matrix(1 0 0 -1 0 337.832)" d="M57.466 35.013h388.96v295.62H57.466z"/></clipPath><g clip-path="url(#j)"><path stroke-width=".8" stroke-dasharray="2.96,1.28" stroke-linejoin="round" fill="none" stroke="#bebebe" stroke-opacity=".8" d="M251.946 302.82V7.2"/></g><symbol id="k"><path transform="translate(-.098) scale(.001)" d="M444 342c21-8 42-23 62-46 20-24 40-56 60-97L666 0H560l-93 187c-24 48-48 81-70 97-23 16-54 24-93 24H197V0H98v729h223c83 0 145-18 186-52 41-35 62-88 62-158 0-46-11-85-32-115-22-30-53-51-93-62zM197 648V389h124c47 0 83 11 107 33s37 54 37 97c0 42-13 74-37 96s-60 33-107 33H197z"/></symbol><symbol id="l"><path transform="matrix(.001 0 0 .001 -.055 .013)" d="M562 296v-44H149c4-62 22-110 56-142 33-32 79-48 139-48 34 0 68 4 100 12s65 21 97 39V28c-32-14-65-25-99-31s-69-10-103-10c-88 0-157 25-208 75S55 181 55 268c0 89 24 160 72 213 48 52 114 79 196 79 74 0 132-24 175-71 42-48 64-112 64-193zm-90 26c-1 49-15 88-41 118-27 29-63 44-107 44-50 0-90-15-120-43s-48-68-52-119h320z"/></symbol><symbol id="m"><path transform="translate(-.091) scale(.001)" d="M411 463c-10 6-21 10-33 13-12 2-25 4-39 4-51 0-90-17-117-50-28-33-41-80-41-142V0H91v547h90v-85c18 33 43 58 73 74s67 24 111 24c6 0 13-1 21-1 7-1 15-2 25-4v-92z"/></symbol><symbol id="n"><path transform="matrix(.001 0 0 .001 -.055 .013)" d="M454 464v296h90V0h-90v82c-19-33-43-57-72-72s-63-23-103-23c-66 0-120 26-162 78S55 187 55 273s20 155 62 208c42 52 96 79 162 79 40 0 74-8 103-24s53-40 72-72zM148 273c0-66 13-118 40-156s64-56 112-56 85 18 113 56c27 38 41 90 41 156s-14 117-41 155c-28 38-65 57-113 57s-85-19-112-57-40-89-40-155z"/></symbol><use xlink:href="#k" transform="matrix(10 0 0 -10 233.262 313.914)"/><use xlink:href="#l" transform="matrix(10 0 0 -10 239.344 314.044)"/><use xlink:href="#c" transform="matrix(10 0 0 -10 245.494 314.044)"/><use xlink:href="#m" transform="matrix(10 0 0 -10 251.974 313.914)"/><use xlink:href="#n" transform="matrix(10 0 0 -10 255.552 314.044)"/><use xlink:href="#l" transform="matrix(10 0 0 -10 261.902 314.044)"/><use xlink:href="#m" transform="matrix(10 0 0 -10 268.412 313.914)"/><clipPath id="o"><path transform="matrix(1 0 0 -1 0 337.832)" d="M57.466 35.013h388.96v295.62H57.466z"/></clipPath><g clip-path="url(#o)"><path stroke-width=".8" stroke-dasharray="2.96,1.28" stroke-linejoin="round" fill="none" stroke="#bebebe" stroke-opacity=".8" d="M393.386 302.82V7.2"/></g><symbol id="p"><path transform="translate(-.098) scale(.001)" d="M197 648V81h119c100 0 174 22 221 68 46 46 70 118 70 216s-24 169-70 215c-47 45-121 68-221 68H197zm-99 81h203c141 0 245-30 311-88 66-59 99-151 99-276 0-126-34-218-100-277S441 0 301 0H98v729z"/></symbol><symbol id="q"><path transform="translate(-.027) scale(.001)" d="M183 702V547h185v-70H183V180c0-45 6-74 18-86 12-13 37-19 75-19h92V0h-92c-70 0-118 13-144 39s-39 73-39 141v297H27v70h66v155h90z"/></symbol><symbol id="r"><path transform="translate(-.094) scale(.001)" d="M94 547h90V0H94v547zm0 213h90V646H94v114z"/></symbol><symbol id="s"><path transform="translate(-.091) scale(.001)" d="M549 330V0h-90v327c0 52-11 90-31 116s-50 39-90 39c-49 0-87-16-115-47s-42-73-42-126V0H91v547h90v-85c21 32 46 57 76 73 29 16 63 25 101 25 62 0 110-20 142-59s49-96 49-171z"/></symbol><use xlink:href="#p" transform="matrix(10 0 0 -10 373.381 313.914)"/><use xlink:href="#l" transform="matrix(10 0 0 -10 380.651 314.044)"/><use xlink:href="#f" transform="matrix(10 0 0 -10 387.191 313.914)"/><use xlink:href="#l" transform="matrix(10 0 0 -10 389.581 314.044)"/><use xlink:href="#q" transform="matrix(10 0 0 -10 395.451 313.914)"/><use xlink:href="#r" transform="matrix(10 0 0 -10 400.041 313.914)"/><use xlink:href="#c" transform="matrix(10 0 0 -10 402.431 314.044)"/><use xlink:href="#s" transform="matrix(10 0 0 -10 408.911 313.914)"/><symbol id="t"><path transform="translate(-.008) scale(.001)" d="M342 632 208 269h268L342 632zm-56 97h112L676 0H573l-66 187H178L112 0H8l278 729z"/></symbol><symbol id="u"><path transform="matrix(.001 0 0 .001 -.06 .013)" d="M343 275c-73 0-123-9-151-25-28-17-42-45-42-85 0-32 10-58 31-76 21-19 50-28 86-28 50 0 90 17 120 53 30 35 45 82 45 141v20h-89zm179 37V0h-90v83c-21-34-47-58-77-73s-68-23-112-23c-56 0-101 15-134 46s-49 73-49 126c0 61 20 107 62 139 41 31 102 47 184 47h126v9c0 41-14 73-41 96-27 22-65 34-114 34-32 0-62-4-92-12s-58-19-85-33v83c32 12 64 22 95 28s61 10 91 10c79 0 138-21 177-62s59-103 59-186z"/></symbol><symbol id="v"><path transform="matrix(.001 0 0 .001 -.055 .013)" d="M488 526v-84c-26 14-51 24-77 31s-51 11-77 11c-58 0-104-19-136-56s-48-89-48-155c0-67 16-119 48-156s78-55 136-55c26 0 51 3 77 10s51 18 77 32V21C462 9 436 0 410-5c-27-5-56-8-86-8-82 0-148 25-196 77-49 51-73 121-73 209 0 89 24 159 73 210s116 77 202 77c28 0 55-3 81-9s52-14 77-25z"/></symbol><symbol id="w"><path transform="translate(-.091) scale(.001)" d="M91 760h90V311l268 236h115L274 291 576 0H459L181 267V0H91v760z"/></symbol><symbol id="y"><path transform="translate(-.098) scale(.001)" d="M98 729h147l186-496 187 496h147V0h-96v640L481 140h-99L194 640V0H98v729z"/></symbol><symbol id="z"><path transform="matrix(.001 0 0 .001 -.054 .013)" d="M443 531v-85c-26 12-52 22-79 29-28 6-56 10-85 10-45 0-79-7-101-21s-33-34-33-61c0-21 8-37 24-49s48-24 96-34l31-7c64-14 109-34 136-58 26-25 40-60 40-104 0-51-20-91-60-120-40-30-96-44-166-44-30 0-60 3-92 8S89 8 54 20v93c33-18 66-31 98-39 32-9 64-13 96-13 42 0 75 7 98 21 22 14 34 35 34 62 0 24-9 43-25 56s-52 26-108 38l-31 7c-56 12-97 30-121 54-25 24-37 57-37 100 0 51 18 91 54 119s88 42 156 42c33 0 64-3 94-8 29-5 56-12 81-21z"/></symbol><use xlink:href="#t" transform="matrix(11 0 0 -11 209.26 328.351)"/><use xlink:href="#q" transform="matrix(11 0 0 -11 216.806 328.351)"/><use xlink:href="#q" transform="matrix(11 0 0 -11 221.118 328.351)"/><use xlink:href="#u" transform="matrix(11 0 0 -11 225.793 328.494)"/><use xlink:href="#v" transform="matrix(11 0 0 -11 232.48 328.494)"/><use xlink:href="#w" transform="matrix(11 0 0 -11 238.927 328.351)"/><use xlink:href="#x" transform="matrix(11 0 0 -11 244.295 328.351)"/><use xlink:href="#y" transform="matrix(11 0 0 -11 248.87 328.351)"/><use xlink:href="#l" transform="matrix(11 0 0 -11 257.89 328.494)"/><use xlink:href="#q" transform="matrix(11 0 0 -11 264.348 328.351)"/><use xlink:href="#i" transform="matrix(11 0 0 -11 269.364 328.351)"/><use xlink:href="#c" transform="matrix(11 0 0 -11 275.942 328.494)"/><use xlink:href="#n" transform="matrix(11 0 0 -11 282.674 328.494)"/><use xlink:href="#z" transform="matrix(11 0 0 -11 289.648 328.494)"/><clipPath id="A"><path transform="matrix(1 0 0 -1 0 337.832)" d="M57.466 35.013h388.96v295.62H57.466z"/></clipPath><g clip-path="url(#A)"><path stroke-width=".8" stroke-dasharray="2.96,1.28" stroke-linejoin="round" fill="none" stroke="#bebebe" stroke-opacity=".8" d="M57.466 302.82h388.96"/></g><path stroke-width=".8" stroke-linejoin="round" fill="none" stroke="#000" d="M57.466 302.82h-3.5"/><symbol id="B"><path transform="matrix(.001 0 0 .001 -.066 .013)" d="M318 664c-51 0-89-25-115-75s-38-125-38-225 12-175 38-225 64-75 115-75 89 25 115 75c25 50 38 125 38 225s-13 175-38 225c-26 50-64 75-115 75zm0 78c81 0 143-33 187-97 43-65 65-159 65-281 0-123-22-217-65-281-44-64-106-96-188-96S173 19 130 83 66 241 66 364c0 122 21 216 64 281 43 64 106 97 188 97z"/></symbol><symbol id="C"><path transform="translate(-.107) scale(.001)" d="M107 124h103V0H107v124z"/></symbol><use xlink:href="#B" transform="matrix(10 0 0 -10 22.5 306.747)"/><use xlink:href="#C" transform="matrix(10 0 0 -10 29.27 306.617)"/><use xlink:href="#B" transform="matrix(10 0 0 -10 32.04 306.747)"/><use xlink:href="#B" transform="matrix(10 0 0 -10 38.4 306.747)"/><use xlink:href="#B" transform="matrix(10 0 0 -10 44.76 306.747)"/><clipPath id="D"><path transform="matrix(1 0 0 -1 0 337.832)" d="M57.466 35.013h388.96v295.62H57.466z"/></clipPath><g clip-path="url(#D)"><path stroke-width=".8" stroke-dasharray="2.96,1.28" stroke-linejoin="round" fill="none" stroke="#bebebe" stroke-opacity=".8" d="M57.466 267.627h388.96"/></g><path stroke-width=".8" stroke-linejoin="round" fill="none" stroke="#000" d="M57.466 267.627h-3.5"/><symbol id="E"><path transform="translate(-.073) scale(.001)" d="M192 83h344V0H73v83c37 38 88 90 153 156 64 65 105 107 122 126 32 35 54 65 66 90 12 24 19 49 19 73 0 38-14 70-41 94s-62 37-106 37c-31 0-64-6-98-16-34-11-71-27-110-49v100c40 16 77 28 111 36s66 12 95 12c75 0 135-19 180-57s68-88 68-151c0-30-6-59-17-85-11-27-31-59-61-95-8-10-34-37-78-82S271 164 192 83z"/></symbol><symbol id="F"><path transform="matrix(.001 0 0 .001 -.077 .013)" d="M108 729h387v-83H198V467c14 5 29 9 43 11s29 4 43 4c81 0 145-23 193-67 48-45 72-105 72-181 0-79-25-140-74-183S357-13 269-13c-31 0-62 3-94 7-32 5-64 12-98 23v99c29-16 59-28 91-36 31-8 64-11 99-11 56 0 101 14 134 44 32 30 49 70 49 121 0 50-17 90-49 120-33 30-78 45-134 45-26 0-53-3-79-9s-53-15-80-27v366z"/></symbol><use xlink:href="#B" transform="matrix(10 0 0 -10 22.5 271.554)"/><use xlink:href="#C" transform="matrix(10 0 0 -10 29.27 271.424)"/><use xlink:href="#B" transform="matrix(10 0 0 -10 32.04 271.554)"/><use xlink:href="#E" transform="matrix(10 0 0 -10 38.47 271.424)"/><use xlink:href="#F" transform="matrix(10 0 0 -10 44.87 271.554)"/><clipPath id="G"><path transform="matrix(1 0 0 -1 0 337.832)" d="M57.466 35.013h388.96v295.62H57.466z"/></clipPath><g clip-path="url(#G)"><path stroke-width=".8" stroke-dasharray="2.96,1.28" stroke-linejoin="round" fill="none" stroke="#bebebe" stroke-opacity=".8" d="M57.466 232.434h388.96"/></g><path stroke-width=".8" stroke-linejoin="round" fill="none" stroke="#000" d="M57.466 232.434h-3.5"/><use xlink:href="#B" transform="matrix(10 0 0 -10 22.5 236.361)"/><use xlink:href="#C" transform="matrix(10 0 0 -10 29.27 236.231)"/><use xlink:href="#B" transform="matrix(10 0 0 -10 32.04 236.361)"/><use xlink:href="#F" transform="matrix(10 0 0 -10 38.51 236.361)"/><use xlink:href="#B" transform="matrix(10 0 0 -10 44.76 236.361)"/><clipPath id="H"><path transform="matrix(1 0 0 -1 0 337.832)" d="M57.466 35.013h388.96v295.62H57.466z"/></clipPath><g clip-path="url(#H)"><path stroke-width=".8" stroke-dasharray="2.96,1.28" stroke-linejoin="round" fill="none" stroke="#bebebe" stroke-opacity=".8" d="M57.466 197.241h388.96"/></g><path stroke-width=".8" stroke-linejoin="round" fill="none" stroke="#000" d="M57.466 197.241h-3.5"/><symbol id="I"><path transform="translate(-.082) scale(.001)" d="M82 729h469v-42L286 0H183l249 646H82v83z"/></symbol><use xlink:href="#B" transform="matrix(10 0 0 -10 22.5 201.168)"/><use xlink:href="#C" transform="matrix(10 0 0 -10 29.27 201.038)"/><use xlink:href="#B" transform="matrix(10 0 0 -10 32.04 201.168)"/><use xlink:href="#I" transform="matrix(10 0 0 -10 38.56 201.038)"/><use xlink:href="#F" transform="matrix(10 0 0 -10 44.87 201.168)"/><clipPath id="J"><path transform="matrix(1 0 0 -1 0 337.832)" d="M57.466 35.013h388.96v295.62H57.466z"/></clipPath><g clip-path="url(#J)"><path stroke-width=".8" stroke-dasharray="2.96,1.28" stroke-linejoin="round" fill="none" stroke="#bebebe" stroke-opacity=".8" d="M57.466 162.049h388.96"/></g><path stroke-width=".8" stroke-linejoin="round" fill="none" stroke="#000" d="M57.466 162.049h-3.5"/><symbol id="K"><path transform="translate(-.11) scale(.001)" d="M124 83h161v556l-175-35v90l174 35h99V83h161V0H124v83z"/></symbol><use xlink:href="#B" transform="matrix(10 0 0 -10 22.5 165.975)"/><use xlink:href="#C" transform="matrix(10 0 0 -10 29.27 165.845)"/><use xlink:href="#K" transform="matrix(10 0 0 -10 32.48 165.845)"/><use xlink:href="#B" transform="matrix(10 0 0 -10 38.4 165.975)"/><use xlink:href="#B" transform="matrix(10 0 0 -10 44.76 165.975)"/><clipPath id="L"><path transform="matrix(1 0 0 -1 0 337.832)" d="M57.466 35.013h388.96v295.62H57.466z"/></clipPath><g clip-path="url(#L)"><path stroke-width=".8" stroke-dasharray="2.96,1.28" stroke-linejoin="round" fill="none" stroke="#bebebe" stroke-opacity=".8" d="M57.466 126.856h388.96"/></g><path stroke-width=".8" stroke-linejoin="round" fill="none" stroke="#000" d="M57.466 126.856h-3.5"/><use xlink:href="#B" transform="matrix(10 0 0 -10 22.5 130.783)"/><use xlink:href="#C" transform="matrix(10 0 0 -10 29.27 130.653)"/><use xlink:href="#K" transform="matrix(10 0 0 -10 32.48 130.653)"/><use xlink:href="#E" transform="matrix(10 0 0 -10 38.47 130.653)"/><use xlink:href="#F" transform="matrix(10 0 0 -10 44.87 130.783)"/><clipPath id="M"><path transform="matrix(1 0 0 -1 0 337.832)" d="M57.466 35.013h388.96v295.62H57.466z"/></clipPath><g clip-path="url(#M)"><path stroke-width=".8" stroke-dasharray="2.96,1.28" stroke-linejoin="round" fill="none" stroke="#bebebe" stroke-opacity=".8" d="M57.466 91.663h388.96"/></g><path stroke-width=".8" stroke-linejoin="round" fill="none" stroke="#000" d="M57.466 91.663h-3.5"/><use xlink:href="#B" transform="matrix(10 0 0 -10 22.5 95.59)"/><use xlink:href="#C" transform="matrix(10 0 0 -10 29.27 95.46)"/><use xlink:href="#K" transform="matrix(10 0 0 -10 32.48 95.46)"/><use xlink:href="#F" transform="matrix(10 0 0 -10 38.51 95.59)"/><use xlink:href="#B" transform="matrix(10 0 0 -10 44.76 95.59)"/><clipPath id="N"><path transform="matrix(1 0 0 -1 0 337.832)" d="M57.466 35.013h388.96v295.62H57.466z"/></clipPath><g clip-path="url(#N)"><path stroke-width=".8" stroke-dasharray="2.96,1.28" stroke-linejoin="round" fill="none" stroke="#bebebe" stroke-opacity=".8" d="M57.466 56.47h388.96"/></g><path stroke-width=".8" stroke-linejoin="round" fill="none" stroke="#000" d="M57.466 56.47h-3.5"/><use xlink:href="#B" transform="matrix(10 0 0 -10 22.5 60.397)"/><use xlink:href="#C" transform="matrix(10 0 0 -10 29.27 60.267)"/><use xlink:href="#K" transform="matrix(10 0 0 -10 32.48 60.267)"/><use xlink:href="#I" transform="matrix(10 0 0 -10 38.56 60.267)"/><use xlink:href="#F" transform="matrix(10 0 0 -10 44.87 60.397)"/><clipPath id="O"><path transform="matrix(1 0 0 -1 0 337.832)" d="M57.466 35.013h388.96v295.62H57.466z"/></clipPath><g clip-path="url(#O)"><path stroke-width=".8" stroke-dasharray="2.96,1.28" stroke-linejoin="round" fill="none" stroke="#bebebe" stroke-opacity=".8" d="M57.466 21.277h388.96"/></g><path stroke-width=".8" stroke-linejoin="round" fill="none" stroke="#000" d="M57.466 21.277h-3.5"/><use xlink:href="#B" transform="matrix(10 0 0 -10 22.5 25.204)"/><use xlink:href="#C" transform="matrix(10 0 0 -10 29.27 25.074)"/><use xlink:href="#E" transform="matrix(10 0 0 -10 32.11 25.074)"/><use xlink:href="#B" transform="matrix(10 0 0 -10 38.4 25.204)"/><use xlink:href="#B" transform="matrix(10 0 0 -10 44.76 25.204)"/><symbol id="P"><path transform="matrix(.001 0 0 .001 -.066 .013)" d="M535 705v-96c-38 18-73 31-106 40-34 8-66 13-96 13-54 0-96-11-125-31-29-21-43-51-43-89 0-32 9-57 29-73 19-17 56-30 110-40l60-12c73-14 127-39 162-74 35-36 53-83 53-142 0-71-24-124-71-160-48-36-117-54-208-54-35 0-72 4-111 11S110 16 69 32v102c40-23 79-40 117-51 38-12 76-17 114-17 56 0 99 11 130 33 30 22 46 53 46 95 0 36-11 64-33 84s-58 35-108 45l-60 12c-74 14-127 37-160 69-33 31-49 74-49 130 0 64 22 115 68 152 45 37 108 56 188 56 34 0 68-3 104-9 35-6 71-16 109-28z"/></symbol><symbol id="Q"><path transform="matrix(.001 0 0 .001 -.085 .013)" d="M85 216v331h90V219c0-52 10-90 30-116s50-39 91-39c48 0 87 15 115 46s42 73 42 127v310h90V0h-90v84c-22-34-48-58-76-74-29-15-62-23-100-23-63 0-111 19-143 58-33 38-49 95-49 171zm226 344z"/></symbol><use xlink:href="#t" transform="matrix(0 -11 -11 0 15.56 210.695)"/><use xlink:href="#q" transform="matrix(0 -11 -11 0 15.56 203.15)"/><use xlink:href="#q" transform="matrix(0 -11 -11 0 15.56 198.838)"/><use xlink:href="#u" transform="matrix(0 -11 -11 0 15.702 194.163)"/><use xlink:href="#v" transform="matrix(0 -11 -11 0 15.702 187.475)"/><use xlink:href="#w" transform="matrix(0 -11 -11 0 15.56 181.029)"/><use xlink:href="#x" transform="matrix(0 -11 -11 0 15.56 175.66)"/><use xlink:href="#P" transform="matrix(0 -11 -11 0 15.702 171.437)"/><use xlink:href="#Q" transform="matrix(0 -11 -11 0 15.702 164.243)"/><use xlink:href="#v" transform="matrix(0 -11 -11 0 15.702 157.599)"/><use xlink:href="#v" transform="matrix(0 -11 -11 0 15.702 151.549)"/><use xlink:href="#l" transform="scale(11) rotate(-90 7.327 5.9)"/><use xlink:href="#z" transform="matrix(0 -11 -11 0 15.702 138.745)"/><use xlink:href="#z" transform="matrix(0 -11 -11 0 15.702 133.014)"/><use xlink:href="#x" transform="matrix(0 -11 -11 0 15.56 127.877)"/><use xlink:href="#k" transform="matrix(0 -11 -11 0 15.56 123.3)"/><use xlink:href="#u" transform="scale(11) rotate(-90 6 4.573)"/><use xlink:href="#q" transform="matrix(0 -11 -11 0 15.56 109.928)"/><use xlink:href="#l" transform="scale(11) rotate(-90 5.5 4.073)"/><clipPath id="R"><path transform="matrix(1 0 0 -1 0 337.832)" d="M57.466 35.013h388.96v295.62H57.466z"/></clipPath><g clip-path="url(#R)"><path d="M75.146 302.82h35.36V184.572h-35.36z" fill="#ed706b"/><path stroke-miterlimit="10" fill="none" stroke="#000" d="M75.146 302.82h35.36V184.572h-35.36z"/></g><clipPath id="S"><path transform="matrix(1 0 0 -1 0 337.832)" d="M57.466 35.013h388.96v295.62H57.466z"/></clipPath><g clip-path="url(#S)"><path d="M216.586 302.82h35.36V66.324h-35.36z" fill="#ed706b"/><path stroke-miterlimit="10" fill="none" stroke="#000" d="M216.586 302.82h35.36V66.324h-35.36z"/></g><clipPath id="T"><path transform="matrix(1 0 0 -1 0 337.832)" d="M57.466 35.013h388.96v295.62H57.466z"/></clipPath><g clip-path="url(#T)"><path d="M358.026 302.82h35.36V21.277h-35.36z" fill="#ed706b"/><path stroke-miterlimit="10" fill="none" stroke="#000" d="M358.026 302.82h35.36V21.277h-35.36z"/></g><clipPath id="U"><path transform="matrix(1 0 0 -1 0 337.832)" d="M57.466 35.013h388.96v295.62H57.466z"/></clipPath><g clip-path="url(#U)"><path stroke-miterlimit="10" fill="none" stroke="#000" d="M110.506 302.82h35.36-35.36z"/></g><clipPath id="V"><path transform="matrix(1 0 0 -1 0 337.832)" d="M57.466 35.013h388.96v295.62H57.466z"/></clipPath><g clip-path="url(#V)"><path d="M251.946 302.82h35.36v-61.94h-35.36z" fill="#6666f6"/><path stroke-miterlimit="10" fill="none" stroke="#000" d="M251.946 302.82h35.36v-61.94h-35.36z"/></g><clipPath id="W"><path transform="matrix(1 0 0 -1 0 337.832)" d="M57.466 35.013h388.96v295.62H57.466z"/></clipPath><g clip-path="url(#W)"><path d="M393.386 302.82h35.36v-67.57h-35.36z" fill="#6666f6"/><path stroke-miterlimit="10" fill="none" stroke="#000" d="M393.386 302.82h35.36v-67.57h-35.36z"/></g><path stroke-width=".8" stroke-linecap="square" stroke-miterlimit="10" fill="none" stroke="#000" d="M57.466 302.82V7.2M446.426 302.82V7.2M57.466 302.82h388.96M57.466 7.2h388.96"/><path d="M66.466 24.122h20v-7h-20z" fill="#ed706b"/><path stroke-miterlimit="10" fill="none" stroke="#000" d="M66.466 24.122h20v-7h-20z"/><symbol id="X"><path transform="translate(-.098) scale(.001)" d="M197 348V81h158c53 0 92 11 118 33 25 22 38 55 38 101 0 45-13 78-38 100-26 22-65 33-118 33H197zm0 300V428h146c48 0 83 9 107 27s36 45 36 83c0 36-12 64-36 82s-59 28-107 28H197zm-99 81h252c75 0 133-16 174-47 40-32 61-76 61-133 0-45-11-81-32-107s-51-43-91-49c48-11 86-33 113-66 26-33 40-74 40-123 0-66-23-116-67-151C504 17 441 0 360 0H98v729z"/></symbol><symbol id="Y"><path transform="translate(-.098) scale(.001)" d="M98 729h461v-83H197V430h347v-83H197V83h371V0H98v729z"/></symbol><symbol id="Z"><path transform="translate(.002) scale(.001)" d="M-2 729h616v-83H355V0h-99v646H-2v83z"/></symbol><use xlink:href="#X" transform="matrix(10 0 0 -10 95.446 23.419)"/><use xlink:href="#Y" transform="matrix(10 0 0 -10 102.306 23.419)"/><use xlink:href="#k" transform="matrix(10 0 0 -10 108.624 23.419)"/><use xlink:href="#Z" transform="matrix(10 0 0 -10 114.573 23.419)"/><symbol id="aa"><path transform="translate(.052) scale(.001)" d="M368 729h112L615 0H512l-30 187H154L51 0H-52l420 729zm36-97L199 269h268l-63 363z"/></symbol><symbol id="ab"><path transform="translate(-.035) scale(.001)" d="M183 760h90L125 0H35l148 760z"/></symbol><use xlink:href="#aa" transform="matrix(7 0 0 -7 120.433 25.06)"/><use xlink:href="#ab" transform="matrix(7 0 0 -7 125.83 25.06)"/><use xlink:href="#ab" transform="matrix(7 0 0 -7 127.775 25.06)"/><path d="M66.466 39.2h20v-7h-20z" fill="#6666f6"/><path stroke-miterlimit="10" fill="none" stroke="#000" d="M66.466 39.2h20v-7h-20z"/><use xlink:href="#X" transform="matrix(10 0 0 -10 95.446 38.497)"/><use xlink:href="#Y" transform="matrix(10 0 0 -10 102.306 38.497)"/><use xlink:href="#k" transform="matrix(10 0 0 -10 108.624 38.497)"/><use xlink:href="#Z" transform="matrix(10 0 0 -10 114.573 38.497)"/><symbol id="ac"><path transform="matrix(.001 0 0 .001 -.041 .013)" d="M537 312 476 0h-90l17 83c-27-33-57-57-91-73-34-15-71-23-112-23-47 0-85 14-115 42S41 93 41 138c0 64 25 114 76 151s121 56 211 56h125l5 24c0 2 1 5 1 8s1 8 1 15c0 29-12 52-36 68s-57 24-99 24c-30 0-60-4-90-12-31-8-63-19-95-33l16 83c34 12 67 22 99 28s64 10 94 10c64 0 113-14 147-42s51-69 51-122c0-11-1-24-3-38-2-15-4-30-7-46zm-97-37h-90c-74 0-128-10-163-30-36-20-53-50-53-91 0-29 9-52 27-68s43-24 75-24c48 0 91 17 127 52s61 82 73 141l4 20z"/></symbol><symbol id="ad"><path transform="matrix(.001 0 0 .001 -.046 .013)" d="M418 82c-24-32-53-55-86-71s-69-24-109-24c-55 0-98 18-130 55s-47 88-47 153c0 54 9 105 29 154 19 49 47 93 83 132 24 26 51 45 81 59 30 13 62 20 96 20 35 0 66-9 93-26 26-17 47-41 62-72l59 298h90L491 0h-90l17 82zM139 211c0-48 10-85 32-111 21-26 51-39 89-39 28 0 54 6 78 20s45 34 63 60c19 27 34 59 45 95s17 71 17 106c0 45-11 80-32 106-22 25-51 38-88 38-29 0-56-7-80-20-24-14-45-33-62-58-19-27-34-58-45-94-12-36-17-71-17-103z"/></symbol><symbol id="ae"><path transform="translate(-.072) scale(.001)" d="M72 547h95l80-465 262 465h95L293 0H172L72 547z"/></symbol><symbol id="af"><path transform="matrix(.001 0 0 .001 -.046 .013)" d="M481 322c0 5 1 10 2 16 0 6 1 11 1 17 0 40-12 71-35 94-24 23-55 35-95 35-45 0-84-15-118-43s-60-68-78-119h323zm78-70H141c-2-13-4-23-4-30-1-7-1-13-1-18 0-46 14-81 42-105 28-25 67-37 118-37 38 0 75 4 110 13 35 8 68 21 98 39l-17-89C454 11 420 2 386-4s-69-9-104-9c-76 0-135 18-175 54-41 36-61 87-61 154 0 56 10 109 30 158s50 93 90 132c25 24 55 42 90 55s72 20 112 20c62 0 111-19 148-56 36-37 55-87 55-149 0-15-1-31-3-48-2-18-5-36-9-55z"/></symbol><symbol id="ag"><path transform="translate(-.035) scale(.001)" d="M446 464c-10 4-20 8-32 11-12 2-24 4-37 4-48 0-90-19-126-55s-59-85-71-145L125 0H35l107 547h90l-17-85c23 31 51 55 85 72 33 17 68 26 106 26 9 0 18-1 28-2s19-3 29-5l-17-89z"/></symbol><symbol id="ah"><path transform="matrix(.001 0 0 .001 -.011 .013)" d="m500 531-17-85c-24 12-50 22-76 29-26 6-53 10-81 10-48 0-85-8-112-24s-40-38-40-66c0-32 31-57 95-74 4-2 8-3 10-3l29-9c60-17 100-35 120-53s30-43 30-74c0-58-23-105-69-141S282-13 208-13c-29 0-59 3-91 8S49 8 11 20l18 93c32-18 65-31 97-39 32-9 62-13 92-13 44 0 79 9 107 28 27 19 41 43 41 72 0 31-36 56-108 76l-9 2-31 8c-46 12-80 27-101 47s-31 45-31 76c0 58 21 105 65 139s103 51 179 51c30 0 59-3 87-8s55-12 83-21z"/></symbol><symbol id="ai"><path transform="translate(-.035) scale(.001)" d="M183 760h90l-22-114h-90l22 114zm-41-213h90L125 0H35l107 547z"/></symbol><use xlink:href="#ac" transform="matrix(7 0 0 -7 121.084 40.228)"/><use xlink:href="#ad" transform="matrix(7 0 0 -7 125.408 40.228)"/><use xlink:href="#ae" transform="matrix(7 0 0 -7 130.034 40.137)"/><use xlink:href="#af" transform="matrix(7 0 0 -7 133.994 40.228)"/><use xlink:href="#ag" transform="matrix(7 0 0 -7 138.224 40.137)"/><use xlink:href="#ah" transform="matrix(7 0 0 -7 140.934 40.228)"/><use xlink:href="#ac" transform="matrix(7 0 0 -7 144.79 40.228)"/><use xlink:href="#ag" transform="matrix(7 0 0 -7 149.038 40.137)"/><use xlink:href="#ai" transform="matrix(7 0 0 -7 151.916 40.137)"/><use xlink:href="#ac" transform="matrix(7 0 0 -7 153.903 40.228)"/><use xlink:href="#ab" transform="matrix(7 0 0 -7 158.15 40.137)"/><symbol id="aj"><path transform="matrix(.001 0 0 .001 -.077 .115)" d="M117 124h103V40l-80-155H77l40 155v84z"/></symbol><use xlink:href="#aj" transform="matrix(7 0 0 -7 160.39 40.942)"/><use xlink:href="#aa" transform="matrix(7 0 0 -7 163.075 40.137)"/><use xlink:href="#ab" transform="matrix(7 0 0 -7 168.473 40.137)"/><use xlink:href="#ab" transform="matrix(7 0 0 -7 170.418 40.137)"/></svg>