<svg xmlns="http://www.w3.org/2000/svg" xmlns:xlink="http://www.w3.org/1999/xlink" width="573.922" height="427.391" viewBox="0 0 430.442 320.543"><path d="M0 320.543h430.442V0H0z" fill="#fff"/><path d="M66.122 273.312h357.12V7.2H66.122z" fill="#fff"/><path stroke-width=".8" stroke-linejoin="round" fill="none" stroke="#000" d="M82.355 273.312v3.5"/><symbol id="a"><path transform="matrix(.001 0 0 .001 -.066 .013)" d="M318 664c-51 0-89-25-115-75s-38-125-38-225 12-175 38-225 64-75 115-75 89 25 115 75c25 50 38 125 38 225s-13 175-38 225c-26 50-64 75-115 75zm0 78c81 0 143-33 187-97 43-65 65-159 65-281 0-123-22-217-65-281-44-64-106-96-188-96S173 19 130 83 66 241 66 364c0 122 21 216 64 281 43 64 106 97 188 97z"/></symbol><use xlink:href="#a" transform="matrix(15 0 0 -15 78.571 291.898)"/><path stroke-width=".8" stroke-linejoin="round" fill="none" stroke="#000" d="M147.286 273.312v3.5"/><symbol id="b"><path transform="translate(-.11) scale(.001)" d="M124 83h161v556l-175-35v90l174 35h99V83h161V0H124v83z"/></symbol><use xlink:href="#b" transform="matrix(15 0 0 -15 144.162 291.703)"/><path stroke-width=".8" stroke-linejoin="round" fill="none" stroke="#000" d="M212.216 273.312v3.5"/><symbol id="c"><path transform="translate(-.073) scale(.001)" d="M192 83h344V0H73v83c37 38 88 90 153 156 64 65 105 107 122 126 32 35 54 65 66 90 12 24 19 49 19 73 0 38-14 70-41 94s-62 37-106 37c-31 0-64-6-98-16-34-11-71-27-110-49v100c40 16 77 28 111 36s66 12 95 12c75 0 135-19 180-57s68-88 68-151c0-30-6-59-17-85-11-27-31-59-61-95-8-10-34-37-78-82S271 164 192 83z"/></symbol><use xlink:href="#c" transform="matrix(15 0 0 -15 208.538 291.703)"/><path stroke-width=".8" stroke-linejoin="round" fill="none" stroke="#000" d="M277.147 273.312v3.5"/><symbol id="d"><path transform="matrix(.001 0 0 .001 -.076 .013)" d="M406 393c47-10 84-31 110-63s40-72 40-118c0-72-25-128-74-167-50-39-120-58-211-58-31 0-63 3-95 9-32 5-66 14-100 26v95c27-16 57-28 90-36 32-8 66-12 102-12 62 0 109 12 141 36s49 60 49 107c0 42-15 76-45 100s-72 37-126 37h-85v81h89c48 0 85 9 111 29 26 19 39 47 39 84s-14 66-40 86c-27 20-65 30-114 30-27 0-56-3-87-9s-65-15-102-27v88c37 10 72 18 105 23 32 5 63 8 93 8 74 0 133-17 177-51s66-80 66-138c0-40-12-74-35-102s-56-48-98-58z"/></symbol><use xlink:href="#d" transform="matrix(15 0 0 -15 273.514 291.898)"/><path stroke-width=".8" stroke-linejoin="round" fill="none" stroke="#000" d="M342.078 273.312v3.5"/><symbol id="e"><path transform="translate(-.049) scale(.001)" d="M378 643 129 254h249v389zm-26 86h124V254h104v-82H476V0h-98v172H49v95l303 462z"/></symbol><use xlink:href="#e" transform="matrix(15 0 0 -15 338.04 291.703)"/><path stroke-width=".8" stroke-linejoin="round" fill="none" stroke="#000" d="M407.01 273.312v3.5"/><symbol id="f"><path transform="matrix(.001 0 0 .001 -.077 .013)" d="M108 729h387v-83H198V467c14 5 29 9 43 11s29 4 43 4c81 0 145-23 193-67 48-45 72-105 72-181 0-79-25-140-74-183S357-13 269-13c-31 0-62 3-94 7-32 5-64 12-98 23v99c29-16 59-28 91-36 31-8 64-11 99-11 56 0 101 14 134 44 32 30 49 70 49 121 0 50-17 90-49 120-33 30-78 45-134 45-26 0-53-3-79-9s-53-15-80-27v366z"/></symbol><use xlink:href="#f" transform="matrix(15 0 0 -15 403.39 291.898)"/><symbol id="g"><path transform="translate(-.098) scale(.001)" d="M98 729h147l186-496 187 496h147V0h-96v640L481 140h-99L194 640V0H98v729z"/></symbol><symbol id="h"><path transform="matrix(.001 0 0 .001 -.06 .013)" d="M343 275c-73 0-123-9-151-25-28-17-42-45-42-85 0-32 10-58 31-76 21-19 50-28 86-28 50 0 90 17 120 53 30 35 45 82 45 141v20h-89zm179 37V0h-90v83c-21-34-47-58-77-73s-68-23-112-23c-56 0-101 15-134 46s-49 73-49 126c0 61 20 107 62 139 41 31 102 47 184 47h126v9c0 41-14 73-41 96-27 22-65 34-114 34-32 0-62-4-92-12s-58-19-85-33v83c32 12 64 22 95 28s61 10 91 10c79 0 138-21 177-62s59-103 59-186z"/></symbol><symbol id="i"><path transform="translate(-.029) scale(.001)" d="M549 547 351 281 559 0H453L294 215 135 0H29l212 286L47 547h106l145-195 145 195h106z"/></symbol><symbol id="k"><path transform="translate(-.098) scale(.001)" d="M197 648V374h124c46 0 81 11 106 35s38 58 38 102-13 77-38 101-60 36-106 36H197zm-99 81h223c81 0 143-19 185-56s63-91 63-162c0-72-21-127-63-163-42-37-104-55-185-55H197V0H98v729z"/></symbol><symbol id="l"><path transform="matrix(.001 0 0 .001 -.055 .013)" d="M562 296v-44H149c4-62 22-110 56-142 33-32 79-48 139-48 34 0 68 4 100 12s65 21 97 39V28c-32-14-65-25-99-31s-69-10-103-10c-88 0-157 25-208 75S55 181 55 268c0 89 24 160 72 213 48 52 114 79 196 79 74 0 132-24 175-71 42-48 64-112 64-193zm-90 26c-1 49-15 88-41 118-27 29-63 44-107 44-50 0-90-15-120-43s-48-68-52-119h320z"/></symbol><symbol id="m"><path transform="translate(-.091) scale(.001)" d="M411 463c-10 6-21 10-33 13-12 2-25 4-39 4-51 0-90-17-117-50-28-33-41-80-41-142V0H91v547h90v-85c18 33 43 58 73 74s67 24 111 24c6 0 13-1 21-1 7-1 15-2 25-4v-92z"/></symbol><symbol id="n"><path transform="translate(-.027) scale(.001)" d="M183 702V547h185v-70H183V180c0-45 6-74 18-86 12-13 37-19 75-19h92V0h-92c-70 0-118 13-144 39s-39 73-39 141v297H27v70h66v155h90z"/></symbol><symbol id="o"><path transform="matrix(.001 0 0 .001 -.085 .013)" d="M85 216v331h90V219c0-52 10-90 30-116s50-39 91-39c48 0 87 15 115 46s42 73 42 127v310h90V0h-90v84c-22-34-48-58-76-74-29-15-62-23-100-23-63 0-111 19-143 58-33 38-49 95-49 171zm226 344z"/></symbol><symbol id="p"><path transform="matrix(.001 0 0 .001 -.091 .013)" d="M487 273c0 66-14 117-41 155-28 38-65 57-112 57-48 0-85-19-112-57-28-38-41-89-41-155s13-118 41-156c27-38 64-56 112-56 47 0 84 18 112 56 27 38 41 90 41 156zM181 464c18 32 42 56 71 72s64 24 104 24c66 0 120-27 162-79 41-53 62-122 62-208s-21-156-62-208c-42-52-96-78-162-78-40 0-75 8-104 23s-53 39-71 72V0H91v760h90V464z"/></symbol><symbol id="q"><path transform="translate(-.094) scale(.001)" d="M94 547h90V0H94v547zm0 213h90V646H94v114z"/></symbol><symbol id="r"><path transform="matrix(.001 0 0 .001 -.055 .013)" d="M306 484c-48 0-86-19-114-57s-42-89-42-154c0-66 13-117 41-155s66-56 115-56c48 0 86 18 114 56s42 89 42 155c0 64-14 116-42 154s-66 57-114 57zm0 76c78 0 139-26 184-76 44-51 67-121 67-211s-23-160-67-210c-45-51-106-76-184-76-79 0-141 25-185 76-44 50-66 120-66 210s22 160 66 211c44 50 106 76 185 76z"/></symbol><symbol id="s"><path transform="translate(-.091) scale(.001)" d="M549 330V0h-90v327c0 52-11 90-31 116s-50 39-90 39c-49 0-87-16-115-47s-42-73-42-126V0H91v547h90v-85c21 32 46 57 76 73 29 16 63 25 101 25 62 0 110-20 142-59s49-96 49-171z"/></symbol><use xlink:href="#g" transform="matrix(15 0 0 -15 181.792 310.218)"/><use xlink:href="#h" transform="matrix(15 0 0 -15 194.167 310.413)"/><use xlink:href="#i" transform="matrix(15 0 0 -15 202.897 310.218)"/><use xlink:href="#j" transform="matrix(15 0 0 -15 211.343 310.218)"/><use xlink:href="#k" transform="matrix(15 0 0 -15 217.582 310.218)"/><use xlink:href="#l" transform="matrix(15 0 0 -15 225.451 310.413)"/><use xlink:href="#m" transform="matrix(15 0 0 -15 235.216 310.218)"/><use xlink:href="#n" transform="matrix(15 0 0 -15 240.421 310.218)"/><use xlink:href="#o" transform="matrix(15 0 0 -15 247.171 310.413)"/><use xlink:href="#m" transform="matrix(15 0 0 -15 256.771 310.218)"/><use xlink:href="#p" transform="matrix(15 0 0 -15 262.936 310.413)"/><use xlink:href="#h" transform="matrix(15 0 0 -15 271.996 310.413)"/><use xlink:href="#n" transform="matrix(15 0 0 -15 280.696 310.218)"/><use xlink:href="#q" transform="matrix(15 0 0 -15 287.581 310.218)"/><use xlink:href="#r" transform="matrix(15 0 0 -15 291.166 310.413)"/><use xlink:href="#s" transform="matrix(15 0 0 -15 300.886 310.218)"/><clipPath id="t"><path transform="matrix(1 0 0 -1 0 320.543)" d="M66.122 47.231h357.12v266.112H66.122z"/></clipPath><g clip-path="url(#t)"><path stroke-width=".3" stroke-dasharray="1.11,.48" stroke-linejoin="round" fill="none" stroke="#bebebe" d="M66.122 273.312h357.12"/></g><path stroke-width=".8" stroke-linejoin="round" fill="none" stroke="#000" d="M66.122 273.312h-3.5"/><symbol id="u"><path transform="translate(-.107) scale(.001)" d="M107 124h103V0H107v124z"/></symbol><use xlink:href="#a" transform="matrix(15 0 0 -15 26.706 279.202)"/><use xlink:href="#u" transform="matrix(15 0 0 -15 36.86 279.007)"/><use xlink:href="#a" transform="matrix(15 0 0 -15 41.016 279.202)"/><use xlink:href="#a" transform="matrix(15 0 0 -15 50.556 279.202)"/><clipPath id="v"><path transform="matrix(1 0 0 -1 0 320.543)" d="M66.122 47.231h357.12v266.112H66.122z"/></clipPath><g clip-path="url(#v)"><path stroke-width=".3" stroke-dasharray="1.11,.48" stroke-linejoin="round" fill="none" stroke="#bebebe" d="M66.122 239.52h357.12"/></g><path stroke-width=".8" stroke-linejoin="round" fill="none" stroke="#000" d="M66.122 239.52h-3.5"/><use xlink:href="#a" transform="matrix(15 0 0 -15 26.706 245.41)"/><use xlink:href="#u" transform="matrix(15 0 0 -15 36.86 245.215)"/><use xlink:href="#a" transform="matrix(15 0 0 -15 41.016 245.41)"/><use xlink:href="#c" transform="matrix(15 0 0 -15 50.66 245.215)"/><clipPath id="w"><path transform="matrix(1 0 0 -1 0 320.543)" d="M66.122 47.231h357.12v266.112H66.122z"/></clipPath><g clip-path="url(#w)"><path stroke-width=".3" stroke-dasharray="1.11,.48" stroke-linejoin="round" fill="none" stroke="#bebebe" d="M66.122 205.728h357.12"/></g><path stroke-width=".8" stroke-linejoin="round" fill="none" stroke="#000" d="M66.122 205.728h-3.5"/><use xlink:href="#a" transform="matrix(15 0 0 -15 26.706 211.618)"/><use xlink:href="#u" transform="matrix(15 0 0 -15 36.86 211.423)"/><use xlink:href="#a" transform="matrix(15 0 0 -15 41.016 211.618)"/><use xlink:href="#e" transform="matrix(15 0 0 -15 50.3 211.423)"/><clipPath id="x"><path transform="matrix(1 0 0 -1 0 320.543)" d="M66.122 47.231h357.12v266.112H66.122z"/></clipPath><g clip-path="url(#x)"><path stroke-width=".3" stroke-dasharray="1.11,.48" stroke-linejoin="round" fill="none" stroke="#bebebe" d="M66.122 171.936h357.12"/></g><path stroke-width=".8" stroke-linejoin="round" fill="none" stroke="#000" d="M66.122 171.936h-3.5"/><symbol id="y"><path transform="matrix(.001 0 0 .001 -.07 .013)" d="M330 404c-44 0-79-16-105-46s-39-72-39-124c0-53 13-95 39-125s61-45 105-45 79 15 105 45 39 72 39 125c0 52-13 94-39 124s-61 46-105 46zm196 309v-90c-25 12-50 21-75 27-26 6-51 9-75 9-66 0-116-22-150-66s-54-111-58-199c19 28 43 50 72 65s61 23 96 23c73 0 131-23 173-67s64-105 64-181c0-75-23-135-67-180S403-13 330-13c-84 0-149 32-193 96-45 64-67 158-67 281 0 115 27 207 82 275 54 68 128 103 220 103 24 0 49-3 75-7 25-5 51-12 79-22z"/></symbol><use xlink:href="#a" transform="matrix(15 0 0 -15 26.706 177.826)"/><use xlink:href="#u" transform="matrix(15 0 0 -15 36.86 177.631)"/><use xlink:href="#a" transform="matrix(15 0 0 -15 41.016 177.826)"/><use xlink:href="#y" transform="matrix(15 0 0 -15 50.616 177.826)"/><clipPath id="z"><path transform="matrix(1 0 0 -1 0 320.543)" d="M66.122 47.231h357.12v266.112H66.122z"/></clipPath><g clip-path="url(#z)"><path stroke-width=".3" stroke-dasharray="1.11,.48" stroke-linejoin="round" fill="none" stroke="#bebebe" d="M66.122 138.144h357.12"/></g><path stroke-width=".8" stroke-linejoin="round" fill="none" stroke="#000" d="M66.122 138.144h-3.5"/><symbol id="A"><path transform="matrix(.001 0 0 .001 -.068 .013)" d="M318 346c-47 0-84-13-111-38s-40-59-40-103 13-79 40-104 64-37 111-37c46 0 83 12 110 38 27 25 41 59 41 103s-14 78-40 103c-27 25-64 38-111 38zm-99 42c-42 10-75 30-99 59s-35 64-35 106c0 58 20 104 62 138 41 34 98 51 171 51 72 0 129-17 171-51 41-34 62-80 62-138 0-42-12-77-36-106s-56-49-98-59c47-11 84-33 111-65 26-32 40-72 40-118 0-71-22-125-65-162-44-38-106-56-186-56S175 5 132 43c-43 37-64 91-64 162 0 46 13 86 40 118 26 32 63 54 111 65zm-36 156c0-38 11-68 35-89s57-31 100-31c42 0 75 10 99 31s36 51 36 89-12 67-36 88-57 32-99 32c-43 0-76-11-100-32s-35-50-35-88z"/></symbol><use xlink:href="#a" transform="matrix(15 0 0 -15 26.706 144.034)"/><use xlink:href="#u" transform="matrix(15 0 0 -15 36.86 143.84)"/><use xlink:href="#a" transform="matrix(15 0 0 -15 41.016 144.034)"/><use xlink:href="#A" transform="matrix(15 0 0 -15 50.586 144.034)"/><clipPath id="B"><path transform="matrix(1 0 0 -1 0 320.543)" d="M66.122 47.231h357.12v266.112H66.122z"/></clipPath><g clip-path="url(#B)"><path stroke-width=".3" stroke-dasharray="1.11,.48" stroke-linejoin="round" fill="none" stroke="#bebebe" d="M66.122 104.352h357.12"/></g><path stroke-width=".8" stroke-linejoin="round" fill="none" stroke="#000" d="M66.122 104.352h-3.5"/><use xlink:href="#a" transform="matrix(15 0 0 -15 26.706 110.242)"/><use xlink:href="#u" transform="matrix(15 0 0 -15 36.86 110.047)"/><use xlink:href="#b" transform="matrix(15 0 0 -15 41.676 110.047)"/><use xlink:href="#a" transform="matrix(15 0 0 -15 50.556 110.242)"/><clipPath id="C"><path transform="matrix(1 0 0 -1 0 320.543)" d="M66.122 47.231h357.12v266.112H66.122z"/></clipPath><g clip-path="url(#C)"><path stroke-width=".3" stroke-dasharray="1.11,.48" stroke-linejoin="round" fill="none" stroke="#bebebe" d="M66.122 70.56h357.12"/></g><path stroke-width=".8" stroke-linejoin="round" fill="none" stroke="#000" d="M66.122 70.56h-3.5"/><use xlink:href="#a" transform="matrix(15 0 0 -15 26.706 76.45)"/><use xlink:href="#u" transform="matrix(15 0 0 -15 36.86 76.255)"/><use xlink:href="#b" transform="matrix(15 0 0 -15 41.676 76.255)"/><use xlink:href="#c" transform="matrix(15 0 0 -15 50.66 76.255)"/><clipPath id="D"><path transform="matrix(1 0 0 -1 0 320.543)" d="M66.122 47.231h357.12v266.112H66.122z"/></clipPath><g clip-path="url(#D)"><path stroke-width=".3" stroke-dasharray="1.11,.48" stroke-linejoin="round" fill="none" stroke="#bebebe" d="M66.122 36.768h357.12"/></g><path stroke-width=".8" stroke-linejoin="round" fill="none" stroke="#000" d="M66.122 36.768h-3.5"/><use xlink:href="#a" transform="matrix(15 0 0 -15 26.706 42.658)"/><use xlink:href="#u" transform="matrix(15 0 0 -15 36.86 42.463)"/><use xlink:href="#b" transform="matrix(15 0 0 -15 41.676 42.463)"/><use xlink:href="#e" transform="matrix(15 0 0 -15 50.3 42.463)"/><symbol id="E"><path transform="translate(-.008) scale(.001)" d="M342 632 208 269h268L342 632zm-56 97h112L676 0H573l-66 187H178L112 0H8l278 729z"/></symbol><symbol id="F"><path transform="matrix(.001 0 0 .001 -.055 .013)" d="M488 526v-84c-26 14-51 24-77 31s-51 11-77 11c-58 0-104-19-136-56s-48-89-48-155c0-67 16-119 48-156s78-55 136-55c26 0 51 3 77 10s51 18 77 32V21C462 9 436 0 410-5c-27-5-56-8-86-8-82 0-148 25-196 77-49 51-73 121-73 209 0 89 24 159 73 210s116 77 202 77c28 0 55-3 81-9s52-14 77-25z"/></symbol><symbol id="G"><path transform="translate(-.091) scale(.001)" d="M91 760h90V311l268 236h115L274 291 576 0H459L181 267V0H91v760z"/></symbol><symbol id="H"><path transform="matrix(.001 0 0 .001 -.066 .013)" d="M535 705v-96c-38 18-73 31-106 40-34 8-66 13-96 13-54 0-96-11-125-31-29-21-43-51-43-89 0-32 9-57 29-73 19-17 56-30 110-40l60-12c73-14 127-39 162-74 35-36 53-83 53-142 0-71-24-124-71-160-48-36-117-54-208-54-35 0-72 4-111 11S110 16 69 32v102c40-23 79-40 117-51 38-12 76-17 114-17 56 0 99 11 130 33 30 22 46 53 46 95 0 36-11 64-33 84s-58 35-108 45l-60 12c-74 14-127 37-160 69-33 31-49 74-49 130 0 64 22 115 68 152 45 37 108 56 188 56 34 0 68-3 104-9 35-6 71-16 109-28z"/></symbol><symbol id="I"><path transform="matrix(.001 0 0 .001 -.054 .013)" d="M443 531v-85c-26 12-52 22-79 29-28 6-56 10-85 10-45 0-79-7-101-21s-33-34-33-61c0-21 8-37 24-49s48-24 96-34l31-7c64-14 109-34 136-58 26-25 40-60 40-104 0-51-20-91-60-120-40-30-96-44-166-44-30 0-60 3-92 8S89 8 54 20v93c33-18 66-31 98-39 32-9 64-13 96-13 42 0 75 7 98 21 22 14 34 35 34 62 0 24-9 43-25 56s-52 26-108 38l-31 7c-56 12-97 30-121 54-25 24-37 57-37 100 0 51 18 91 54 119s88 42 156 42c33 0 64-3 94-8 29-5 56-12 81-21z"/></symbol><symbol id="J"><path transform="translate(-.098) scale(.001)" d="M444 342c21-8 42-23 62-46 20-24 40-56 60-97L666 0H560l-93 187c-24 48-48 81-70 97-23 16-54 24-93 24H197V0H98v729h223c83 0 145-18 186-52 41-35 62-88 62-158 0-46-11-85-32-115-22-30-53-51-93-62zM197 648V389h124c47 0 83 11 107 33s37 54 37 97c0 42-13 74-37 96s-60 33-107 33H197z"/></symbol><use xlink:href="#E" transform="matrix(0 -15 -15 0 18.59 216.214)"/><use xlink:href="#n" transform="matrix(0 -15 -15 0 18.59 205.92)"/><use xlink:href="#n" transform="matrix(0 -15 -15 0 18.59 200.04)"/><use xlink:href="#h" transform="matrix(0 -15 -15 0 18.786 193.664)"/><use xlink:href="#F" transform="matrix(0 -15 -15 0 18.786 184.544)"/><use xlink:href="#G" transform="matrix(0 -15 -15 0 18.59 175.754)"/><use xlink:href="#j" transform="matrix(0 -15 -15 0 18.59 168.434)"/><use xlink:href="#H" transform="matrix(0 -15 -15 0 18.786 162.674)"/><use xlink:href="#o" transform="matrix(0 -15 -15 0 18.786 152.864)"/><use xlink:href="#F" transform="matrix(0 -15 -15 0 18.786 143.804)"/><use xlink:href="#F" transform="matrix(0 -15 -15 0 18.786 135.554)"/><use xlink:href="#l" transform="matrix(0 -15 -15 0 18.786 127.304)"/><use xlink:href="#I" transform="matrix(0 -15 -15 0 18.786 118.094)"/><use xlink:href="#I" transform="matrix(0 -15 -15 0 18.786 110.28)"/><use xlink:href="#j" transform="matrix(0 -15 -15 0 18.59 103.274)"/><use xlink:href="#J" transform="matrix(0 -15 -15 0 18.59 97.034)"/><use xlink:href="#h" transform="matrix(0 -15 -15 0 18.786 87.507)"/><use xlink:href="#n" transform="matrix(0 -15 -15 0 18.59 78.807)"/><use xlink:href="#l" transform="matrix(0 -15 -15 0 18.786 72.507)"/><clipPath id="K"><path transform="matrix(1 0 0 -1 0 320.543)" d="M66.122 47.231h357.12v266.112H66.122z"/></clipPath><g clip-path="url(#K)"><path stroke-width="2" stroke-linecap="square" stroke-linejoin="round" fill="none" stroke="red" stroke-opacity=".6" d="M82.355 273.312H277.147l64.931-33.792 64.931-16.896"/></g><clipPath id="L"><path transform="matrix(1 0 0 -1 0 320.543)" d="M66.122 47.231h357.12v266.112H66.122z"/></clipPath><g clip-path="url(#L)"><path stroke-width="2" stroke-linecap="square" stroke-linejoin="round" fill="none" stroke="#00f" stroke-opacity=".6" d="m82.355 273.312 64.93-33.792 64.931-101.376 64.931-33.792 64.931-84.48 64.931 16.896"/></g><clipPath id="M"><path transform="matrix(1 0 0 -1 0 320.543)" d="M66.122 47.231h357.12v266.112H66.122z"/></clipPath><g clip-path="url(#M)"><path stroke-width="2" stroke-linecap="square" stroke-linejoin="round" fill="none" stroke="green" stroke-opacity=".6" d="m82.355 273.312 64.93-16.896 64.931-50.688h64.931l64.931-16.896h64.931"/></g><path stroke-width=".8" stroke-linecap="square" stroke-miterlimit="10" fill="none" stroke="#000" d="M66.122 273.312V7.2M423.242 273.312V7.2M66.122 273.312h357.12M66.122 7.2h357.12"/><path d="M73.122 59.216h82.937c1.334 0 2-.667 2-2V14.2c0-1.333-.666-2-2-2H73.122c-1.333 0-2 .667-2 2v43.016c0 1.333.667 2 2 2z" fill="#fff" fill-opacity=".8"/><path stroke-miterlimit="10" fill="none" stroke="#d5d6d5" stroke-opacity=".8" d="M73.122 59.216h82.937c1.334 0 2-.667 2-2V14.2c0-1.333-.666-2-2-2H73.122c-1.333 0-2 .667-2 2v43.016c0 1.333.667 2 2 2z"/><path stroke-width="2" stroke-linecap="square" stroke-linejoin="round" fill="none" stroke="red" stroke-opacity=".6" d="M75.122 20.294h20"/><symbol id="N"><path transform="translate(-.098) scale(.001)" d="M98 729h419v-83H197V431h289v-83H197V0H98v729z"/></symbol><symbol id="O"><path transform="matrix(.001 0 0 .001 -.049 -.234)" d="M49 314h263v-80H49v80z"/></symbol><use xlink:href="#N" transform="matrix(10 0 0 -10 104.102 23.794)"/><use xlink:href="#O" transform="matrix(10 0 0 -10 109.362 21.454)"/><use xlink:href="#E" transform="matrix(10 0 0 -10 112.343 23.794)"/><use xlink:href="#F" transform="matrix(10 0 0 -10 119.481 23.924)"/><use xlink:href="#F" transform="matrix(10 0 0 -10 124.981 23.924)"/><use xlink:href="#r" transform="matrix(10 0 0 -10 130.481 23.924)"/><use xlink:href="#o" transform="matrix(10 0 0 -10 136.901 23.924)"/><use xlink:href="#s" transform="matrix(10 0 0 -10 143.301 23.794)"/><use xlink:href="#n" transform="matrix(10 0 0 -10 149.001 23.794)"/><path stroke-width="2" stroke-linecap="square" stroke-linejoin="round" fill="none" stroke="#00f" stroke-opacity=".6" d="M75.122 34.966h20"/><symbol id="P"><path transform="translate(-.091) scale(.001)" d="M520 442c22 40 49 69 80 89 31 19 68 29 111 29 56 0 100-20 131-60s47-97 47-170V0h-90v327c0 52-10 91-28 117-19 25-47 38-85 38-47 0-84-16-111-47s-40-73-40-126V0h-90v327c0 52-10 91-28 117-19 25-48 38-86 38-46 0-83-16-110-47s-40-73-40-126V0H91v547h90v-85c20 33 45 58 74 74 28 16 62 24 102 24s73-10 101-30 48-50 62-88z"/></symbol><use xlink:href="#k" transform="matrix(10 0 0 -10 104.102 38.466)"/><use xlink:href="#m" transform="matrix(10 0 0 -10 109.89 38.466)"/><use xlink:href="#r" transform="matrix(10 0 0 -10 113.421 38.596)"/><use xlink:href="#P" transform="matrix(10 0 0 -10 119.901 38.466)"/><use xlink:href="#r" transform="matrix(10 0 0 -10 129.281 38.596)"/><use xlink:href="#n" transform="matrix(10 0 0 -10 135.121 38.466)"/><use xlink:href="#q" transform="matrix(10 0 0 -10 139.711 38.466)"/><use xlink:href="#r" transform="matrix(10 0 0 -10 142.101 38.596)"/><use xlink:href="#s" transform="matrix(10 0 0 -10 148.581 38.466)"/><path stroke-width="2" stroke-linecap="square" stroke-linejoin="round" fill="none" stroke="green" stroke-opacity=".6" d="M75.122 49.637h20"/><use xlink:href="#N" transform="matrix(10 0 0 -10 104.102 53.137)"/><use xlink:href="#O" transform="matrix(10 0 0 -10 109.362 50.797)"/><use xlink:href="#N" transform="matrix(10 0 0 -10 113.462 53.137)"/><use xlink:href="#q" transform="matrix(10 0 0 -10 118.453 53.137)"/><use xlink:href="#s" transform="matrix(10 0 0 -10 121.203 53.137)"/><use xlink:href="#h" transform="matrix(10 0 0 -10 127.233 53.267)"/><use xlink:href="#s" transform="matrix(10 0 0 -10 133.673 53.137)"/><use xlink:href="#F" transform="matrix(10 0 0 -10 139.653 53.267)"/><use xlink:href="#l" transform="matrix(10 0 0 -10 145.153 53.267)"/></svg>