<svg xmlns="http://www.w3.org/2000/svg" xmlns:xlink="http://www.w3.org/1999/xlink" width="561.193" height="427.491" viewBox="0 0 420.895 320.618"><path d="M0 320.618h420.895V0H0z" fill="#fff"/><path d="M56.575 273.387h357.12V7.275H56.575z" fill="#fff"/><path stroke-width=".8" stroke-linejoin="round" fill="none" stroke="#000" d="M67.305 273.387v3.5"/><symbol id="a"><path transform="matrix(.001 0 0 .001 -.066 .013)" d="M318 664c-51 0-89-25-115-75s-38-125-38-225 12-175 38-225 64-75 115-75 89 25 115 75c25 50 38 125 38 225s-13 175-38 225c-26 50-64 75-115 75zm0 78c81 0 143-33 187-97 43-65 65-159 65-281 0-123-22-217-65-281-44-64-106-96-188-96S173 19 130 83 66 241 66 364c0 122 21 216 64 281 43 64 106 97 188 97z"/></symbol><symbol id="b"><path transform="translate(-.107) scale(.001)" d="M107 124h103V0H107v124z"/></symbol><use xlink:href="#a" transform="matrix(15 0 0 -15 56.365 291.973)"/><use xlink:href="#b" transform="matrix(15 0 0 -15 66.52 291.778)"/><use xlink:href="#a" transform="matrix(15 0 0 -15 70.675 291.973)"/><path stroke-width=".8" stroke-linejoin="round" fill="none" stroke="#000" d="M122.331 273.387v3.5"/><symbol id="c"><path transform="translate(-.11) scale(.001)" d="M124 83h161v556l-175-35v90l174 35h99V83h161V0H124v83z"/></symbol><use xlink:href="#a" transform="matrix(15 0 0 -15 111.392 291.973)"/><use xlink:href="#b" transform="matrix(15 0 0 -15 121.547 291.778)"/><use xlink:href="#c" transform="matrix(15 0 0 -15 126.362 291.778)"/><path stroke-width=".8" stroke-linejoin="round" fill="none" stroke="#000" d="M177.357 273.387v3.5"/><symbol id="d"><path transform="translate(-.073) scale(.001)" d="M192 83h344V0H73v83c37 38 88 90 153 156 64 65 105 107 122 126 32 35 54 65 66 90 12 24 19 49 19 73 0 38-14 70-41 94s-62 37-106 37c-31 0-64-6-98-16-34-11-71-27-110-49v100c40 16 77 28 111 36s66 12 95 12c75 0 135-19 180-57s68-88 68-151c0-30-6-59-17-85-11-27-31-59-61-95-8-10-34-37-78-82S271 164 192 83z"/></symbol><use xlink:href="#a" transform="matrix(15 0 0 -15 166.418 291.973)"/><use xlink:href="#b" transform="matrix(15 0 0 -15 176.573 291.778)"/><use xlink:href="#d" transform="matrix(15 0 0 -15 180.833 291.778)"/><path stroke-width=".8" stroke-linejoin="round" fill="none" stroke="#000" d="M232.384 273.387v3.5"/><symbol id="e"><path transform="matrix(.001 0 0 .001 -.076 .013)" d="M406 393c47-10 84-31 110-63s40-72 40-118c0-72-25-128-74-167-50-39-120-58-211-58-31 0-63 3-95 9-32 5-66 14-100 26v95c27-16 57-28 90-36 32-8 66-12 102-12 62 0 109 12 141 36s49 60 49 107c0 42-15 76-45 100s-72 37-126 37h-85v81h89c48 0 85 9 111 29 26 19 39 47 39 84s-14 66-40 86c-27 20-65 30-114 30-27 0-56-3-87-9s-65-15-102-27v88c37 10 72 18 105 23 32 5 63 8 93 8 74 0 133-17 177-51s66-80 66-138c0-40-12-74-35-102s-56-48-98-58z"/></symbol><use xlink:href="#a" transform="matrix(15 0 0 -15 221.444 291.973)"/><use xlink:href="#b" transform="matrix(15 0 0 -15 231.599 291.778)"/><use xlink:href="#e" transform="matrix(15 0 0 -15 235.904 291.973)"/><path stroke-width=".8" stroke-linejoin="round" fill="none" stroke="#000" d="M287.41 273.387v3.5"/><symbol id="f"><path transform="translate(-.049) scale(.001)" d="M378 643 129 254h249v389zm-26 86h124V254h104v-82H476V0h-98v172H49v95l303 462z"/></symbol><use xlink:href="#a" transform="matrix(15 0 0 -15 276.47 291.973)"/><use xlink:href="#b" transform="matrix(15 0 0 -15 286.625 291.778)"/><use xlink:href="#f" transform="matrix(15 0 0 -15 290.525 291.778)"/><path stroke-width=".8" stroke-linejoin="round" fill="none" stroke="#000" d="M342.436 273.387v3.5"/><symbol id="g"><path transform="matrix(.001 0 0 .001 -.077 .013)" d="M108 729h387v-83H198V467c14 5 29 9 43 11s29 4 43 4c81 0 145-23 193-67 48-45 72-105 72-181 0-79-25-140-74-183S357-13 269-13c-31 0-62 3-94 7-32 5-64 12-98 23v99c29-16 59-28 91-36 31-8 64-11 99-11 56 0 101 14 134 44 32 30 49 70 49 121 0 50-17 90-49 120-33 30-78 45-134 45-26 0-53-3-79-9s-53-15-80-27v366z"/></symbol><use xlink:href="#a" transform="matrix(15 0 0 -15 331.496 291.973)"/><use xlink:href="#b" transform="matrix(15 0 0 -15 341.651 291.778)"/><use xlink:href="#g" transform="matrix(15 0 0 -15 345.971 291.973)"/><path stroke-width=".8" stroke-linejoin="round" fill="none" stroke="#000" d="M397.462 273.387v3.5"/><symbol id="h"><path transform="matrix(.001 0 0 .001 -.07 .013)" d="M330 404c-44 0-79-16-105-46s-39-72-39-124c0-53 13-95 39-125s61-45 105-45 79 15 105 45 39 72 39 125c0 52-13 94-39 124s-61 46-105 46zm196 309v-90c-25 12-50 21-75 27-26 6-51 9-75 9-66 0-116-22-150-66s-54-111-58-199c19 28 43 50 72 65s61 23 96 23c73 0 131-23 173-67s64-105 64-181c0-75-23-135-67-180S403-13 330-13c-84 0-149 32-193 96-45 64-67 158-67 281 0 115 27 207 82 275 54 68 128 103 220 103 24 0 49-3 75-7 25-5 51-12 79-22z"/></symbol><use xlink:href="#a" transform="matrix(15 0 0 -15 386.523 291.973)"/><use xlink:href="#b" transform="matrix(15 0 0 -15 396.678 291.778)"/><use xlink:href="#h" transform="matrix(15 0 0 -15 400.893 291.973)"/><symbol id="i"><path transform="matrix(.001 0 0 .001 -.091 .207)" d="M181 82v-289H91v754h90v-83c18 32 42 56 71 72s64 24 104 24c66 0 120-27 162-79 41-53 62-122 62-208s-21-156-62-208c-42-52-96-78-162-78-40 0-75 8-104 23s-53 39-71 72zm306 191c0 66-14 117-41 155-28 38-65 57-112 57-48 0-85-19-112-57-28-38-41-89-41-155s13-118 41-156c27-38 64-56 112-56 47 0 84 18 112 56 27 38 41 90 41 156z"/></symbol><use xlink:href="#i" transform="matrix(15 0 0 -15 231.742 313.398)"/><clipPath id="j"><path transform="matrix(1 0 0 -1 0 320.618)" d="M56.575 47.231h357.12v266.112H56.575z"/></clipPath><g clip-path="url(#j)"><path stroke-width=".3" stroke-dasharray="1.11,.48" stroke-linejoin="round" fill="none" stroke="#bebebe" d="M56.575 273.387h357.12"/></g><path stroke-width=".8" stroke-linejoin="round" fill="none" stroke="#000" d="M56.575 273.387h-3.5"/><use xlink:href="#a" transform="matrix(15 0 0 -15 26.706 279.277)"/><use xlink:href="#b" transform="matrix(15 0 0 -15 36.86 279.082)"/><use xlink:href="#a" transform="matrix(15 0 0 -15 41.016 279.277)"/><clipPath id="k"><path transform="matrix(1 0 0 -1 0 320.618)" d="M56.575 47.231h357.12v266.112H56.575z"/></clipPath><g clip-path="url(#k)"><path stroke-width=".3" stroke-dasharray="1.11,.48" stroke-linejoin="round" fill="none" stroke="#bebebe" d="M56.575 221.289h357.12"/></g><path stroke-width=".8" stroke-linejoin="round" fill="none" stroke="#000" d="M56.575 221.289h-3.5"/><use xlink:href="#a" transform="matrix(15 0 0 -15 26.706 227.18)"/><use xlink:href="#b" transform="matrix(15 0 0 -15 36.86 226.984)"/><use xlink:href="#d" transform="matrix(15 0 0 -15 41.12 226.984)"/><clipPath id="l"><path transform="matrix(1 0 0 -1 0 320.618)" d="M56.575 47.231h357.12v266.112H56.575z"/></clipPath><g clip-path="url(#l)"><path stroke-width=".3" stroke-dasharray="1.11,.48" stroke-linejoin="round" fill="none" stroke="#bebebe" d="M56.575 169.19h357.12"/></g><path stroke-width=".8" stroke-linejoin="round" fill="none" stroke="#000" d="M56.575 169.19h-3.5"/><use xlink:href="#a" transform="matrix(15 0 0 -15 26.706 175.08)"/><use xlink:href="#b" transform="matrix(15 0 0 -15 36.86 174.886)"/><use xlink:href="#f" transform="matrix(15 0 0 -15 40.76 174.886)"/><clipPath id="m"><path transform="matrix(1 0 0 -1 0 320.618)" d="M56.575 47.231h357.12v266.112H56.575z"/></clipPath><g clip-path="url(#m)"><path stroke-width=".3" stroke-dasharray="1.11,.48" stroke-linejoin="round" fill="none" stroke="#bebebe" d="M56.575 117.092h357.12"/></g><path stroke-width=".8" stroke-linejoin="round" fill="none" stroke="#000" d="M56.575 117.092h-3.5"/><use xlink:href="#a" transform="matrix(15 0 0 -15 26.706 122.982)"/><use xlink:href="#b" transform="matrix(15 0 0 -15 36.86 122.787)"/><use xlink:href="#h" transform="matrix(15 0 0 -15 41.076 122.982)"/><clipPath id="n"><path transform="matrix(1 0 0 -1 0 320.618)" d="M56.575 47.231h357.12v266.112H56.575z"/></clipPath><g clip-path="url(#n)"><path stroke-width=".3" stroke-dasharray="1.11,.48" stroke-linejoin="round" fill="none" stroke="#bebebe" d="M56.575 64.994h357.12"/></g><path stroke-width=".8" stroke-linejoin="round" fill="none" stroke="#000" d="M56.575 64.994h-3.5"/><symbol id="o"><path transform="matrix(.001 0 0 .001 -.068 .013)" d="M318 346c-47 0-84-13-111-38s-40-59-40-103 13-79 40-104 64-37 111-37c46 0 83 12 110 38 27 25 41 59 41 103s-14 78-40 103c-27 25-64 38-111 38zm-99 42c-42 10-75 30-99 59s-35 64-35 106c0 58 20 104 62 138 41 34 98 51 171 51 72 0 129-17 171-51 41-34 62-80 62-138 0-42-12-77-36-106s-56-49-98-59c47-11 84-33 111-65 26-32 40-72 40-118 0-71-22-125-65-162-44-38-106-56-186-56S175 5 132 43c-43 37-64 91-64 162 0 46 13 86 40 118 26 32 63 54 111 65zm-36 156c0-38 11-68 35-89s57-31 100-31c42 0 75 10 99 31s36 51 36 89-12 67-36 88-57 32-99 32c-43 0-76-11-100-32s-35-50-35-88z"/></symbol><use xlink:href="#a" transform="matrix(15 0 0 -15 26.706 70.884)"/><use xlink:href="#b" transform="matrix(15 0 0 -15 36.86 70.689)"/><use xlink:href="#o" transform="matrix(15 0 0 -15 41.046 70.884)"/><clipPath id="p"><path transform="matrix(1 0 0 -1 0 320.618)" d="M56.575 47.231h357.12v266.112H56.575z"/></clipPath><g clip-path="url(#p)"><path stroke-width=".3" stroke-dasharray="1.11,.48" stroke-linejoin="round" fill="none" stroke="#bebebe" d="M56.575 12.895h357.12"/></g><path stroke-width=".8" stroke-linejoin="round" fill="none" stroke="#000" d="M56.575 12.895h-3.5"/><use xlink:href="#c" transform="matrix(15 0 0 -15 27.366 18.59)"/><use xlink:href="#b" transform="matrix(15 0 0 -15 36.86 18.59)"/><use xlink:href="#a" transform="matrix(15 0 0 -15 41.016 18.786)"/><symbol id="q"><path transform="translate(-.008) scale(.001)" d="M342 632 208 269h268L342 632zm-56 97h112L676 0H573l-66 187H178L112 0H8l278 729z"/></symbol><symbol id="r"><path transform="translate(-.027) scale(.001)" d="M183 702V547h185v-70H183V180c0-45 6-74 18-86 12-13 37-19 75-19h92V0h-92c-70 0-118 13-144 39s-39 73-39 141v297H27v70h66v155h90z"/></symbol><symbol id="s"><path transform="matrix(.001 0 0 .001 -.06 .013)" d="M343 275c-73 0-123-9-151-25-28-17-42-45-42-85 0-32 10-58 31-76 21-19 50-28 86-28 50 0 90 17 120 53 30 35 45 82 45 141v20h-89zm179 37V0h-90v83c-21-34-47-58-77-73s-68-23-112-23c-56 0-101 15-134 46s-49 73-49 126c0 61 20 107 62 139 41 31 102 47 184 47h126v9c0 41-14 73-41 96-27 22-65 34-114 34-32 0-62-4-92-12s-58-19-85-33v83c32 12 64 22 95 28s61 10 91 10c79 0 138-21 177-62s59-103 59-186z"/></symbol><symbol id="t"><path transform="matrix(.001 0 0 .001 -.055 .013)" d="M488 526v-84c-26 14-51 24-77 31s-51 11-77 11c-58 0-104-19-136-56s-48-89-48-155c0-67 16-119 48-156s78-55 136-55c26 0 51 3 77 10s51 18 77 32V21C462 9 436 0 410-5c-27-5-56-8-86-8-82 0-148 25-196 77-49 51-73 121-73 209 0 89 24 159 73 210s116 77 202 77c28 0 55-3 81-9s52-14 77-25z"/></symbol><symbol id="u"><path transform="translate(-.091) scale(.001)" d="M91 760h90V311l268 236h115L274 291 576 0H459L181 267V0H91v760z"/></symbol><symbol id="w"><path transform="matrix(.001 0 0 .001 -.066 .013)" d="M535 705v-96c-38 18-73 31-106 40-34 8-66 13-96 13-54 0-96-11-125-31-29-21-43-51-43-89 0-32 9-57 29-73 19-17 56-30 110-40l60-12c73-14 127-39 162-74 35-36 53-83 53-142 0-71-24-124-71-160-48-36-117-54-208-54-35 0-72 4-111 11S110 16 69 32v102c40-23 79-40 117-51 38-12 76-17 114-17 56 0 99 11 130 33 30 22 46 53 46 95 0 36-11 64-33 84s-58 35-108 45l-60 12c-74 14-127 37-160 69-33 31-49 74-49 130 0 64 22 115 68 152 45 37 108 56 188 56 34 0 68-3 104-9 35-6 71-16 109-28z"/></symbol><symbol id="x"><path transform="matrix(.001 0 0 .001 -.085 .013)" d="M85 216v331h90V219c0-52 10-90 30-116s50-39 91-39c48 0 87 15 115 46s42 73 42 127v310h90V0h-90v84c-22-34-48-58-76-74-29-15-62-23-100-23-63 0-111 19-143 58-33 38-49 95-49 171zm226 344z"/></symbol><symbol id="y"><path transform="matrix(.001 0 0 .001 -.055 .013)" d="M562 296v-44H149c4-62 22-110 56-142 33-32 79-48 139-48 34 0 68 4 100 12s65 21 97 39V28c-32-14-65-25-99-31s-69-10-103-10c-88 0-157 25-208 75S55 181 55 268c0 89 24 160 72 213 48 52 114 79 196 79 74 0 132-24 175-71 42-48 64-112 64-193zm-90 26c-1 49-15 88-41 118-27 29-63 44-107 44-50 0-90-15-120-43s-48-68-52-119h320z"/></symbol><symbol id="z"><path transform="matrix(.001 0 0 .001 -.054 .013)" d="M443 531v-85c-26 12-52 22-79 29-28 6-56 10-85 10-45 0-79-7-101-21s-33-34-33-61c0-21 8-37 24-49s48-24 96-34l31-7c64-14 109-34 136-58 26-25 40-60 40-104 0-51-20-91-60-120-40-30-96-44-166-44-30 0-60 3-92 8S89 8 54 20v93c33-18 66-31 98-39 32-9 64-13 96-13 42 0 75 7 98 21 22 14 34 35 34 62 0 24-9 43-25 56s-52 26-108 38l-31 7c-56 12-97 30-121 54-25 24-37 57-37 100 0 51 18 91 54 119s88 42 156 42c33 0 64-3 94-8 29-5 56-12 81-21z"/></symbol><symbol id="A"><path transform="translate(-.098) scale(.001)" d="M444 342c21-8 42-23 62-46 20-24 40-56 60-97L666 0H560l-93 187c-24 48-48 81-70 97-23 16-54 24-93 24H197V0H98v729h223c83 0 145-18 186-52 41-35 62-88 62-158 0-46-11-85-32-115-22-30-53-51-93-62zM197 648V389h124c47 0 83 11 107 33s37 54 37 97c0 42-13 74-37 96s-60 33-107 33H197z"/></symbol><use xlink:href="#q" transform="matrix(0 -15 -15 0 18.59 216.29)"/><use xlink:href="#r" transform="matrix(0 -15 -15 0 18.59 205.994)"/><use xlink:href="#r" transform="matrix(0 -15 -15 0 18.59 200.114)"/><use xlink:href="#s" transform="matrix(0 -15 -15 0 18.786 193.74)"/><use xlink:href="#t" transform="matrix(0 -15 -15 0 18.786 184.62)"/><use xlink:href="#u" transform="matrix(0 -15 -15 0 18.59 175.83)"/><use xlink:href="#v" transform="matrix(0 -15 -15 0 18.59 168.51)"/><use xlink:href="#w" transform="matrix(0 -15 -15 0 18.786 162.75)"/><use xlink:href="#x" transform="matrix(0 -15 -15 0 18.786 152.94)"/><use xlink:href="#t" transform="matrix(0 -15 -15 0 18.786 143.88)"/><use xlink:href="#t" transform="matrix(0 -15 -15 0 18.786 135.63)"/><use xlink:href="#y" transform="matrix(0 -15 -15 0 18.786 127.38)"/><use xlink:href="#z" transform="matrix(0 -15 -15 0 18.786 118.17)"/><use xlink:href="#z" transform="matrix(0 -15 -15 0 18.786 110.354)"/><use xlink:href="#v" transform="matrix(0 -15 -15 0 18.59 103.35)"/><use xlink:href="#A" transform="matrix(0 -15 -15 0 18.59 97.11)"/><use xlink:href="#s" transform="matrix(0 -15 -15 0 18.786 87.582)"/><use xlink:href="#r" transform="matrix(0 -15 -15 0 18.59 78.882)"/><use xlink:href="#y" transform="matrix(0 -15 -15 0 18.786 72.582)"/><clipPath id="B"><path transform="matrix(1 0 0 -1 0 320.618)" d="M56.575 47.231h357.12v266.112H56.575z"/></clipPath><g clip-path="url(#B)"><path stroke-width="2" stroke-linecap="square" stroke-linejoin="round" fill="none" stroke="red" stroke-opacity=".6" d="m72.808 132.409 22.01-83.644 27.513-18.443 27.513-12.269 27.513 6.2 27.514 4.063 27.513-9.898 55.026-2.735 110.052-2.45"/><clipPath id="C"><path transform="matrix(1 0 0 -1 72.808 132.409)" d="M-8-8H8V8H-8z"/></clipPath><g clip-path="url(#C)"><path d="M72.808 135.409a3 3 0 1 0 0-6 3 3 0 0 0 0 6z" fill="red" fill-opacity=".6"/><path stroke-linejoin="round" fill="none" stroke="red" stroke-opacity=".6" d="M72.808 135.409a3 3 0 1 0 0-6 3 3 0 0 0 0 6z"/></g><clipPath id="D"><path transform="matrix(1 0 0 -1 94.818 48.765)" d="M-8-8H8V8H-8z"/></clipPath><g clip-path="url(#D)"><path d="M94.818 51.765a3 3 0 1 0 0-6 3 3 0 0 0 0 6z" fill="red" fill-opacity=".6"/><path stroke-linejoin="round" fill="none" stroke="red" stroke-opacity=".6" d="M94.818 51.765a3 3 0 1 0 0-6 3 3 0 0 0 0 6z"/></g><clipPath id="E"><path transform="matrix(1 0 0 -1 122.331 30.322)" d="M-8-8H8V8H-8z"/></clipPath><g clip-path="url(#E)"><path d="M122.331 33.322a3 3 0 1 0 0-6 3 3 0 0 0 0 6z" fill="red" fill-opacity=".6"/><path stroke-linejoin="round" fill="none" stroke="red" stroke-opacity=".6" d="M122.331 33.322a3 3 0 1 0 0-6 3 3 0 0 0 0 6z"/></g><clipPath id="F"><path transform="matrix(1 0 0 -1 149.844 18.053)" d="M-8-8H8V8H-8z"/></clipPath><g clip-path="url(#F)"><path d="M149.844 21.053a3 3 0 1 0 0-6 3 3 0 0 0 0 6z" fill="red" fill-opacity=".6"/><path stroke-linejoin="round" fill="none" stroke="red" stroke-opacity=".6" d="M149.844 21.053a3 3 0 1 0 0-6 3 3 0 0 0 0 6z"/></g><clipPath id="G"><path transform="matrix(1 0 0 -1 177.357 24.253)" d="M-8-8H8V8H-8z"/></clipPath><g clip-path="url(#G)"><path d="M177.357 27.253a3 3 0 1 0 0-6 3 3 0 0 0 0 6z" fill="red" fill-opacity=".6"/><path stroke-linejoin="round" fill="none" stroke="red" stroke-opacity=".6" d="M177.357 27.253a3 3 0 1 0 0-6 3 3 0 0 0 0 6z"/></g><clipPath id="H"><path transform="matrix(1 0 0 -1 204.87 28.316)" d="M-8-8H8V8H-8z"/></clipPath><g clip-path="url(#H)"><path d="M204.87 31.316a3 3 0 1 0 0-6 3 3 0 0 0 0 6z" fill="red" fill-opacity=".6"/><path stroke-linejoin="round" fill="none" stroke="red" stroke-opacity=".6" d="M204.87 31.316a3 3 0 1 0 0-6 3 3 0 0 0 0 6z"/></g><clipPath id="I"><path transform="matrix(1 0 0 -1 232.384 18.418)" d="M-8-8H8V8H-8z"/></clipPath><g clip-path="url(#I)"><path d="M232.384 21.418a3 3 0 1 0 0-6 3 3 0 0 0 0 6z" fill="red" fill-opacity=".6"/><path stroke-linejoin="round" fill="none" stroke="red" stroke-opacity=".6" d="M232.384 21.418a3 3 0 1 0 0-6 3 3 0 0 0 0 6z"/></g><clipPath id="J"><path transform="matrix(1 0 0 -1 287.41 15.683)" d="M-8-8H8V8H-8z"/></clipPath><g clip-path="url(#J)"><path d="M287.41 18.683a3 3 0 1 0 0-6 3 3 0 0 0 0 6z" fill="red" fill-opacity=".6"/><path stroke-linejoin="round" fill="none" stroke="red" stroke-opacity=".6" d="M287.41 18.683a3 3 0 1 0 0-6 3 3 0 0 0 0 6z"/></g><clipPath id="K"><path transform="matrix(1 0 0 -1 397.462 13.234)" d="M-8-8H8V8H-8z"/></clipPath><g clip-path="url(#K)"><path d="M397.462 16.234a3 3 0 1 0 0-6 3 3 0 0 0 0 6z" fill="red" fill-opacity=".6"/><path stroke-linejoin="round" fill="none" stroke="red" stroke-opacity=".6" d="M397.462 16.234a3 3 0 1 0 0-6 3 3 0 0 0 0 6z"/></g></g><clipPath id="L"><path transform="matrix(1 0 0 -1 0 320.618)" d="M56.575 47.231h357.12v266.112H56.575z"/></clipPath><g clip-path="url(#L)"><path stroke-width="2" stroke-linecap="square" stroke-linejoin="round" fill="none" stroke="#00f" stroke-opacity=".6" d="m72.808 105.683 22.01-54.34 27.513-31.102 27.513 2.761 27.513-2.891 27.514-2.188 27.513-1.485 55.026-.912 110.052-2.11"/><clipPath id="M"><path transform="matrix(1 0 0 -1 72.808 105.683)" d="M-8-8H8V8H-8z"/></clipPath><g clip-path="url(#M)"><path d="m72.808 108.683 3-6h-6z" fill="#00f" fill-opacity=".6"/><path stroke-miterlimit="10" fill="none" stroke="#00f" stroke-opacity=".6" d="m72.808 108.683 3-6h-6z"/></g><clipPath id="N"><path transform="matrix(1 0 0 -1 94.818 51.344)" d="M-8-8H8V8H-8z"/></clipPath><g clip-path="url(#N)"><path d="m94.818 54.344 3-6h-6z" fill="#00f" fill-opacity=".6"/><path stroke-miterlimit="10" fill="none" stroke="#00f" stroke-opacity=".6" d="m94.818 54.344 3-6h-6z"/></g><clipPath id="O"><path transform="matrix(1 0 0 -1 122.331 20.241)" d="M-8-8H8V8H-8z"/></clipPath><g clip-path="url(#O)"><path d="m122.331 23.241 3-6h-6z" fill="#00f" fill-opacity=".6"/><path stroke-miterlimit="10" fill="none" stroke="#00f" stroke-opacity=".6" d="m122.331 23.241 3-6h-6z"/></g><clipPath id="P"><path transform="matrix(1 0 0 -1 149.844 23.002)" d="M-8-8H8V8H-8z"/></clipPath><g clip-path="url(#P)"><path d="m149.844 26.002 3-6h-6z" fill="#00f" fill-opacity=".6"/><path stroke-miterlimit="10" fill="none" stroke="#00f" stroke-opacity=".6" d="m149.844 26.002 3-6h-6z"/></g><clipPath id="Q"><path transform="matrix(1 0 0 -1 177.357 20.11)" d="M-8-8H8V8H-8z"/></clipPath><g clip-path="url(#Q)"><path d="m177.357 23.11 3-6h-6z" fill="#00f" fill-opacity=".6"/><path stroke-miterlimit="10" fill="none" stroke="#00f" stroke-opacity=".6" d="m177.357 23.11 3-6h-6z"/></g><clipPath id="R"><path transform="matrix(1 0 0 -1 204.87 17.923)" d="M-8-8H8V8H-8z"/></clipPath><g clip-path="url(#R)"><path d="m204.87 20.923 3-6h-6z" fill="#00f" fill-opacity=".6"/><path stroke-miterlimit="10" fill="none" stroke="#00f" stroke-opacity=".6" d="m204.87 20.923 3-6h-6z"/></g><clipPath id="S"><path transform="matrix(1 0 0 -1 232.384 16.438)" d="M-8-8H8V8H-8z"/></clipPath><g clip-path="url(#S)"><path d="m232.384 19.438 3-6h-6z" fill="#00f" fill-opacity=".6"/><path stroke-miterlimit="10" fill="none" stroke="#00f" stroke-opacity=".6" d="m232.384 19.438 3-6h-6z"/></g><clipPath id="T"><path transform="matrix(1 0 0 -1 287.41 15.526)" d="M-8-8H8V8H-8z"/></clipPath><g clip-path="url(#T)"><path d="m287.41 18.526 3-6h-6z" fill="#00f" fill-opacity=".6"/><path stroke-miterlimit="10" fill="none" stroke="#00f" stroke-opacity=".6" d="m287.41 18.526 3-6h-6z"/></g><clipPath id="U"><path transform="matrix(1 0 0 -1 397.462 13.416)" d="M-8-8H8V8H-8z"/></clipPath><g clip-path="url(#U)"><path d="m397.462 16.416 3-6h-6z" fill="#00f" fill-opacity=".6"/><path stroke-miterlimit="10" fill="none" stroke="#00f" stroke-opacity=".6" d="m397.462 16.416 3-6h-6z"/></g></g><clipPath id="V"><path transform="matrix(1 0 0 -1 0 320.618)" d="M56.575 47.231h357.12v266.112H56.575z"/></clipPath><g clip-path="url(#V)"><path stroke-width="2" stroke-linecap="square" stroke-linejoin="round" fill="none" stroke="green" stroke-opacity=".6" d="m72.808 100.082 22.01-44.284 27.513-22.767 27.513-12.686 27.513-6.694 27.514-.026 27.513-.157 55.026 1.173 110.052-1.068"/><clipPath id="W"><path transform="matrix(1 0 0 -1 72.808 100.082)" d="M-8-8H8V8H-8z"/></clipPath><g clip-path="url(#W)"><path d="M71.808 103.082h2v-2h2v-2h-2v-2h-2v2h-2v2h2z" fill="green" fill-opacity=".6"/><path stroke-miterlimit="10" fill="none" stroke="green" stroke-opacity=".6" d="M71.808 103.082h2v-2h2v-2h-2v-2h-2v2h-2v2h2z"/></g><clipPath id="X"><path transform="matrix(1 0 0 -1 94.818 55.798)" d="M-8-8H8V8H-8z"/></clipPath><g clip-path="url(#X)"><path d="M93.818 58.798h2v-2h2v-2h-2v-2h-2v2h-2v2h2z" fill="green" fill-opacity=".6"/><path stroke-miterlimit="10" fill="none" stroke="green" stroke-opacity=".6" d="M93.818 58.798h2v-2h2v-2h-2v-2h-2v2h-2v2h2z"/></g><clipPath id="Y"><path transform="matrix(1 0 0 -1 122.331 33.031)" d="M-8-8H8V8H-8z"/></clipPath><g clip-path="url(#Y)"><path d="M121.331 36.031h2v-2h2v-2h-2v-2h-2v2h-2v2h2z" fill="green" fill-opacity=".6"/><path stroke-miterlimit="10" fill="none" stroke="green" stroke-opacity=".6" d="M121.331 36.031h2v-2h2v-2h-2v-2h-2v2h-2v2h2z"/></g><clipPath id="Z"><path transform="matrix(1 0 0 -1 149.844 20.345)" d="M-8-8H8V8H-8z"/></clipPath><g clip-path="url(#Z)"><path d="M148.844 23.345h2v-2h2v-2h-2v-2h-2v2h-2v2h2z" fill="green" fill-opacity=".6"/><path stroke-miterlimit="10" fill="none" stroke="green" stroke-opacity=".6" d="M148.844 23.345h2v-2h2v-2h-2v-2h-2v2h-2v2h2z"/></g><clipPath id="aa"><path transform="matrix(1 0 0 -1 177.357 13.65)" d="M-8-8H8V8H-8z"/></clipPath><g clip-path="url(#aa)"><path d="M176.357 16.65h2v-2h2v-2h-2v-2h-2v2h-2v2h2z" fill="green" fill-opacity=".6"/><path stroke-miterlimit="10" fill="none" stroke="green" stroke-opacity=".6" d="M176.357 16.65h2v-2h2v-2h-2v-2h-2v2h-2v2h2z"/></g><clipPath id="ab"><path transform="matrix(1 0 0 -1 204.87 13.625)" d="M-8-8H8V8H-8z"/></clipPath><g clip-path="url(#ab)"><path d="M203.87 16.625h2v-2h2v-2h-2v-2h-2v2h-2v2h2z" fill="green" fill-opacity=".6"/><path stroke-miterlimit="10" fill="none" stroke="green" stroke-opacity=".6" d="M203.87 16.625h2v-2h2v-2h-2v-2h-2v2h-2v2h2z"/></g><clipPath id="ac"><path transform="matrix(1 0 0 -1 232.384 13.468)" d="M-8-8H8V8H-8z"/></clipPath><g clip-path="url(#ac)"><path d="M231.384 16.468h2v-2h2v-2h-2v-2h-2v2h-2v2h2z" fill="green" fill-opacity=".6"/><path stroke-miterlimit="10" fill="none" stroke="green" stroke-opacity=".6" d="M231.384 16.468h2v-2h2v-2h-2v-2h-2v2h-2v2h2z"/></g><clipPath id="ad"><path transform="matrix(1 0 0 -1 287.41 14.64)" d="M-8-8H8V8H-8z"/></clipPath><g clip-path="url(#ad)"><path d="M286.41 17.64h2v-2h2v-2h-2v-2h-2v2h-2v2h2z" fill="green" fill-opacity=".6"/><path stroke-miterlimit="10" fill="none" stroke="green" stroke-opacity=".6" d="M286.41 17.64h2v-2h2v-2h-2v-2h-2v2h-2v2h2z"/></g><clipPath id="ae"><path transform="matrix(1 0 0 -1 397.462 13.573)" d="M-8-8H8V8H-8z"/></clipPath><g clip-path="url(#ae)"><path d="M396.462 16.573h2v-2h2v-2h-2v-2h-2v2h-2v2h2z" fill="green" fill-opacity=".6"/><path stroke-miterlimit="10" fill="none" stroke="green" stroke-opacity=".6" d="M396.462 16.573h2v-2h2v-2h-2v-2h-2v2h-2v2h2z"/></g></g><path stroke-width=".8" stroke-linecap="square" stroke-miterlimit="10" fill="none" stroke="#000" d="M56.575 273.387V7.275M413.695 273.387V7.275M56.575 273.387h357.12M56.575 7.275h357.12"/><path d="M269.695 268.387h137c1.333 0 2-.666 2-2v-46c0-1.333-.667-2-2-2h-137c-1.333 0-2 .667-2 2v46c0 1.334.667 2 2 2z" fill="#fff" fill-opacity=".8"/><path stroke-miterlimit="10" fill="none" stroke="#d5d6d5" stroke-opacity=".8" d="M269.695 268.387h137c1.333 0 2-.666 2-2v-46c0-1.333-.667-2-2-2h-137c-1.333 0-2 .667-2 2v46c0 1.334.667 2 2 2z"/><path stroke-width="2" stroke-linecap="square" stroke-linejoin="round" fill="none" stroke="red" stroke-opacity=".6" d="M271.695 226.887h20"/><path d="M281.695 229.887a3 3 0 1 0 0-6 3 3 0 0 0 0 6z" fill="red" fill-opacity=".6"/><path stroke-linejoin="round" fill="none" stroke="red" stroke-opacity=".6" d="M281.695 229.887a3 3 0 1 0 0-6 3 3 0 0 0 0 6z"/><symbol id="af"><path transform="translate(-.096) scale(.001)" d="M96 729h96l35-620 275 620h110l36-620 272 620h100L696 0H572l-34 608L265 0H141L96 729z"/></symbol><use xlink:href="#af" transform="matrix(10 0 0 -10 300.655 229.98)"/><symbol id="ag"><path transform="matrix(.001 0 0 .001 -.036 .013)" d="M495 334c0 47-11 84-33 111-22 26-51 40-89 40-28 0-54-7-78-21s-45-33-63-58c-19-28-34-59-45-95s-16-71-16-106c0-45 10-80 32-106 21-26 50-38 88-38 28 0 54 6 78 20 24 13 46 32 64 58s33 57 45 93c11 36 17 70 17 102zM216 464c22 30 49 53 83 70 33 17 68 26 105 26 56 0 100-19 133-57s50-89 50-153c0-53-10-104-29-153-20-50-47-94-83-132-24-26-51-45-81-58-31-13-63-20-96-20-36 0-66 8-92 24s-48 40-64 72L126 0H36l148 760h90l-58-296z"/></symbol><symbol id="ah"><path transform="matrix(.001 0 0 .001 -.041 .013)" d="M537 312 476 0h-90l17 83c-27-33-57-57-91-73-34-15-71-23-112-23-47 0-85 14-115 42S41 93 41 138c0 64 25 114 76 151s121 56 211 56h125l5 24c0 2 1 5 1 8s1 8 1 15c0 29-12 52-36 68s-57 24-99 24c-30 0-60-4-90-12-31-8-63-19-95-33l16 83c34 12 67 22 99 28s64 10 94 10c64 0 113-14 147-42s51-69 51-122c0-11-1-24-3-38-2-15-4-30-7-46zm-97-37h-90c-74 0-128-10-163-30-36-20-53-50-53-91 0-29 9-52 27-68s43-24 75-24c48 0 91 17 127 52s61 82 73 141l4 20z"/></symbol><symbol id="ai"><path transform="matrix(.001 0 0 .001 -.046 .013)" d="m536 526-18-89c-22 15-45 27-69 35s-49 12-75 12c-29 0-56-5-82-15s-48-25-65-43c-28-29-50-62-65-100-16-38-23-78-23-118 0-50 12-86 37-110 24-24 62-36 112-36 24 0 51 3 79 11 28 7 57 18 87 34l-17-89C411 7 384 0 356-5s-56-8-84-8c-73 0-129 18-168 54s-58 87-58 155c0 56 10 108 30 156s51 91 91 129c27 26 59 45 96 59 36 13 77 20 121 20 25 0 50-3 75-9s51-14 77-25z"/></symbol><symbol id="aj"><path transform="translate(-.035) scale(.001)" d="M183 760h90l-86-443 308 230h117L268 285 519 0H410L177 267 125 0H35l148 760z"/></symbol><symbol id="ak"><path transform="matrix(.001 0 0 .001 -.046 .013)" d="M418 82c-24-32-53-55-86-71s-69-24-109-24c-55 0-98 18-130 55s-47 88-47 153c0 54 9 105 29 154 19 49 47 93 83 132 24 26 51 45 81 59 30 13 62 20 96 20 35 0 66-9 93-26 26-17 47-41 62-72l59 298h90L491 0h-90l17 82zM139 211c0-48 10-85 32-111 21-26 51-39 89-39 28 0 54 6 78 20s45 34 63 60c19 27 34 59 45 95s17 71 17 106c0 45-11 80-32 106-22 25-51 38-88 38-29 0-56-7-80-20-24-14-45-33-62-58-19-27-34-58-45-94-12-36-17-71-17-103z"/></symbol><symbol id="al"><path transform="matrix(.001 0 0 .001 -.046 .013)" d="M254-13c-64 0-115 19-152 58-38 39-56 93-56 162 0 40 6 80 19 121 12 41 29 76 50 104 32 44 68 76 108 97 40 20 85 31 135 31 62 0 112-20 150-58 38-39 58-90 58-152 0-44-7-87-19-130-13-43-30-78-50-106-32-44-68-77-108-97s-85-30-135-30zM139 210c0-50 10-87 31-111 20-25 52-37 94-37 60 0 109 26 149 79 40 52 60 119 60 200 0 47-11 83-32 107s-52 36-93 36c-34 0-65-8-91-24s-50-40-70-72c-16-24-28-52-36-83s-12-63-12-95z"/></symbol><symbol id="am"><path transform="translate(-.035) scale(.001)" d="M446 464c-10 4-20 8-32 11-12 2-24 4-37 4-48 0-90-19-126-55s-59-85-71-145L125 0H35l107 547h90l-17-85c23 31 51 55 85 72 33 17 68 26 106 26 9 0 18-1 28-2s19-3 29-5l-17-89z"/></symbol><use xlink:href="#ag" transform="matrix(7 0 0 -7 309.835 231.713)"/><use xlink:href="#ah" transform="matrix(7 0 0 -7 314.313 231.713)"/><use xlink:href="#ai" transform="matrix(7 0 0 -7 318.638 231.713)"/><use xlink:href="#aj" transform="matrix(7 0 0 -7 322.41 231.622)"/><use xlink:href="#ak" transform="matrix(7 0 0 -7 326.54 231.713)"/><use xlink:href="#al" transform="matrix(7 0 0 -7 330.983 231.713)"/><use xlink:href="#al" transform="matrix(7 0 0 -7 335.266 231.713)"/><use xlink:href="#am" transform="matrix(7 0 0 -7 339.472 231.622)"/><symbol id="an"><path transform="matrix(.001 0 0 .001 -.106 -.172)" d="M106 454h626v-82H106v82zm0-199h626v-83H106v83z"/></symbol><symbol id="ao"><path transform="matrix(.001 0 0 .001 -.055 .207)" d="M454 280c0 64-14 115-40 151-27 36-65 54-113 54s-86-18-113-54-40-87-40-151c0-65 13-115 40-151s65-54 113-54 86 18 113 54c26 36 40 86 40 151zm90-212c0-92-21-161-62-207-42-45-105-68-190-68-32 0-61 3-89 7-28 5-56 12-82 22v87c26-14 52-24 78-31s52-11 79-11c58 0 102 16 132 46 29 31 44 77 44 139v44c-19-32-43-56-72-72S319 0 279 0c-68 0-122 25-163 76S55 195 55 280c0 84 20 152 61 203s95 77 163 77c40 0 74-8 103-24s53-40 72-72v83h90V68z"/></symbol><symbol id="ap"><path transform="matrix(.001 0 0 .001 -.055 .013)" d="M306 484c-48 0-86-19-114-57s-42-89-42-154c0-66 13-117 41-155s66-56 115-56c48 0 86 18 114 56s42 89 42 155c0 64-14 116-42 154s-66 57-114 57zm0 76c78 0 139-26 184-76 44-51 67-121 67-211s-23-160-67-210c-45-51-106-76-184-76-79 0-141 25-185 76-44 50-66 120-66 210s22 160 66 211c44 50 106 76 185 76z"/></symbol><symbol id="aq"><path transform="translate(-.094) scale(.001)" d="M94 760h90V0H94v760z"/></symbol><use xlink:href="#v" transform="matrix(10 0 0 -10 342.378 229.98)"/><use xlink:href="#an" transform="matrix(10 0 0 -10 346.617 228.26)"/><use xlink:href="#v" transform="matrix(10 0 0 -10 353.936 229.98)"/><use xlink:href="#ao" transform="matrix(10 0 0 -10 357.664 232.05)"/><use xlink:href="#ap" transform="matrix(10 0 0 -10 364.012 230.11)"/><use xlink:href="#ap" transform="matrix(10 0 0 -10 370.13 230.11)"/><use xlink:href="#ao" transform="matrix(10 0 0 -10 376.248 232.05)"/><use xlink:href="#aq" transform="matrix(10 0 0 -10 382.986 229.98)"/><use xlink:href="#y" transform="matrix(10 0 0 -10 385.374 230.11)"/><path stroke-width="2" stroke-linecap="square" stroke-linejoin="round" fill="none" stroke="#00f" stroke-opacity=".6" d="M271.695 242.887h20"/><path d="m281.695 245.887 3-6h-6z" fill="#00f" fill-opacity=".6"/><path stroke-miterlimit="10" fill="none" stroke="#00f" stroke-opacity=".6" d="m281.695 245.887 3-6h-6z"/><use xlink:href="#af" transform="matrix(10 0 0 -10 300.655 245.98)"/><use xlink:href="#ag" transform="matrix(7 0 0 -7 309.835 247.713)"/><use xlink:href="#ah" transform="matrix(7 0 0 -7 314.313 247.713)"/><use xlink:href="#ai" transform="matrix(7 0 0 -7 318.638 247.713)"/><use xlink:href="#aj" transform="matrix(7 0 0 -7 322.41 247.622)"/><use xlink:href="#ak" transform="matrix(7 0 0 -7 326.54 247.713)"/><use xlink:href="#al" transform="matrix(7 0 0 -7 330.983 247.713)"/><use xlink:href="#al" transform="matrix(7 0 0 -7 335.266 247.713)"/><use xlink:href="#am" transform="matrix(7 0 0 -7 339.472 247.622)"/><use xlink:href="#v" transform="matrix(10 0 0 -10 342.378 245.98)"/><use xlink:href="#an" transform="matrix(10 0 0 -10 346.617 244.26)"/><use xlink:href="#v" transform="matrix(10 0 0 -10 353.936 245.98)"/><use xlink:href="#s" transform="matrix(10 0 0 -10 357.714 246.11)"/><use xlink:href="#i" transform="matrix(10 0 0 -10 364.152 248.05)"/><use xlink:href="#i" transform="matrix(10 0 0 -10 370.5 248.05)"/><use xlink:href="#aq" transform="matrix(10 0 0 -10 376.878 245.98)"/><use xlink:href="#y" transform="matrix(10 0 0 -10 379.266 246.11)"/><path stroke-width="2" stroke-linecap="square" stroke-linejoin="round" fill="none" stroke="green" stroke-opacity=".6" d="M271.695 258.81h20"/><path d="M280.695 261.81h2v-2h2v-2h-2v-2h-2v2h-2v2h2z" fill="green" fill-opacity=".6"/><path stroke-miterlimit="10" fill="none" stroke="green" stroke-opacity=".6" d="M280.695 261.81h2v-2h2v-2h-2v-2h-2v2h-2v2h2z"/><use xlink:href="#af" transform="matrix(10 0 0 -10 300.655 261.903)"/><use xlink:href="#ag" transform="matrix(7 0 0 -7 309.835 263.634)"/><use xlink:href="#ah" transform="matrix(7 0 0 -7 314.313 263.634)"/><use xlink:href="#ai" transform="matrix(7 0 0 -7 318.638 263.634)"/><use xlink:href="#aj" transform="matrix(7 0 0 -7 322.41 263.543)"/><use xlink:href="#ak" transform="matrix(7 0 0 -7 326.54 263.634)"/><use xlink:href="#al" transform="matrix(7 0 0 -7 330.983 263.634)"/><use xlink:href="#al" transform="matrix(7 0 0 -7 335.266 263.634)"/><use xlink:href="#am" transform="matrix(7 0 0 -7 339.472 263.543)"/><symbol id="ar"><path transform="translate(-.091) scale(.001)" d="M520 442c22 40 49 69 80 89 31 19 68 29 111 29 56 0 100-20 131-60s47-97 47-170V0h-90v327c0 52-10 91-28 117-19 25-47 38-85 38-47 0-84-16-111-47s-40-73-40-126V0h-90v327c0 52-10 91-28 117-19 25-48 38-86 38-46 0-83-16-110-47s-40-73-40-126V0H91v547h90v-85c20 33 45 58 74 74 28 16 62 24 102 24s73-10 101-30 48-50 62-88z"/></symbol><symbol id="as"><path transform="translate(-.094) scale(.001)" d="M94 547h90V0H94v547zm0 213h90V646H94v114z"/></symbol><symbol id="at"><path transform="translate(-.091) scale(.001)" d="M411 463c-10 6-21 10-33 13-12 2-25 4-39 4-51 0-90-17-117-50-28-33-41-80-41-142V0H91v547h90v-85c18 33 43 58 73 74s67 24 111 24c6 0 13-1 21-1 7-1 15-2 25-4v-92z"/></symbol><symbol id="au"><path transform="translate(-.023) scale(.001)" d="M371 760v-75h-86c-32 0-55-7-67-20-13-13-19-36-19-70v-48h148v-70H199V0h-90v477H23v70h86v38c0 60 14 105 42 133s73 42 135 42h85z"/></symbol><use xlink:href="#v" transform="matrix(10 0 0 -10 342.378 261.903)"/><use xlink:href="#an" transform="matrix(10 0 0 -10 346.617 260.183)"/><use xlink:href="#v" transform="matrix(10 0 0 -10 353.936 261.903)"/><use xlink:href="#ar" transform="matrix(10 0 0 -10 358.024 261.903)"/><use xlink:href="#as" transform="matrix(10 0 0 -10 367.796 261.903)"/><use xlink:href="#t" transform="matrix(10 0 0 -10 370.184 262.033)"/><use xlink:href="#at" transform="matrix(10 0 0 -10 376.042 261.903)"/><use xlink:href="#ap" transform="matrix(10 0 0 -10 379.793 262.033)"/><use xlink:href="#z" transform="matrix(10 0 0 -10 385.902 262.033)"/><use xlink:href="#ap" transform="matrix(10 0 0 -10 391.121 262.033)"/><use xlink:href="#au" transform="matrix(10 0 0 -10 396.92 261.903)"/><use xlink:href="#r" transform="matrix(10 0 0 -10 400.48 261.903)"/></svg>