<svg xmlns="http://www.w3.org/2000/svg" xmlns:xlink="http://www.w3.org/1999/xlink" width="586.652" height="427.391" viewBox="0 0 439.989 320.543"><path d="M0 320.543h439.989V0H0z" fill="#fff"/><path d="M75.669 273.312h357.12V7.2H75.669z" fill="#fff"/><path stroke-width=".8" stroke-linejoin="round" fill="none" stroke="#000" d="M86.399 273.312v3.5"/><symbol id="a"><path transform="matrix(.001 0 0 .001 -.066 .013)" d="M318 664c-51 0-89-25-115-75s-38-125-38-225 12-175 38-225 64-75 115-75 89 25 115 75c25 50 38 125 38 225s-13 175-38 225c-26 50-64 75-115 75zm0 78c81 0 143-33 187-97 43-65 65-159 65-281 0-123-22-217-65-281-44-64-106-96-188-96S173 19 130 83 66 241 66 364c0 122 21 216 64 281 43 64 106 97 188 97z"/></symbol><symbol id="b"><path transform="translate(-.107) scale(.001)" d="M107 124h103V0H107v124z"/></symbol><use xlink:href="#a" transform="matrix(15 0 0 -15 75.46 291.898)"/><use xlink:href="#b" transform="matrix(15 0 0 -15 85.614 291.703)"/><use xlink:href="#a" transform="matrix(15 0 0 -15 89.77 291.898)"/><path stroke-width=".8" stroke-linejoin="round" fill="none" stroke="#000" d="M141.425 273.312v3.5"/><symbol id="c"><path transform="translate(-.11) scale(.001)" d="M124 83h161v556l-175-35v90l174 35h99V83h161V0H124v83z"/></symbol><use xlink:href="#a" transform="matrix(15 0 0 -15 130.485 291.898)"/><use xlink:href="#b" transform="matrix(15 0 0 -15 140.64 291.703)"/><use xlink:href="#c" transform="matrix(15 0 0 -15 145.455 291.703)"/><path stroke-width=".8" stroke-linejoin="round" fill="none" stroke="#000" d="M196.451 273.312v3.5"/><symbol id="d"><path transform="translate(-.073) scale(.001)" d="M192 83h344V0H73v83c37 38 88 90 153 156 64 65 105 107 122 126 32 35 54 65 66 90 12 24 19 49 19 73 0 38-14 70-41 94s-62 37-106 37c-31 0-64-6-98-16-34-11-71-27-110-49v100c40 16 77 28 111 36s66 12 95 12c75 0 135-19 180-57s68-88 68-151c0-30-6-59-17-85-11-27-31-59-61-95-8-10-34-37-78-82S271 164 192 83z"/></symbol><use xlink:href="#a" transform="matrix(15 0 0 -15 185.512 291.898)"/><use xlink:href="#b" transform="matrix(15 0 0 -15 195.667 291.703)"/><use xlink:href="#d" transform="matrix(15 0 0 -15 199.927 291.703)"/><path stroke-width=".8" stroke-linejoin="round" fill="none" stroke="#000" d="M251.477 273.312v3.5"/><symbol id="e"><path transform="matrix(.001 0 0 .001 -.076 .013)" d="M406 393c47-10 84-31 110-63s40-72 40-118c0-72-25-128-74-167-50-39-120-58-211-58-31 0-63 3-95 9-32 5-66 14-100 26v95c27-16 57-28 90-36 32-8 66-12 102-12 62 0 109 12 141 36s49 60 49 107c0 42-15 76-45 100s-72 37-126 37h-85v81h89c48 0 85 9 111 29 26 19 39 47 39 84s-14 66-40 86c-27 20-65 30-114 30-27 0-56-3-87-9s-65-15-102-27v88c37 10 72 18 105 23 32 5 63 8 93 8 74 0 133-17 177-51s66-80 66-138c0-40-12-74-35-102s-56-48-98-58z"/></symbol><use xlink:href="#a" transform="matrix(15 0 0 -15 240.538 291.898)"/><use xlink:href="#b" transform="matrix(15 0 0 -15 250.693 291.703)"/><use xlink:href="#e" transform="matrix(15 0 0 -15 254.998 291.898)"/><path stroke-width=".8" stroke-linejoin="round" fill="none" stroke="#000" d="M306.504 273.312v3.5"/><symbol id="f"><path transform="translate(-.049) scale(.001)" d="M378 643 129 254h249v389zm-26 86h124V254h104v-82H476V0h-98v172H49v95l303 462z"/></symbol><use xlink:href="#a" transform="matrix(15 0 0 -15 295.564 291.898)"/><use xlink:href="#b" transform="matrix(15 0 0 -15 305.719 291.703)"/><use xlink:href="#f" transform="matrix(15 0 0 -15 309.619 291.703)"/><path stroke-width=".8" stroke-linejoin="round" fill="none" stroke="#000" d="M361.53 273.312v3.5"/><symbol id="g"><path transform="matrix(.001 0 0 .001 -.077 .013)" d="M108 729h387v-83H198V467c14 5 29 9 43 11s29 4 43 4c81 0 145-23 193-67 48-45 72-105 72-181 0-79-25-140-74-183S357-13 269-13c-31 0-62 3-94 7-32 5-64 12-98 23v99c29-16 59-28 91-36 31-8 64-11 99-11 56 0 101 14 134 44 32 30 49 70 49 121 0 50-17 90-49 120-33 30-78 45-134 45-26 0-53-3-79-9s-53-15-80-27v366z"/></symbol><use xlink:href="#a" transform="matrix(15 0 0 -15 350.59 291.898)"/><use xlink:href="#b" transform="matrix(15 0 0 -15 360.745 291.703)"/><use xlink:href="#g" transform="matrix(15 0 0 -15 365.065 291.898)"/><path stroke-width=".8" stroke-linejoin="round" fill="none" stroke="#000" d="M416.556 273.312v3.5"/><symbol id="h"><path transform="matrix(.001 0 0 .001 -.07 .013)" d="M330 404c-44 0-79-16-105-46s-39-72-39-124c0-53 13-95 39-125s61-45 105-45 79 15 105 45 39 72 39 125c0 52-13 94-39 124s-61 46-105 46zm196 309v-90c-25 12-50 21-75 27-26 6-51 9-75 9-66 0-116-22-150-66s-54-111-58-199c19 28 43 50 72 65s61 23 96 23c73 0 131-23 173-67s64-105 64-181c0-75-23-135-67-180S403-13 330-13c-84 0-149 32-193 96-45 64-67 158-67 281 0 115 27 207 82 275 54 68 128 103 220 103 24 0 49-3 75-7 25-5 51-12 79-22z"/></symbol><use xlink:href="#a" transform="matrix(15 0 0 -15 405.616 291.898)"/><use xlink:href="#b" transform="matrix(15 0 0 -15 415.771 291.703)"/><use xlink:href="#h" transform="matrix(15 0 0 -15 419.986 291.898)"/><symbol id="i"><path transform="matrix(.001 0 0 .001 -.091 .207)" d="M181 82v-289H91v754h90v-83c18 32 42 56 71 72s64 24 104 24c66 0 120-27 162-79 41-53 62-122 62-208s-21-156-62-208c-42-52-96-78-162-78-40 0-75 8-104 23s-53 39-71 72zm306 191c0 66-14 117-41 155-28 38-65 57-112 57-48 0-85-19-112-57-28-38-41-89-41-155s13-118 41-156c27-38 64-56 112-56 47 0 84 18 112 56 27 38 41 90 41 156z"/></symbol><use xlink:href="#i" transform="matrix(15 0 0 -15 250.836 313.323)"/><clipPath id="j"><path transform="matrix(1 0 0 -1 0 320.543)" d="M75.669 47.231h357.12v266.112H75.669z"/></clipPath><g clip-path="url(#j)"><path stroke-width=".3" stroke-dasharray="1.11,.48" stroke-linejoin="round" fill="none" stroke="#bebebe" d="M75.669 273.312h357.12"/></g><path stroke-width=".8" stroke-linejoin="round" fill="none" stroke="#000" d="M75.669 273.312h-3.5"/><use xlink:href="#a" transform="matrix(15 0 0 -15 26.706 279.202)"/><use xlink:href="#b" transform="matrix(15 0 0 -15 36.86 279.007)"/><use xlink:href="#a" transform="matrix(15 0 0 -15 41.016 279.202)"/><use xlink:href="#a" transform="matrix(15 0 0 -15 50.556 279.202)"/><use xlink:href="#a" transform="matrix(15 0 0 -15 60.096 279.202)"/><clipPath id="k"><path transform="matrix(1 0 0 -1 0 320.543)" d="M75.669 47.231h357.12v266.112H75.669z"/></clipPath><g clip-path="url(#k)"><path stroke-width=".3" stroke-dasharray="1.11,.48" stroke-linejoin="round" fill="none" stroke="#bebebe" d="M75.669 230.738h357.12"/></g><path stroke-width=".8" stroke-linejoin="round" fill="none" stroke="#000" d="M75.669 230.738h-3.5"/><use xlink:href="#a" transform="matrix(15 0 0 -15 26.706 236.629)"/><use xlink:href="#b" transform="matrix(15 0 0 -15 36.86 236.434)"/><use xlink:href="#a" transform="matrix(15 0 0 -15 41.016 236.629)"/><use xlink:href="#a" transform="matrix(15 0 0 -15 50.556 236.629)"/><use xlink:href="#g" transform="matrix(15 0 0 -15 60.26 236.629)"/><clipPath id="l"><path transform="matrix(1 0 0 -1 0 320.543)" d="M75.669 47.231h357.12v266.112H75.669z"/></clipPath><g clip-path="url(#l)"><path stroke-width=".3" stroke-dasharray="1.11,.48" stroke-linejoin="round" fill="none" stroke="#bebebe" d="M75.669 188.165h357.12"/></g><path stroke-width=".8" stroke-linejoin="round" fill="none" stroke="#000" d="M75.669 188.165h-3.5"/><use xlink:href="#a" transform="matrix(15 0 0 -15 26.706 194.055)"/><use xlink:href="#b" transform="matrix(15 0 0 -15 36.86 193.86)"/><use xlink:href="#a" transform="matrix(15 0 0 -15 41.016 194.055)"/><use xlink:href="#c" transform="matrix(15 0 0 -15 51.216 193.86)"/><use xlink:href="#a" transform="matrix(15 0 0 -15 60.096 194.055)"/><clipPath id="m"><path transform="matrix(1 0 0 -1 0 320.543)" d="M75.669 47.231h357.12v266.112H75.669z"/></clipPath><g clip-path="url(#m)"><path stroke-width=".3" stroke-dasharray="1.11,.48" stroke-linejoin="round" fill="none" stroke="#bebebe" d="M75.669 145.591h357.12"/></g><path stroke-width=".8" stroke-linejoin="round" fill="none" stroke="#000" d="M75.669 145.591h-3.5"/><use xlink:href="#a" transform="matrix(15 0 0 -15 26.706 151.482)"/><use xlink:href="#b" transform="matrix(15 0 0 -15 36.86 151.287)"/><use xlink:href="#a" transform="matrix(15 0 0 -15 41.016 151.482)"/><use xlink:href="#c" transform="matrix(15 0 0 -15 51.216 151.287)"/><use xlink:href="#g" transform="matrix(15 0 0 -15 60.26 151.482)"/><clipPath id="n"><path transform="matrix(1 0 0 -1 0 320.543)" d="M75.669 47.231h357.12v266.112H75.669z"/></clipPath><g clip-path="url(#n)"><path stroke-width=".3" stroke-dasharray="1.11,.48" stroke-linejoin="round" fill="none" stroke="#bebebe" d="M75.669 103.018h357.12"/></g><path stroke-width=".8" stroke-linejoin="round" fill="none" stroke="#000" d="M75.669 103.018h-3.5"/><use xlink:href="#a" transform="matrix(15 0 0 -15 26.706 108.908)"/><use xlink:href="#b" transform="matrix(15 0 0 -15 36.86 108.713)"/><use xlink:href="#a" transform="matrix(15 0 0 -15 41.016 108.908)"/><use xlink:href="#d" transform="matrix(15 0 0 -15 50.66 108.713)"/><use xlink:href="#a" transform="matrix(15 0 0 -15 60.096 108.908)"/><clipPath id="o"><path transform="matrix(1 0 0 -1 0 320.543)" d="M75.669 47.231h357.12v266.112H75.669z"/></clipPath><g clip-path="url(#o)"><path stroke-width=".3" stroke-dasharray="1.11,.48" stroke-linejoin="round" fill="none" stroke="#bebebe" d="M75.669 60.444h357.12"/></g><path stroke-width=".8" stroke-linejoin="round" fill="none" stroke="#000" d="M75.669 60.444h-3.5"/><use xlink:href="#a" transform="matrix(15 0 0 -15 26.706 66.334)"/><use xlink:href="#b" transform="matrix(15 0 0 -15 36.86 66.14)"/><use xlink:href="#a" transform="matrix(15 0 0 -15 41.016 66.334)"/><use xlink:href="#d" transform="matrix(15 0 0 -15 50.66 66.14)"/><use xlink:href="#g" transform="matrix(15 0 0 -15 60.26 66.334)"/><clipPath id="p"><path transform="matrix(1 0 0 -1 0 320.543)" d="M75.669 47.231h357.12v266.112H75.669z"/></clipPath><g clip-path="url(#p)"><path stroke-width=".3" stroke-dasharray="1.11,.48" stroke-linejoin="round" fill="none" stroke="#bebebe" d="M75.669 17.87h357.12"/></g><path stroke-width=".8" stroke-linejoin="round" fill="none" stroke="#000" d="M75.669 17.87h-3.5"/><use xlink:href="#a" transform="matrix(15 0 0 -15 26.706 23.76)"/><use xlink:href="#b" transform="matrix(15 0 0 -15 36.86 23.566)"/><use xlink:href="#a" transform="matrix(15 0 0 -15 41.016 23.76)"/><use xlink:href="#e" transform="matrix(15 0 0 -15 50.706 23.76)"/><use xlink:href="#a" transform="matrix(15 0 0 -15 60.096 23.76)"/><symbol id="q"><path transform="translate(-.098) scale(.001)" d="M98 729h99V0H98v729z"/></symbol><symbol id="r"><path transform="translate(-.091) scale(.001)" d="M520 442c22 40 49 69 80 89 31 19 68 29 111 29 56 0 100-20 131-60s47-97 47-170V0h-90v327c0 52-10 91-28 117-19 25-47 38-85 38-47 0-84-16-111-47s-40-73-40-126V0h-90v327c0 52-10 91-28 117-19 25-48 38-86 38-46 0-83-16-110-47s-40-73-40-126V0H91v547h90v-85c20 33 45 58 74 74 28 16 62 24 102 24s73-10 101-30 48-50 62-88z"/></symbol><symbol id="s"><path transform="matrix(.001 0 0 .001 -.06 .013)" d="M343 275c-73 0-123-9-151-25-28-17-42-45-42-85 0-32 10-58 31-76 21-19 50-28 86-28 50 0 90 17 120 53 30 35 45 82 45 141v20h-89zm179 37V0h-90v83c-21-34-47-58-77-73s-68-23-112-23c-56 0-101 15-134 46s-49 73-49 126c0 61 20 107 62 139 41 31 102 47 184 47h126v9c0 41-14 73-41 96-27 22-65 34-114 34-32 0-62-4-92-12s-58-19-85-33v83c32 12 64 22 95 28s61 10 91 10c79 0 138-21 177-62s59-103 59-186z"/></symbol><symbol id="t"><path transform="matrix(.001 0 0 .001 -.055 .013)" d="M488 526v-84c-26 14-51 24-77 31s-51 11-77 11c-58 0-104-19-136-56s-48-89-48-155c0-67 16-119 48-156s78-55 136-55c26 0 51 3 77 10s51 18 77 32V21C462 9 436 0 410-5c-27-5-56-8-86-8-82 0-148 25-196 77-49 51-73 121-73 209 0 89 24 159 73 210s116 77 202 77c28 0 55-3 81-9s52-14 77-25z"/></symbol><symbol id="u"><path transform="translate(-.027) scale(.001)" d="M183 702V547h185v-70H183V180c0-45 6-74 18-86 12-13 37-19 75-19h92V0h-92c-70 0-118 13-144 39s-39 73-39 141v297H27v70h66v155h90z"/></symbol><symbol id="w"><path transform="matrix(.001 0 0 .001 -.055 .013)" d="M306 484c-48 0-86-19-114-57s-42-89-42-154c0-66 13-117 41-155s66-56 115-56c48 0 86 18 114 56s42 89 42 155c0 64-14 116-42 154s-66 57-114 57zm0 76c78 0 139-26 184-76 44-51 67-121 67-211s-23-160-67-210c-45-51-106-76-184-76-79 0-141 25-185 76-44 50-66 120-66 210s22 160 66 211c44 50 106 76 185 76z"/></symbol><symbol id="x"><path transform="translate(-.091) scale(.001)" d="M549 330V0h-90v327c0 52-11 90-31 116s-50 39-90 39c-49 0-87-16-115-47s-42-73-42-126V0H91v547h90v-85c21 32 46 57 76 73 29 16 63 25 101 25 62 0 110-20 142-59s49-96 49-171z"/></symbol><symbol id="y"><path transform="matrix(.001 0 0 .001 -.055 .013)" d="M562 296v-44H149c4-62 22-110 56-142 33-32 79-48 139-48 34 0 68 4 100 12s65 21 97 39V28c-32-14-65-25-99-31s-69-10-103-10c-88 0-157 25-208 75S55 181 55 268c0 89 24 160 72 213 48 52 114 79 196 79 74 0 132-24 175-71 42-48 64-112 64-193zm-90 26c-1 49-15 88-41 118-27 29-63 44-107 44-50 0-90-15-120-43s-48-68-52-119h320z"/></symbol><symbol id="z"><path transform="translate(-.091) scale(.001)" d="M411 463c-10 6-21 10-33 13-12 2-25 4-39 4-51 0-90-17-117-50-28-33-41-80-41-142V0H91v547h90v-85c18 33 43 58 73 74s67 24 111 24c6 0 13-1 21-1 7-1 15-2 25-4v-92z"/></symbol><symbol id="A"><path transform="translate(-.023) scale(.001)" d="M371 760v-75h-86c-32 0-55-7-67-20-13-13-19-36-19-70v-48h148v-70H199V0h-90v477H23v70h86v38c0 60 14 105 42 133s73 42 135 42h85z"/></symbol><use xlink:href="#q" transform="matrix(0 -15 -15 0 18.59 226.872)"/><use xlink:href="#r" transform="matrix(0 -15 -15 0 18.59 222.552)"/><use xlink:href="#i" transform="matrix(0 -15 -15 0 21.696 207.942)"/><use xlink:href="#s" transform="matrix(0 -15 -15 0 18.786 198.882)"/><use xlink:href="#t" transform="scale(15) rotate(-90 6.952 5.7)"/><use xlink:href="#u" transform="matrix(0 -15 -15 0 18.59 181.932)"/><use xlink:href="#v" transform="matrix(0 -15 -15 0 18.59 176.457)"/><use xlink:href="#w" transform="matrix(0 -15 -15 0 18.786 170.862)"/><use xlink:href="#x" transform="matrix(0 -15 -15 0 18.59 161.142)"/><use xlink:href="#v" transform="matrix(0 -15 -15 0 18.59 152.997)"/><use xlink:href="#i" transform="matrix(0 -15 -15 0 21.696 146.862)"/><use xlink:href="#y" transform="matrix(0 -15 -15 0 18.786 137.877)"/><use xlink:href="#z" transform="matrix(0 -15 -15 0 18.59 128.112)"/><use xlink:href="#A" transform="matrix(0 -15 -15 0 18.59 122.967)"/><use xlink:href="#w" transform="matrix(0 -15 -15 0 18.786 117.207)"/><use xlink:href="#z" transform="matrix(0 -15 -15 0 18.59 107.487)"/><use xlink:href="#r" transform="matrix(0 -15 -15 0 18.59 101.572)"/><use xlink:href="#s" transform="matrix(0 -15 -15 0 18.786 87.427)"/><use xlink:href="#x" transform="matrix(0 -15 -15 0 18.59 77.767)"/><use xlink:href="#t" transform="matrix(0 -15 -15 0 18.786 68.797)"/><use xlink:href="#y" transform="matrix(0 -15 -15 0 18.786 60.547)"/><clipPath id="B"><path transform="matrix(1 0 0 -1 0 320.543)" d="M75.669 47.231h357.12v266.112H75.669z"/></clipPath><g clip-path="url(#B)"><path stroke-width="2" stroke-linecap="square" stroke-linejoin="round" fill="none" stroke="red" stroke-opacity=".6" d="m91.901 140.09 22.011-33.058 27.513 3.96 27.513-94.023 27.513 49.68 27.513.99 27.513-10.49 55.027-21.38L416.556 25.08"/><clipPath id="C"><path transform="matrix(1 0 0 -1 91.901 140.09)" d="M-8-8H8V8H-8z"/></clipPath><g clip-path="url(#C)"><path d="M91.901 143.09a3 3 0 1 0 0-6 3 3 0 0 0 0 6z" fill="red" fill-opacity=".6"/><path stroke-linejoin="round" fill="none" stroke="red" stroke-opacity=".6" d="M91.901 143.09a3 3 0 1 0 0-6 3 3 0 0 0 0 6z"/></g><clipPath id="D"><path transform="matrix(1 0 0 -1 113.912 107.032)" d="M-8-8H8V8H-8z"/></clipPath><g clip-path="url(#D)"><path d="M113.912 110.032a3 3 0 1 0 0-6 3 3 0 0 0 0 6z" fill="red" fill-opacity=".6"/><path stroke-linejoin="round" fill="none" stroke="red" stroke-opacity=".6" d="M113.912 110.032a3 3 0 1 0 0-6 3 3 0 0 0 0 6z"/></g><clipPath id="E"><path transform="matrix(1 0 0 -1 141.425 110.991)" d="M-8-8H8V8H-8z"/></clipPath><g clip-path="url(#E)"><path d="M141.425 113.991a3 3 0 1 0 0-6 3 3 0 0 0 0 6z" fill="red" fill-opacity=".6"/><path stroke-linejoin="round" fill="none" stroke="red" stroke-opacity=".6" d="M141.425 113.991a3 3 0 1 0 0-6 3 3 0 0 0 0 6z"/></g><clipPath id="F"><path transform="matrix(1 0 0 -1 168.938 16.97)" d="M-8-8H8V8H-8z"/></clipPath><g clip-path="url(#F)"><path d="M168.938 19.97a3 3 0 1 0 0-6 3 3 0 0 0 0 6z" fill="red" fill-opacity=".6"/><path stroke-linejoin="round" fill="none" stroke="red" stroke-opacity=".6" d="M168.938 19.97a3 3 0 1 0 0-6 3 3 0 0 0 0 6z"/></g><clipPath id="G"><path transform="matrix(1 0 0 -1 196.451 66.65)" d="M-8-8H8V8H-8z"/></clipPath><g clip-path="url(#G)"><path d="M196.451 69.65a3 3 0 1 0 0-6 3 3 0 0 0 0 6z" fill="red" fill-opacity=".6"/><path stroke-linejoin="round" fill="none" stroke="red" stroke-opacity=".6" d="M196.451 69.65a3 3 0 1 0 0-6 3 3 0 0 0 0 6z"/></g><clipPath id="H"><path transform="matrix(1 0 0 -1 223.964 67.64)" d="M-8-8H8V8H-8z"/></clipPath><g clip-path="url(#H)"><path d="M223.964 70.64a3 3 0 1 0 0-6 3 3 0 0 0 0 6z" fill="red" fill-opacity=".6"/><path stroke-linejoin="round" fill="none" stroke="red" stroke-opacity=".6" d="M223.964 70.64a3 3 0 1 0 0-6 3 3 0 0 0 0 6z"/></g><clipPath id="I"><path transform="matrix(1 0 0 -1 251.477 57.148)" d="M-8-8H8V8H-8z"/></clipPath><g clip-path="url(#I)"><path d="M251.477 60.148a3 3 0 1 0 0-6 3 3 0 0 0 0 6z" fill="red" fill-opacity=".6"/><path stroke-linejoin="round" fill="none" stroke="red" stroke-opacity=".6" d="M251.477 60.148a3 3 0 1 0 0-6 3 3 0 0 0 0 6z"/></g><clipPath id="J"><path transform="matrix(1 0 0 -1 306.504 35.77)" d="M-8-8H8V8H-8z"/></clipPath><g clip-path="url(#J)"><path d="M306.504 38.77a3 3 0 1 0 0-6 3 3 0 0 0 0 6z" fill="red" fill-opacity=".6"/><path stroke-linejoin="round" fill="none" stroke="red" stroke-opacity=".6" d="M306.504 38.77a3 3 0 1 0 0-6 3 3 0 0 0 0 6z"/></g><clipPath id="K"><path transform="matrix(1 0 0 -1 416.556 25.08)" d="M-8-8H8V8H-8z"/></clipPath><g clip-path="url(#K)"><path d="M416.556 28.08a3 3 0 1 0 0-6 3 3 0 0 0 0 6z" fill="red" fill-opacity=".6"/><path stroke-linejoin="round" fill="none" stroke="red" stroke-opacity=".6" d="M416.556 28.08a3 3 0 1 0 0-6 3 3 0 0 0 0 6z"/></g></g><clipPath id="L"><path transform="matrix(1 0 0 -1 0 320.543)" d="M75.669 47.231h357.12v266.112H75.669z"/></clipPath><g clip-path="url(#L)"><path stroke-width="2" stroke-linecap="square" stroke-linejoin="round" fill="none" stroke="#00f" stroke-opacity=".6" d="m91.901 121.75 22.011-27.247 27.513-20.435 27.513-28.099 27.513 11.92 27.513-5.108 27.513-4.257 55.027-7.664 110.052-27.332"/><clipPath id="M"><path transform="matrix(1 0 0 -1 91.901 121.75)" d="M-8-8H8V8H-8z"/></clipPath><g clip-path="url(#M)"><path d="m91.901 124.75 3-6h-6z" fill="#00f" fill-opacity=".6"/><path stroke-miterlimit="10" fill="none" stroke="#00f" stroke-opacity=".6" d="m91.901 124.75 3-6h-6z"/></g><clipPath id="N"><path transform="matrix(1 0 0 -1 113.912 94.503)" d="M-8-8H8V8H-8z"/></clipPath><g clip-path="url(#N)"><path d="m113.912 97.503 3-6h-6z" fill="#00f" fill-opacity=".6"/><path stroke-miterlimit="10" fill="none" stroke="#00f" stroke-opacity=".6" d="m113.912 97.503 3-6h-6z"/></g><clipPath id="O"><path transform="matrix(1 0 0 -1 141.425 74.068)" d="M-8-8H8V8H-8z"/></clipPath><g clip-path="url(#O)"><path d="m141.425 77.068 3-6h-6z" fill="#00f" fill-opacity=".6"/><path stroke-miterlimit="10" fill="none" stroke="#00f" stroke-opacity=".6" d="m141.425 77.068 3-6h-6z"/></g><clipPath id="P"><path transform="matrix(1 0 0 -1 168.938 45.97)" d="M-8-8H8V8H-8z"/></clipPath><g clip-path="url(#P)"><path d="m168.938 48.97 3-6h-6z" fill="#00f" fill-opacity=".6"/><path stroke-miterlimit="10" fill="none" stroke="#00f" stroke-opacity=".6" d="m168.938 48.97 3-6h-6z"/></g><clipPath id="Q"><path transform="matrix(1 0 0 -1 196.451 57.89)" d="M-8-8H8V8H-8z"/></clipPath><g clip-path="url(#Q)"><path d="m196.451 60.89 3-6h-6z" fill="#00f" fill-opacity=".6"/><path stroke-miterlimit="10" fill="none" stroke="#00f" stroke-opacity=".6" d="m196.451 60.89 3-6h-6z"/></g><clipPath id="R"><path transform="matrix(1 0 0 -1 223.964 52.78)" d="M-8-8H8V8H-8z"/></clipPath><g clip-path="url(#R)"><path d="m223.964 55.78 3-6h-6z" fill="#00f" fill-opacity=".6"/><path stroke-miterlimit="10" fill="none" stroke="#00f" stroke-opacity=".6" d="m223.964 55.78 3-6h-6z"/></g><clipPath id="S"><path transform="matrix(1 0 0 -1 251.477 48.524)" d="M-8-8H8V8H-8z"/></clipPath><g clip-path="url(#S)"><path d="m251.477 51.524 3-6h-6z" fill="#00f" fill-opacity=".6"/><path stroke-miterlimit="10" fill="none" stroke="#00f" stroke-opacity=".6" d="m251.477 51.524 3-6h-6z"/></g><clipPath id="T"><path transform="matrix(1 0 0 -1 306.504 40.86)" d="M-8-8H8V8H-8z"/></clipPath><g clip-path="url(#T)"><path d="m306.504 43.86 3-6h-6z" fill="#00f" fill-opacity=".6"/><path stroke-miterlimit="10" fill="none" stroke="#00f" stroke-opacity=".6" d="m306.504 43.86 3-6h-6z"/></g><clipPath id="U"><path transform="matrix(1 0 0 -1 416.556 13.528)" d="M-8-8H8V8H-8z"/></clipPath><g clip-path="url(#U)"><path d="m416.556 16.528 3-6h-6z" fill="#00f" fill-opacity=".6"/><path stroke-miterlimit="10" fill="none" stroke="#00f" stroke-opacity=".6" d="m416.556 16.528 3-6h-6z"/></g></g><clipPath id="V"><path transform="matrix(1 0 0 -1 0 320.543)" d="M75.669 47.231h357.12v266.112H75.669z"/></clipPath><g clip-path="url(#V)"><path stroke-width="2" stroke-linecap="square" stroke-linejoin="round" fill="none" stroke="green" stroke-opacity=".6" d="m91.901 131.116 22.011-13.623 27.513-25.544 27.513-29.802 27.513-5.96 27.513-11.07 27.513 8.515 55.027-10.217 110.052-21.287"/><clipPath id="W"><path transform="matrix(1 0 0 -1 91.901 131.116)" d="M-8-8H8V8H-8z"/></clipPath><g clip-path="url(#W)"><path d="M90.901 134.116h2v-2h2v-2h-2v-2h-2v2h-2v2h2z" fill="green" fill-opacity=".6"/><path stroke-miterlimit="10" fill="none" stroke="green" stroke-opacity=".6" d="M90.901 134.116h2v-2h2v-2h-2v-2h-2v2h-2v2h2z"/></g><clipPath id="X"><path transform="matrix(1 0 0 -1 113.912 117.493)" d="M-8-8H8V8H-8z"/></clipPath><g clip-path="url(#X)"><path d="M112.912 120.493h2v-2h2v-2h-2v-2h-2v2h-2v2h2z" fill="green" fill-opacity=".6"/><path stroke-miterlimit="10" fill="none" stroke="green" stroke-opacity=".6" d="M112.912 120.493h2v-2h2v-2h-2v-2h-2v2h-2v2h2z"/></g><clipPath id="Y"><path transform="matrix(1 0 0 -1 141.425 91.949)" d="M-8-8H8V8H-8z"/></clipPath><g clip-path="url(#Y)"><path d="M140.425 94.949h2v-2h2v-2h-2v-2h-2v2h-2v2h2z" fill="green" fill-opacity=".6"/><path stroke-miterlimit="10" fill="none" stroke="green" stroke-opacity=".6" d="M140.425 94.949h2v-2h2v-2h-2v-2h-2v2h-2v2h2z"/></g><clipPath id="Z"><path transform="matrix(1 0 0 -1 168.938 62.147)" d="M-8-8H8V8H-8z"/></clipPath><g clip-path="url(#Z)"><path d="M167.938 65.147h2v-2h2v-2h-2v-2h-2v2h-2v2h2z" fill="green" fill-opacity=".6"/><path stroke-miterlimit="10" fill="none" stroke="green" stroke-opacity=".6" d="M167.938 65.147h2v-2h2v-2h-2v-2h-2v2h-2v2h2z"/></g><clipPath id="aa"><path transform="matrix(1 0 0 -1 196.451 56.187)" d="M-8-8H8V8H-8z"/></clipPath><g clip-path="url(#aa)"><path d="M195.451 59.187h2v-2h2v-2h-2v-2h-2v2h-2v2h2z" fill="green" fill-opacity=".6"/><path stroke-miterlimit="10" fill="none" stroke="green" stroke-opacity=".6" d="M195.451 59.187h2v-2h2v-2h-2v-2h-2v2h-2v2h2z"/></g><clipPath id="ab"><path transform="matrix(1 0 0 -1 223.964 45.118)" d="M-8-8H8V8H-8z"/></clipPath><g clip-path="url(#ab)"><path d="M222.964 48.118h2v-2h2v-2h-2v-2h-2v2h-2v2h2z" fill="green" fill-opacity=".6"/><path stroke-miterlimit="10" fill="none" stroke="green" stroke-opacity=".6" d="M222.964 48.118h2v-2h2v-2h-2v-2h-2v2h-2v2h2z"/></g><clipPath id="ac"><path transform="matrix(1 0 0 -1 251.477 53.632)" d="M-8-8H8V8H-8z"/></clipPath><g clip-path="url(#ac)"><path d="M250.477 56.632h2v-2h2v-2h-2v-2h-2v2h-2v2h2z" fill="green" fill-opacity=".6"/><path stroke-miterlimit="10" fill="none" stroke="green" stroke-opacity=".6" d="M250.477 56.632h2v-2h2v-2h-2v-2h-2v2h-2v2h2z"/></g><clipPath id="ad"><path transform="matrix(1 0 0 -1 306.504 43.415)" d="M-8-8H8V8H-8z"/></clipPath><g clip-path="url(#ad)"><path d="M305.504 46.415h2v-2h2v-2h-2v-2h-2v2h-2v2h2z" fill="green" fill-opacity=".6"/><path stroke-miterlimit="10" fill="none" stroke="green" stroke-opacity=".6" d="M305.504 46.415h2v-2h2v-2h-2v-2h-2v2h-2v2h2z"/></g><clipPath id="ae"><path transform="matrix(1 0 0 -1 416.556 22.128)" d="M-8-8H8V8H-8z"/></clipPath><g clip-path="url(#ae)"><path d="M415.556 25.128h2v-2h2v-2h-2v-2h-2v2h-2v2h2z" fill="green" fill-opacity=".6"/><path stroke-miterlimit="10" fill="none" stroke="green" stroke-opacity=".6" d="M415.556 25.128h2v-2h2v-2h-2v-2h-2v2h-2v2h2z"/></g></g><path stroke-width=".8" stroke-linecap="square" stroke-miterlimit="10" fill="none" stroke="#000" d="M75.669 273.312V7.2M432.789 273.312V7.2M75.669 273.312h357.12M75.669 7.2h357.12"/><path d="M288.789 268.312h137c1.333 0 2-.667 2-2v-46c0-1.333-.667-2-2-2h-137c-1.334 0-2 .667-2 2v46c0 1.333.666 2 2 2z" fill="#fff" fill-opacity=".8"/><path stroke-miterlimit="10" fill="none" stroke="#d5d6d5" stroke-opacity=".8" d="M288.789 268.312h137c1.333 0 2-.667 2-2v-46c0-1.333-.667-2-2-2h-137c-1.334 0-2 .667-2 2v46c0 1.333.666 2 2 2z"/><path stroke-width="2" stroke-linecap="square" stroke-linejoin="round" fill="none" stroke="red" stroke-opacity=".6" d="M290.789 226.812h20"/><path d="M300.789 229.812a3 3 0 1 0 0-6 3 3 0 0 0 0 6z" fill="red" fill-opacity=".6"/><path stroke-linejoin="round" fill="none" stroke="red" stroke-opacity=".6" d="M300.789 229.812a3 3 0 1 0 0-6 3 3 0 0 0 0 6z"/><symbol id="af"><path transform="translate(-.096) scale(.001)" d="M96 729h96l35-620 275 620h110l36-620 272 620h100L696 0H572l-34 608L265 0H141L96 729z"/></symbol><use xlink:href="#af" transform="matrix(10 0 0 -10 319.749 229.906)"/><symbol id="ag"><path transform="matrix(.001 0 0 .001 -.036 .013)" d="M495 334c0 47-11 84-33 111-22 26-51 40-89 40-28 0-54-7-78-21s-45-33-63-58c-19-28-34-59-45-95s-16-71-16-106c0-45 10-80 32-106 21-26 50-38 88-38 28 0 54 6 78 20 24 13 46 32 64 58s33 57 45 93c11 36 17 70 17 102zM216 464c22 30 49 53 83 70 33 17 68 26 105 26 56 0 100-19 133-57s50-89 50-153c0-53-10-104-29-153-20-50-47-94-83-132-24-26-51-45-81-58-31-13-63-20-96-20-36 0-66 8-92 24s-48 40-64 72L126 0H36l148 760h90l-58-296z"/></symbol><symbol id="ah"><path transform="matrix(.001 0 0 .001 -.041 .013)" d="M537 312 476 0h-90l17 83c-27-33-57-57-91-73-34-15-71-23-112-23-47 0-85 14-115 42S41 93 41 138c0 64 25 114 76 151s121 56 211 56h125l5 24c0 2 1 5 1 8s1 8 1 15c0 29-12 52-36 68s-57 24-99 24c-30 0-60-4-90-12-31-8-63-19-95-33l16 83c34 12 67 22 99 28s64 10 94 10c64 0 113-14 147-42s51-69 51-122c0-11-1-24-3-38-2-15-4-30-7-46zm-97-37h-90c-74 0-128-10-163-30-36-20-53-50-53-91 0-29 9-52 27-68s43-24 75-24c48 0 91 17 127 52s61 82 73 141l4 20z"/></symbol><symbol id="ai"><path transform="matrix(.001 0 0 .001 -.046 .013)" d="m536 526-18-89c-22 15-45 27-69 35s-49 12-75 12c-29 0-56-5-82-15s-48-25-65-43c-28-29-50-62-65-100-16-38-23-78-23-118 0-50 12-86 37-110 24-24 62-36 112-36 24 0 51 3 79 11 28 7 57 18 87 34l-17-89C411 7 384 0 356-5s-56-8-84-8c-73 0-129 18-168 54s-58 87-58 155c0 56 10 108 30 156s51 91 91 129c27 26 59 45 96 59 36 13 77 20 121 20 25 0 50-3 75-9s51-14 77-25z"/></symbol><symbol id="aj"><path transform="translate(-.035) scale(.001)" d="M183 760h90l-86-443 308 230h117L268 285 519 0H410L177 267 125 0H35l148 760z"/></symbol><symbol id="ak"><path transform="matrix(.001 0 0 .001 -.046 .013)" d="M418 82c-24-32-53-55-86-71s-69-24-109-24c-55 0-98 18-130 55s-47 88-47 153c0 54 9 105 29 154 19 49 47 93 83 132 24 26 51 45 81 59 30 13 62 20 96 20 35 0 66-9 93-26 26-17 47-41 62-72l59 298h90L491 0h-90l17 82zM139 211c0-48 10-85 32-111 21-26 51-39 89-39 28 0 54 6 78 20s45 34 63 60c19 27 34 59 45 95s17 71 17 106c0 45-11 80-32 106-22 25-51 38-88 38-29 0-56-7-80-20-24-14-45-33-62-58-19-27-34-58-45-94-12-36-17-71-17-103z"/></symbol><symbol id="al"><path transform="matrix(.001 0 0 .001 -.046 .013)" d="M254-13c-64 0-115 19-152 58-38 39-56 93-56 162 0 40 6 80 19 121 12 41 29 76 50 104 32 44 68 76 108 97 40 20 85 31 135 31 62 0 112-20 150-58 38-39 58-90 58-152 0-44-7-87-19-130-13-43-30-78-50-106-32-44-68-77-108-97s-85-30-135-30zM139 210c0-50 10-87 31-111 20-25 52-37 94-37 60 0 109 26 149 79 40 52 60 119 60 200 0 47-11 83-32 107s-52 36-93 36c-34 0-65-8-91-24s-50-40-70-72c-16-24-28-52-36-83s-12-63-12-95z"/></symbol><symbol id="am"><path transform="translate(-.035) scale(.001)" d="M446 464c-10 4-20 8-32 11-12 2-24 4-37 4-48 0-90-19-126-55s-59-85-71-145L125 0H35l107 547h90l-17-85c23 31 51 55 85 72 33 17 68 26 106 26 9 0 18-1 28-2s19-3 29-5l-17-89z"/></symbol><use xlink:href="#ag" transform="matrix(7 0 0 -7 328.928 231.637)"/><use xlink:href="#ah" transform="matrix(7 0 0 -7 333.407 231.637)"/><use xlink:href="#ai" transform="matrix(7 0 0 -7 337.731 231.637)"/><use xlink:href="#aj" transform="matrix(7 0 0 -7 341.503 231.546)"/><use xlink:href="#ak" transform="matrix(7 0 0 -7 345.634 231.637)"/><use xlink:href="#al" transform="matrix(7 0 0 -7 350.077 231.637)"/><use xlink:href="#al" transform="matrix(7 0 0 -7 354.36 231.637)"/><use xlink:href="#am" transform="matrix(7 0 0 -7 358.565 231.546)"/><symbol id="an"><path transform="matrix(.001 0 0 .001 -.106 -.172)" d="M106 454h626v-82H106v82zm0-199h626v-83H106v83z"/></symbol><symbol id="ao"><path transform="matrix(.001 0 0 .001 -.055 .207)" d="M454 280c0 64-14 115-40 151-27 36-65 54-113 54s-86-18-113-54-40-87-40-151c0-65 13-115 40-151s65-54 113-54 86 18 113 54c26 36 40 86 40 151zm90-212c0-92-21-161-62-207-42-45-105-68-190-68-32 0-61 3-89 7-28 5-56 12-82 22v87c26-14 52-24 78-31s52-11 79-11c58 0 102 16 132 46 29 31 44 77 44 139v44c-19-32-43-56-72-72S319 0 279 0c-68 0-122 25-163 76S55 195 55 280c0 84 20 152 61 203s95 77 163 77c40 0 74-8 103-24s53-40 72-72v83h90V68z"/></symbol><symbol id="ap"><path transform="translate(-.094) scale(.001)" d="M94 760h90V0H94v760z"/></symbol><use xlink:href="#v" transform="matrix(10 0 0 -10 361.472 229.906)"/><use xlink:href="#an" transform="matrix(10 0 0 -10 365.71 228.186)"/><use xlink:href="#v" transform="matrix(10 0 0 -10 373.03 229.906)"/><use xlink:href="#ao" transform="matrix(10 0 0 -10 376.758 231.976)"/><use xlink:href="#w" transform="matrix(10 0 0 -10 383.106 230.036)"/><use xlink:href="#w" transform="matrix(10 0 0 -10 389.224 230.036)"/><use xlink:href="#ao" transform="matrix(10 0 0 -10 395.342 231.976)"/><use xlink:href="#ap" transform="matrix(10 0 0 -10 402.08 229.906)"/><use xlink:href="#y" transform="matrix(10 0 0 -10 404.468 230.036)"/><path stroke-width="2" stroke-linecap="square" stroke-linejoin="round" fill="none" stroke="#00f" stroke-opacity=".6" d="M290.789 242.812h20"/><path d="m300.789 245.812 3-6h-6z" fill="#00f" fill-opacity=".6"/><path stroke-miterlimit="10" fill="none" stroke="#00f" stroke-opacity=".6" d="m300.789 245.812 3-6h-6z"/><use xlink:href="#af" transform="matrix(10 0 0 -10 319.749 245.906)"/><use xlink:href="#ag" transform="matrix(7 0 0 -7 328.928 247.637)"/><use xlink:href="#ah" transform="matrix(7 0 0 -7 333.407 247.637)"/><use xlink:href="#ai" transform="matrix(7 0 0 -7 337.731 247.637)"/><use xlink:href="#aj" transform="matrix(7 0 0 -7 341.503 247.546)"/><use xlink:href="#ak" transform="matrix(7 0 0 -7 345.634 247.637)"/><use xlink:href="#al" transform="matrix(7 0 0 -7 350.077 247.637)"/><use xlink:href="#al" transform="matrix(7 0 0 -7 354.36 247.637)"/><use xlink:href="#am" transform="matrix(7 0 0 -7 358.565 247.546)"/><use xlink:href="#v" transform="matrix(10 0 0 -10 361.472 245.906)"/><use xlink:href="#an" transform="matrix(10 0 0 -10 365.71 244.186)"/><use xlink:href="#v" transform="matrix(10 0 0 -10 373.03 245.906)"/><use xlink:href="#s" transform="matrix(10 0 0 -10 376.808 246.036)"/><use xlink:href="#i" transform="matrix(10 0 0 -10 383.246 247.976)"/><use xlink:href="#i" transform="matrix(10 0 0 -10 389.594 247.976)"/><use xlink:href="#ap" transform="matrix(10 0 0 -10 395.971 245.906)"/><use xlink:href="#y" transform="matrix(10 0 0 -10 398.36 246.036)"/><path stroke-width="2" stroke-linecap="square" stroke-linejoin="round" fill="none" stroke="green" stroke-opacity=".6" d="M290.789 258.734h20"/><path d="M299.789 261.734h2v-2h2v-2h-2v-2h-2v2h-2v2h2z" fill="green" fill-opacity=".6"/><path stroke-miterlimit="10" fill="none" stroke="green" stroke-opacity=".6" d="M299.789 261.734h2v-2h2v-2h-2v-2h-2v2h-2v2h2z"/><use xlink:href="#af" transform="matrix(10 0 0 -10 319.749 261.828)"/><use xlink:href="#ag" transform="matrix(7 0 0 -7 328.928 263.56)"/><use xlink:href="#ah" transform="matrix(7 0 0 -7 333.407 263.56)"/><use xlink:href="#ai" transform="matrix(7 0 0 -7 337.731 263.56)"/><use xlink:href="#aj" transform="matrix(7 0 0 -7 341.503 263.468)"/><use xlink:href="#ak" transform="matrix(7 0 0 -7 345.634 263.56)"/><use xlink:href="#al" transform="matrix(7 0 0 -7 350.077 263.56)"/><use xlink:href="#al" transform="matrix(7 0 0 -7 354.36 263.56)"/><use xlink:href="#am" transform="matrix(7 0 0 -7 358.565 263.468)"/><symbol id="aq"><path transform="translate(-.094) scale(.001)" d="M94 547h90V0H94v547zm0 213h90V646H94v114z"/></symbol><symbol id="ar"><path transform="matrix(.001 0 0 .001 -.054 .013)" d="M443 531v-85c-26 12-52 22-79 29-28 6-56 10-85 10-45 0-79-7-101-21s-33-34-33-61c0-21 8-37 24-49s48-24 96-34l31-7c64-14 109-34 136-58 26-25 40-60 40-104 0-51-20-91-60-120-40-30-96-44-166-44-30 0-60 3-92 8S89 8 54 20v93c33-18 66-31 98-39 32-9 64-13 96-13 42 0 75 7 98 21 22 14 34 35 34 62 0 24-9 43-25 56s-52 26-108 38l-31 7c-56 12-97 30-121 54-25 24-37 57-37 100 0 51 18 91 54 119s88 42 156 42c33 0 64-3 94-8 29-5 56-12 81-21z"/></symbol><use xlink:href="#v" transform="matrix(10 0 0 -10 361.472 261.828)"/><use xlink:href="#an" transform="matrix(10 0 0 -10 365.71 260.108)"/><use xlink:href="#v" transform="matrix(10 0 0 -10 373.03 261.828)"/><use xlink:href="#r" transform="matrix(10 0 0 -10 377.118 261.828)"/><use xlink:href="#aq" transform="matrix(10 0 0 -10 386.89 261.828)"/><use xlink:href="#t" transform="matrix(10 0 0 -10 389.278 261.958)"/><use xlink:href="#z" transform="matrix(10 0 0 -10 395.136 261.828)"/><use xlink:href="#w" transform="matrix(10 0 0 -10 398.887 261.958)"/><use xlink:href="#ar" transform="matrix(10 0 0 -10 404.995 261.958)"/><use xlink:href="#w" transform="matrix(10 0 0 -10 410.215 261.958)"/><use xlink:href="#A" transform="matrix(10 0 0 -10 416.013 261.828)"/><use xlink:href="#u" transform="matrix(10 0 0 -10 419.574 261.828)"/></svg>