<?xml version="1.0" encoding="UTF-8" standalone="no"?>
<!-- Created with Inkscape (http://www.inkscape.org/) -->

<svg
   version="1.1"
   id="svg2"
   width="535.83167"
   height="198.93452"
   viewBox="0 0 535.83167 198.93452"
   xmlns="http://www.w3.org/2000/svg"
   xmlns:svg="http://www.w3.org/2000/svg">
  <defs
     id="defs6">
    <clipPath
       clipPathUnits="userSpaceOnUse"
       id="clipPath18">
      <path
         d="M 11.9906,230.6197 H 600.0094 V 561.3803 H 11.9906 Z"
         id="path16" />
    </clipPath>
    <clipPath
       clipPathUnits="userSpaceOnUse"
       id="clipPath38">
      <path
         d="m 123.4328,412.493 h 14.91984 v 19.50013 H 123.4328 Z"
         id="path36" />
    </clipPath>
    <clipPath
       clipPathUnits="userSpaceOnUse"
       id="clipPath48">
      <path
         d="m 114.8217,404.0762 h 32.14197 v 10.40947 H 114.8217 Z"
         id="path46" />
    </clipPath>
    <clipPath
       clipPathUnits="userSpaceOnUse"
       id="clipPath62">
      <path
         d="M 11.9906,230.6197 H 600.0094 V 561.3803 H 11.9906 Z"
         id="path60" />
    </clipPath>
    <clipPath
       clipPathUnits="userSpaceOnUse"
       id="clipPath76">
      <path
         d="m 273.5144,404.8045 h 45.93897 v 24.50078 H 273.5144 Z"
         id="path74" />
    </clipPath>
    <clipPath
       clipPathUnits="userSpaceOnUse"
       id="clipPath96">
      <path
         d="M 11.9906,230.6197 H 600.0094 V 561.3803 H 11.9906 Z"
         id="path94" />
    </clipPath>
    <clipPath
       clipPathUnits="userSpaceOnUse"
       id="clipPath116">
      <path
         d="m 341.6836,416.2853 h 14.91984 v 19.50013 H 341.6836 Z"
         id="path114" />
    </clipPath>
    <clipPath
       clipPathUnits="userSpaceOnUse"
       id="clipPath126">
      <path
         d="m 332.105,398.5506 h 36.806 v 17.45344 h -36.806 z"
         id="path124" />
    </clipPath>
    <clipPath
       clipPathUnits="userSpaceOnUse"
       id="clipPath146">
      <path
         d="M 11.9906,230.6197 H 600.0094 V 561.3803 H 11.9906 Z"
         id="path144" />
    </clipPath>
    <clipPath
       clipPathUnits="userSpaceOnUse"
       id="clipPath178">
      <path
         d="m 204.3316,405.6711 h 45.93897 v 24.50078 H 204.3316 Z"
         id="path176" />
    </clipPath>
    <clipPath
       clipPathUnits="userSpaceOnUse"
       id="clipPath210">
      <path
         d="M 11.9906,230.6197 H 600.0094 V 561.3803 H 11.9906 Z"
         id="path208" />
    </clipPath>
    <clipPath
       clipPathUnits="userSpaceOnUse"
       id="clipPath252">
      <path
         d="m 68.74333,337.8389 h 36.75117 v 18.37559 H 68.74333 Z"
         id="path250" />
    </clipPath>
    <clipPath
       clipPathUnits="userSpaceOnUse"
       id="clipPath272">
      <path
         d="M 11.9906,230.6197 H 600.0094 V 561.3803 H 11.9906 Z"
         id="path270" />
    </clipPath>
    <clipPath
       clipPathUnits="userSpaceOnUse"
       id="clipPath286">
      <path
         d="m 123.7147,337.8389 h 36.75117 v 18.37559 H 123.7147 Z"
         id="path284" />
    </clipPath>
    <clipPath
       clipPathUnits="userSpaceOnUse"
       id="clipPath306">
      <path
         d="M 11.9906,230.6197 H 600.0094 V 561.3803 H 11.9906 Z"
         id="path304" />
    </clipPath>
    <clipPath
       clipPathUnits="userSpaceOnUse"
       id="clipPath324">
      <path
         d="m 188.87,337.1092 h 56.3518 v 16.53803 H 188.87 Z"
         id="path322" />
    </clipPath>
    <clipPath
       clipPathUnits="userSpaceOnUse"
       id="clipPath338">
      <path
         d="m 189.4825,337.7217 h 55.12676 v 15.31299 H 189.4825 Z"
         id="path336" />
    </clipPath>
    <clipPath
       clipPathUnits="userSpaceOnUse"
       id="clipPath352">
      <path
         d="m 248.4284,337.1092 h 56.3518 v 16.53803 h -56.3518 z"
         id="path350" />
    </clipPath>
    <clipPath
       clipPathUnits="userSpaceOnUse"
       id="clipPath366">
      <path
         d="m 249.0409,337.7217 h 55.12676 v 15.31299 H 249.0409 Z"
         id="path364" />
    </clipPath>
    <clipPath
       clipPathUnits="userSpaceOnUse"
       id="clipPath380">
      <path
         d="m 307.9868,337.1092 h 56.3518 v 16.53803 h -56.3518 z"
         id="path378" />
    </clipPath>
    <clipPath
       clipPathUnits="userSpaceOnUse"
       id="clipPath394">
      <path
         d="m 308.5993,337.7217 h 55.12676 v 15.31299 H 308.5993 Z"
         id="path392" />
    </clipPath>
    <clipPath
       clipPathUnits="userSpaceOnUse"
       id="clipPath408">
      <path
         d="M 11.9906,230.6197 H 600.0094 V 561.3803 H 11.9906 Z"
         id="path406" />
    </clipPath>
    <clipPath
       clipPathUnits="userSpaceOnUse"
       id="clipPath438">
      <path
         d="m 383.2482,434.1644 h 65.32776 v 18.43727 H 383.2482 Z"
         id="path436" />
    </clipPath>
    <clipPath
       clipPathUnits="userSpaceOnUse"
       id="clipPath458">
      <path
         d="M 11.9906,230.6197 H 600.0094 V 561.3803 H 11.9906 Z"
         id="path456" />
    </clipPath>
    <clipPath
       clipPathUnits="userSpaceOnUse"
       id="clipPath472">
      <path
         d="m 383.3177,366.7499 h 65.32776 v 18.43727 H 383.3177 Z"
         id="path470" />
    </clipPath>
    <clipPath
       clipPathUnits="userSpaceOnUse"
       id="clipPath492">
      <path
         d="M 11.9906,230.6197 H 600.0094 V 561.3803 H 11.9906 Z"
         id="path490" />
    </clipPath>
    <clipPath
       clipPathUnits="userSpaceOnUse"
       id="clipPath506">
      <path
         d="m 383.2482,344.0972 h 65.32776 v 18.43727 H 383.2482 Z"
         id="path504" />
    </clipPath>
    <clipPath
       clipPathUnits="userSpaceOnUse"
       id="clipPath520">
      <path
         d="M 11.9906,230.6197 H 600.0094 V 561.3803 H 11.9906 Z"
         id="path518" />
    </clipPath>
    <clipPath
       clipPathUnits="userSpaceOnUse"
       id="clipPath534">
      <path
         d="m 383.2482,411.6793 h 65.32776 v 18.43727 H 383.2482 Z"
         id="path532" />
    </clipPath>
    <clipPath
       clipPathUnits="userSpaceOnUse"
       id="clipPath554">
      <path
         d="M 11.9906,230.6197 H 600.0094 V 561.3803 H 11.9906 Z"
         id="path552" />
    </clipPath>
    <clipPath
       clipPathUnits="userSpaceOnUse"
       id="clipPath568">
      <path
         d="m 383.2482,389.1943 h 65.32776 v 18.43727 H 383.2482 Z"
         id="path566" />
    </clipPath>
    <clipPath
       clipPathUnits="userSpaceOnUse"
       id="clipPath588">
      <path
         d="M 11.9906,230.6197 H 600.0094 V 561.3803 H 11.9906 Z"
         id="path586" />
    </clipPath>
    <clipPath
       clipPathUnits="userSpaceOnUse"
       id="clipPath608">
      <path
         d="m 150.6203,434.8166 h 47.16401 v 25.72582 H 150.6203 Z"
         id="path606" />
    </clipPath>
    <clipPath
       clipPathUnits="userSpaceOnUse"
       id="clipPath622">
      <path
         d="m 156.5574,438.9128 h 38.01878 v 17.45344 H 156.5574 Z"
         id="path620" />
    </clipPath>
    <clipPath
       clipPathUnits="userSpaceOnUse"
       id="clipPath654">
      <path
         d="m 150.6203,382.221 h 47.16401 v 25.72582 H 150.6203 Z"
         id="path652" />
    </clipPath>
    <clipPath
       clipPathUnits="userSpaceOnUse"
       id="clipPath668">
      <path
         d="m 153.2416,384.6691 h 41.92145 v 24.49742 H 153.2416 Z"
         id="path666" />
    </clipPath>
    <clipPath
       clipPathUnits="userSpaceOnUse"
       id="clipPath706">
      <path
         d="M 11.9906,230.6197 H 600.0094 V 561.3803 H 11.9906 Z"
         id="path704" />
    </clipPath>
  </defs>
  <g
     id="g8"
     transform="matrix(1.3333333,0,0,-1.3333333,-72.743787,640.46267)">
    <g
       id="g10" />
    <g
       id="g12">
      <g
         id="g14"
         clip-path="url(#clipPath18)">
        <path
           d="M 11.9906,230.6197 H 600.0094 V 561.3803 H 11.9906 Z"
           style="fill:#ffffff;fill-opacity:1;fill-rule:nonzero;stroke:none"
           id="path20" />
        <g
           id="g22"
           transform="matrix(0.3062598,0,0,-0.3062598,56.55465,478.4564)">
          <path
             d="M 71.28356,0 H 948.5968 c 20.9181,0 33.4689,0 41.8362,3.493212 12.062,4.390246 21.564,13.892028 25.954,25.954128 3.493,8.36725 3.493,20.91811 3.493,41.83622 V 256.5316 c 0,20.9181 0,33.469 -3.493,41.8362 -4.39,12.0621 -13.892,21.5639 -25.954,25.9542 -8.3673,3.4932 -20.9181,3.4932 -41.8362,3.4932 H 71.28356 c -20.91811,0 -33.46897,0 -41.83622,-3.4932 C 17.38524,319.9317 7.883458,310.4299 3.493212,298.3678 0,290.0006 0,277.4497 0,256.5316 V 71.28356 C 0,50.36545 0,37.81459 3.493212,29.44734 7.883458,17.38524 17.38524,7.883458 29.44734,3.493212 37.81459,0 50.36545,0 71.28356,0 Z"
             style="fill:none;stroke:#000000;stroke-width:2;stroke-linecap:butt;stroke-linejoin:miter;stroke-miterlimit:4;stroke-dasharray:4, 4;stroke-dashoffset:0;stroke-opacity:1"
             id="path24" />
        </g>
        <path
           d="m 65.87413,430.0624 h 31.8939 c 2.06076,0 3.29727,0 4.12147,-0.3442 1.1884,-0.4325 2.1244,-1.3686 2.5569,-2.5568 0.3442,-0.8244 0.3442,-2.0608 0.3442,-4.1216 v -10.534 c 0,-2.0607 0,-3.2972 -0.3442,-4.1215 -0.4325,-1.1883 -1.3685,-2.1244 -2.5569,-2.5569 -0.8242,-0.3441 -2.06071,-0.3441 -4.12147,-0.3441 h -31.8939 c -2.06076,0 -3.29722,0 -4.12152,0.3441 -1.18829,0.4325 -2.12437,1.3686 -2.55687,2.5569 -0.34415,0.8243 -0.34415,2.0608 -0.34415,4.1215 v 10.534 c 0,2.0608 0,3.2972 0.34415,4.1216 0.4325,1.1882 1.36858,2.1243 2.55687,2.5568 0.8243,0.3442 2.06076,0.3442 4.12152,0.3442 z"
           style="fill:#ffffff;fill-opacity:1;fill-rule:nonzero;stroke:none"
           id="path26" />
        <g
           id="g28"
           transform="matrix(0.3062598,0,0,-0.3062598,58.85159,430.0624)">
          <path
             d="M 22.92998,0 H 127.07 c 6.7288,0 10.7661,0 13.4576,1.123671 3.88,1.412222 6.9365,4.468686 8.3487,8.348736 C 150,12.16392 150,16.20119 150,22.92997 v 34.39556 c 0,6.72879 0,10.76606 -1.1237,13.45757 -1.4122,3.88005 -4.4687,6.93652 -8.3487,8.34874 -2.6915,1.12367 -6.7288,1.12367 -13.4576,1.12367 H 22.92998 c -6.72879,0 -10.76606,0 -13.457573,-1.12367 C 5.592357,77.71962 2.535893,74.66315 1.123671,70.7831 0,68.09159 0,64.05432 0,57.32553 V 22.92998 C 0,16.20119 0,12.16392 1.123671,9.472407 2.535893,5.592357 5.592357,2.535893 9.472407,1.123671 12.16392,0 16.20119,0 22.92998,0 Z"
             style="fill:none;stroke:#000000;stroke-width:2;stroke-linecap:butt;stroke-linejoin:miter;stroke-miterlimit:4;stroke-dasharray:none;stroke-opacity:1"
             id="path30" />
        </g>
      </g>
    </g>
    <g
       id="g32">
      <g
         id="g34"
         clip-path="url(#clipPath38)">
        <path
           d="m 130.8927,431.6869 c -1.8309,0 -3.6614,-0.2107 -5.0583,-0.6329 -2.7938,-0.8444 -2.7938,-2.2133 0,-3.0577 2.7938,-0.8444 7.3227,-0.8444 10.1166,0 2.7938,0.8444 2.7938,2.2133 0,3.0577 -1.3969,0.4222 -3.2275,0.6329 -5.0583,0.6329 z m -7.1535,-3.1421 v -13.4656 c 0,-1.1923 3.2026,-2.2799 7.1535,-2.28 3.9508,0 7.1534,1.0877 7.1534,2.28 v 13.4656 c -1.0173,-0.8989 -3.8366,-1.5421 -7.1534,-1.5421 -3.3168,0 -6.1362,0.6432 -7.1535,1.5421 z"
           style="fill:#00a2ff;fill-opacity:1;fill-rule:nonzero;stroke:none"
           id="path40" />
      </g>
    </g>
    <g
       id="g42">
      <g
         id="g44"
         clip-path="url(#clipPath48)">
        <g
           id="g50"
           transform="matrix(0.3062598,0,0,0.3062598,116.6975,407.0751)">
          <text
             xml:space="preserve"
             transform="scale(1,-1)"
             style="font-variant:normal;font-weight:bold;font-size:18px;font-family:HelveticaNeue;-inkscape-font-specification:HelveticaNeue-Bold;writing-mode:lr-tb;fill:#000000;fill-opacity:1;fill-rule:nonzero;stroke:none"
             id="text54"><tspan
               x="0 14.004 25.686001 39.023998 44.028 56.034 67.031998 76.697998 83.033997"
               y="0"
               id="tspan52">OSN Posts</tspan></text>
        </g>
      </g>
    </g>
    <g
       id="g56">
      <g
         id="g58"
         clip-path="url(#clipPath62)">
        <path
           d="m 280.5369,429.3053 h 31.8939 c 2.0608,0 3.2972,0 4.1215,-0.3442 1.1884,-0.4325 2.1244,-1.3686 2.5568,-2.5569 0.3443,-0.8243 0.3443,-2.0607 0.3443,-4.1215 V 411.827 c 0,-2.0608 0,-3.2972 -0.3443,-4.1215 -0.4324,-1.1883 -1.3684,-2.1244 -2.5568,-2.5569 -0.8243,-0.3441 -2.0607,-0.3441 -4.1215,-0.3441 h -31.8939 c -2.0607,0 -3.2972,0 -4.1215,0.3441 -1.1883,0.4325 -2.1244,1.3686 -2.5569,2.5569 -0.3441,0.8243 -0.3441,2.0607 -0.3441,4.1215 v 10.4557 c 0,2.0608 0,3.2972 0.3441,4.1215 0.4325,1.1883 1.3686,2.1244 2.5569,2.5569 0.8243,0.3442 2.0608,0.3442 4.1215,0.3442 z"
           style="fill:#ffffff;fill-opacity:1;fill-rule:nonzero;stroke:none"
           id="path64" />
        <g
           id="g66"
           transform="matrix(0.3062598,0,0,-0.3062598,273.5144,429.3053)">
          <path
             d="M 22.92998,0 H 127.07 c 6.7288,0 10.7661,0 13.4576,1.123671 3.88,1.412222 6.9365,4.468686 8.3487,8.348736 C 150,12.16392 150,16.20119 150,22.92997 v 34.14005 c 0,6.72879 0,10.76606 -1.1237,13.45757 -1.4122,3.88005 -4.4687,6.93652 -8.3487,8.34874 C 137.8361,80 133.7988,80 127.07,80 H 22.92998 C 16.20119,80 12.16392,80 9.472407,78.87633 5.592357,77.46411 2.535893,74.40764 1.123671,70.52759 0,67.83608 0,63.79881 0,57.07002 V 22.92997 C 0,16.20119 0,12.16392 1.123671,9.472407 2.535893,5.592357 5.592357,2.535893 9.472407,1.123671 12.16392,0 16.20119,0 22.92998,0 Z"
             style="fill:none;stroke:#000000;stroke-width:2;stroke-linecap:butt;stroke-linejoin:miter;stroke-miterlimit:4;stroke-dasharray:none;stroke-opacity:1"
             id="path68" />
        </g>
      </g>
    </g>
    <g
       id="g70">
      <g
         id="g72"
         clip-path="url(#clipPath76)">
        <g
           id="g78"
           transform="matrix(0.3062598,0,0,0.3062598,282.8875,418.4642)">
          <text
             xml:space="preserve"
             transform="scale(1,-1)"
             style="font-variant:normal;font-weight:bold;font-size:17px;font-family:HelveticaNeue;-inkscape-font-specification:HelveticaNeue-Bold;writing-mode:lr-tb;fill:#000000;fill-opacity:1;fill-rule:nonzero;stroke:none"
             id="text82"><tspan
               x="0 11.033 26.452 37.485001 42.210999 53.243999 63.631001 73.389 88.791"
               y="0"
               id="tspan80">SMS Spam </tspan></text>
        </g>
        <g
           id="g84"
           transform="matrix(0.3062598,0,0,0.3062598,276.5265,412.0328)">
          <text
             xml:space="preserve"
             transform="scale(1,-1)"
             style="font-variant:normal;font-weight:bold;font-size:17px;font-family:HelveticaNeue;-inkscape-font-specification:HelveticaNeue-Bold;writing-mode:lr-tb;fill:#000000;fill-opacity:1;fill-rule:nonzero;stroke:none"
             id="text88"><tspan
               x="0 8.5 18.257999 27.386999 33.370998 38.097 50.370998 60.129002 69.887001 80.274002 90.661003 100.742 105.128 113.951 123.709"
               y="0"
               id="tspan86">Text Recognizer</tspan></text>
        </g>
      </g>
    </g>
    <g
       id="g90">
      <g
         id="g92"
         clip-path="url(#clipPath96)">
        <g
           id="g98"
           transform="matrix(0.2165584,0.2165584,0.2165584,-0.2165584,135.999,432.2658)">
          <path
             d="m 0,0 h 45.05599 1.5"
             style="fill:none;stroke:#000000;stroke-width:3;stroke-linecap:butt;stroke-linejoin:miter;stroke-miterlimit:4;stroke-dasharray:none;stroke-opacity:1"
             id="path100" />
        </g>
        <path
           d="m 147.1855,440.5938 1.4293,4.2878 -4.2879,-1.4292 z"
           style="fill:#000000;fill-opacity:1;fill-rule:nonzero;stroke:none"
           id="path102" />
        <g
           id="g104"
           transform="matrix(0.3062019,0.00595594,0.00595594,-0.3062019,106.7522,417.6153)">
          <path
             d="m 0,0 h 38.22089 1.5"
             style="fill:none;stroke:#000000;stroke-width:3;stroke-linecap:butt;stroke-linejoin:miter;stroke-miterlimit:4;stroke-dasharray:none;stroke-opacity:1"
             id="path106" />
        </g>
        <path
           d="m 118.4948,415.822 4.0025,2.0995 -4.0811,1.9424 z"
           style="fill:#000000;fill-opacity:1;fill-rule:nonzero;stroke:none"
           id="path108" />
      </g>
    </g>
    <g
       id="g110">
      <g
         id="g112"
         clip-path="url(#clipPath116)">
        <path
           d="m 349.1434,435.4791 c -1.8308,0 -3.6613,-0.2106 -5.0582,-0.6328 -2.794,-0.8444 -2.794,-2.2133 0,-3.0577 2.7937,-0.8445 7.3227,-0.8445 10.1164,0 2.794,0.8444 2.794,2.2133 0,3.0577 -1.3968,0.4222 -3.2273,0.6329 -5.0582,0.6328 z m -7.1536,-3.142 v -13.4656 c 0,-1.1923 3.2029,-2.28 7.1536,-2.28 3.9508,0 7.1533,1.0877 7.1533,2.28 v 13.4656 c -1.017,-0.899 -3.8365,-1.5422 -7.1533,-1.5422 -3.3168,0 -6.1362,0.6432 -7.1536,1.5422 z"
           style="fill:#00a2ff;fill-opacity:1;fill-rule:nonzero;stroke:none"
           id="path118" />
      </g>
    </g>
    <g
       id="g120">
      <g
         id="g122"
         clip-path="url(#clipPath126)">
        <g
           id="g128"
           transform="matrix(0.3062598,0,0,0.3062598,334.7471,408.5935)">
          <text
             xml:space="preserve"
             transform="scale(1,-1)"
             style="font-variant:normal;font-weight:bold;font-size:18px;font-family:HelveticaNeue;-inkscape-font-specification:HelveticaNeue-Bold;writing-mode:lr-tb;fill:#000000;fill-opacity:1;fill-rule:nonzero;stroke:none"
             id="text132"><tspan
               x="0 11.682 28.007999 39.689999 44.694 56.375999 67.374001 77.706001 94.014"
               y="0"
               id="tspan130">SMS Spam </tspan></text>
        </g>
        <g
           id="g134"
           transform="matrix(0.3062598,0,0,0.3062598,335.7724,401.5495)">
          <text
             xml:space="preserve"
             transform="scale(1,-1)"
             style="font-variant:normal;font-weight:bold;font-size:18px;font-family:HelveticaNeue;-inkscape-font-specification:HelveticaNeue-Bold;writing-mode:lr-tb;fill:#000000;fill-opacity:1;fill-rule:nonzero;stroke:none"
             id="text138"><tspan
               x="0 16.326 26.658001 36.324001 45.990002 56.321999 67.32 77.652"
               y="0"
               id="tspan136">Messages</tspan></text>
        </g>
      </g>
    </g>
    <g
       id="g140">
      <g
         id="g142"
         clip-path="url(#clipPath146)">
        <g
           id="g148"
           transform="matrix(0.2165584,-0.2165584,-0.2165584,-0.2165584,133.2712,403.1615)">
          <path
             d="m 0,0 h 45.05599 1.5"
             style="fill:none;stroke:#000000;stroke-width:3;stroke-linecap:butt;stroke-linejoin:miter;stroke-miterlimit:4;stroke-dasharray:none;stroke-opacity:1"
             id="path150" />
        </g>
        <path
           d="m 141.5992,391.9749 4.2878,-1.4293 -1.4292,4.2879 z"
           style="fill:#000000;fill-opacity:1;fill-rule:nonzero;stroke:none"
           id="path152" />
        <g
           id="g154"
           transform="matrix(0.3062598,0,0,-0.3062598,321.3494,417.0549)">
          <path
             d="m 0,0 h 38.21117 1.5"
             style="fill:none;stroke:#000000;stroke-width:3;stroke-linecap:butt;stroke-linejoin:miter;stroke-miterlimit:4;stroke-dasharray:none;stroke-opacity:1"
             id="path156" />
        </g>
        <path
           d="m 333.0519,415.0336 4.0427,2.0213 -4.0427,2.0213 z"
           style="fill:#000000;fill-opacity:1;fill-rule:nonzero;stroke:none"
           id="path158" />
        <g
           id="g160"
           transform="matrix(0.3062598,0,0,-0.3062598,254.0199,417.7728)">
          <path
             d="m 0,0 h 38.21117 1.5"
             style="fill:none;stroke:#000000;stroke-width:3;stroke-linecap:butt;stroke-linejoin:miter;stroke-miterlimit:4;stroke-dasharray:none;stroke-opacity:1"
             id="path162" />
        </g>
        <path
           d="m 265.7225,415.7515 4.0426,2.0213 -4.0426,2.0214 z"
           style="fill:#000000;fill-opacity:1;fill-rule:nonzero;stroke:none"
           id="path164" />
        <path
           d="m 211.3542,430.1719 h 31.8939 c 2.0608,0 3.2972,0 4.1215,-0.3441 1.1883,-0.4325 2.1244,-1.3686 2.5569,-2.5569 0.3441,-0.8243 0.3441,-2.0608 0.3441,-4.1215 v -10.4557 c 0,-2.0608 0,-3.2973 -0.3441,-4.1216 -0.4325,-1.1882 -1.3686,-2.1243 -2.5569,-2.5568 -0.8243,-0.3442 -2.0607,-0.3442 -4.1215,-0.3442 h -31.8939 c -2.0608,0 -3.2972,0 -4.1215,0.3442 -1.1883,0.4325 -2.1244,1.3686 -2.5569,2.5568 -0.3442,0.8243 -0.3442,2.0608 -0.3442,4.1216 v 10.4557 c 0,2.0607 0,3.2972 0.3442,4.1215 0.4325,1.1883 1.3686,2.1244 2.5569,2.5569 0.8243,0.3441 2.0607,0.3441 4.1215,0.3441 z"
           style="fill:#ffffff;fill-opacity:1;fill-rule:nonzero;stroke:none"
           id="path166" />
        <g
           id="g168"
           transform="matrix(0.3062598,0,0,-0.3062598,204.3316,430.1719)">
          <path
             d="M 22.92998,0 H 127.07 c 6.7288,0 10.7661,0 13.4576,1.123671 3.88,1.412222 6.9365,4.468686 8.3487,8.348736 C 150,12.16392 150,16.20119 150,22.92998 v 34.14004 c 0,6.72879 0,10.76606 -1.1237,13.45757 -1.4122,3.88005 -4.4687,6.93652 -8.3487,8.34874 C 137.8361,80 133.7988,80 127.07,80 H 22.92997 C 16.20119,80 12.16392,80 9.472407,78.87633 5.592357,77.46411 2.535893,74.40764 1.123671,70.52759 0,67.83608 0,63.79881 0,57.07002 V 22.92998 C 0,16.20119 0,12.16392 1.123671,9.472407 2.535893,5.592357 5.592357,2.535893 9.472407,1.123671 12.16392,0 16.20119,0 22.92998,0 Z"
             style="fill:none;stroke:#000000;stroke-width:2;stroke-linecap:butt;stroke-linejoin:miter;stroke-miterlimit:4;stroke-dasharray:none;stroke-opacity:1"
             id="path170" />
        </g>
      </g>
    </g>
    <g
       id="g172">
      <g
         id="g174"
         clip-path="url(#clipPath178)">
        <g
           id="g180"
           transform="matrix(0.3062598,0,0,0.3062598,213.7048,419.3309)">
          <text
             xml:space="preserve"
             transform="scale(1,-1)"
             style="font-variant:normal;font-weight:bold;font-size:17px;font-family:HelveticaNeue;-inkscape-font-specification:HelveticaNeue-Bold;writing-mode:lr-tb;fill:#000000;fill-opacity:1;fill-rule:nonzero;stroke:none"
             id="text184"><tspan
               x="0 11.033 26.452 37.485001 42.210999 53.243999 63.631001 73.389 88.791"
               y="0"
               id="tspan182">SMS Spam </tspan></text>
        </g>
        <g
           id="g186"
           transform="matrix(0.3062598,0,0,0.3062598,207.211,412.8995)">
          <text
             xml:space="preserve"
             transform="scale(1,-1)"
             style="font-variant:normal;font-weight:bold;font-size:17px;font-family:HelveticaNeue;-inkscape-font-specification:HelveticaNeue-Bold;writing-mode:lr-tb;fill:#000000;fill-opacity:1;fill-rule:nonzero;stroke:none"
             id="text190"><tspan
               x="0 5.0149999 20.417 30.174999 40.562 50.32 55.046001 67.642998 72.028999 81.787003 90.916 100.045"
               y="0"
               id="tspan188">Image Classi</tspan></text>
        </g>
        <g
           id="g192"
           transform="matrix(0.3062598,0,0,0.3062598,207.211,412.8995)">
          <text
             xml:space="preserve"
             transform="matrix(1,0,0,-1,104.431,0)"
             style="font-variant:normal;font-weight:bold;font-size:17px;font-family:HelveticaNeue;-inkscape-font-specification:HelveticaNeue-Bold;writing-mode:lr-tb;fill:#000000;fill-opacity:1;fill-rule:nonzero;stroke:none"
             id="text196"><tspan
               x="0"
               y="0"
               id="tspan194">f</tspan></text>
        </g>
        <g
           id="g198"
           transform="matrix(0.3062598,0,0,0.3062598,207.211,412.8995)">
          <text
             xml:space="preserve"
             transform="matrix(1,0,0,-1,114.818,0)"
             style="font-variant:normal;font-weight:bold;font-size:17px;font-family:HelveticaNeue;-inkscape-font-specification:HelveticaNeue-Bold;writing-mode:lr-tb;fill:#000000;fill-opacity:1;fill-rule:nonzero;stroke:none"
             id="text202"><tspan
               x="0 9.7580004"
               y="0"
               id="tspan200">er</tspan></text>
        </g>
      </g>
    </g>
    <g
       id="g204">
      <g
         id="g206"
         clip-path="url(#clipPath210)">
        <g
           id="g212"
           transform="matrix(0.2646133,-0.154191,-0.154191,-0.2646133,198.4294,448.0099)">
          <path
             d="m 0,0 h 96.01247 1.5"
             style="fill:none;stroke:#000000;stroke-width:3;stroke-linecap:butt;stroke-linejoin:miter;stroke-miterlimit:4;stroke-dasharray:none;stroke-opacity:1"
             id="path214" />
        </g>
        <path
           d="m 222.8179,431.4592 4.5105,-0.2889 -2.4752,3.7818 z"
           style="fill:#000000;fill-opacity:1;fill-rule:nonzero;stroke:none"
           id="path216" />
        <g
           id="g218"
           transform="matrix(0.2761036,0.1325212,0.1325212,-0.2761036,199.5496,392.1953)">
          <path
             d="m 0,0 h 83.14371 1.5"
             style="fill:none;stroke:#000000;stroke-width:3;stroke-linecap:butt;stroke-linejoin:miter;stroke-miterlimit:4;stroke-dasharray:none;stroke-opacity:1"
             id="path220" />
        </g>
        <path
           d="m 223.3805,401.3913 2.7699,3.5716 -4.5192,0.073 z"
           style="fill:#000000;fill-opacity:1;fill-rule:nonzero;stroke:none"
           id="path222" />
        <g
           id="g224"
           transform="matrix(0.3062598,0,0,-0.3062598,56.55465,370.1873)">
          <path
             d="M 71.28356,0 H 318.9939 c 20.6355,0 33.0167,0 41.2709,3.181511 12.4697,4.538596 22.2926,14.361449 26.8312,26.831139 2.5768,5.59198 3.1815,19.36665 3.1815,29.98735 0,10.6207 -0.6047,24.39537 -3.1815,29.98735 C 382.5574,102.457 372.7345,112.2799 360.2648,116.8185 352.0106,120 339.6294,120 318.9939,120 H 71.28356 C 50.6481,120 38.26683,120 30.01265,116.8185 17.54296,112.2799 7.720107,102.457 3.181511,89.98735 0.6046577,84.39537 0,70.6207 0,60 0,49.3793 0.6046577,35.60463 3.181511,30.01265 7.720107,17.54296 17.54296,7.720107 30.01265,3.181511 38.26683,0 50.6481,0 71.28356,0 Z"
             style="fill:none;stroke:#000000;stroke-width:2;stroke-linecap:butt;stroke-linejoin:miter;stroke-miterlimit:4;stroke-dasharray:4, 4;stroke-dashoffset:0;stroke-opacity:1"
             id="path226" />
        </g>
        <g
           id="g228"
           transform="matrix(0.3062598,0,0,0.3062598,180.1259,469.3666)">
          <text
             xml:space="preserve"
             transform="scale(1,-1)"
             style="font-style:italic;font-variant:normal;font-weight:bold;font-size:25px;font-family:HelveticaNeue;-inkscape-font-specification:HelveticaNeue-BoldItalic;writing-mode:lr-tb;fill:#000000;fill-opacity:1;fill-rule:nonzero;stroke:none"
             id="text232"><tspan
               x="0 15.275 30.549999 44.900002 51.849998 68.050003 90.724998 106.925 113.875 130.075 145.35001 159.7 182.375 189.325 207.375 221.72501 237 251.35001"
               y="0"
               id="tspan230">The SMS Spam Radar</tspan></text>
        </g>
        <g
           id="g234"
           transform="matrix(0.3062598,0,0,0.3062598,69.04153,360.6535)">
          <text
             xml:space="preserve"
             transform="scale(1,-1)"
             style="font-style:italic;font-variant:normal;font-weight:bold;font-size:25px;font-family:HelveticaNeue;-inkscape-font-specification:HelveticaNeue-BoldItalic;writing-mode:lr-tb;fill:#000000;fill-opacity:1;fill-rule:nonzero;stroke:none"
             id="text238"><tspan
               x="0 15.275 30.549999 44.900002 51.849998 68.050003 90.724998 106.925 113.875 130.075 145.35001 159.7 182.375 189.325 196.72501 212 224.97501 240.25 254.60001 268.5 277.75 292.57501"
               y="0"
               id="tspan236">The SMS Spam Inspector</tspan></text>
        </g>
        <path
           d="M 75.76586,356.2145 H 98.472 c 2.0608,0 3.2972,0 4.1215,-0.3441 1.1883,-0.4325 2.1244,-1.3686 2.5569,-2.5569 0.3441,-0.8243 0.3441,-2.0608 0.3441,-4.1215 v -4.3306 c 0,-2.0607 0,-3.2971 -0.3441,-4.1214 -0.4325,-1.1884 -1.3686,-2.1244 -2.5569,-2.5569 -0.8243,-0.3442 -2.0607,-0.3442 -4.1215,-0.3442 H 75.76586 c -2.06076,0 -3.29719,0 -4.12152,0.3442 -1.18829,0.4325 -2.12437,1.3685 -2.55687,2.5569 -0.34414,0.8243 -0.34414,2.0607 -0.34414,4.1214 v 4.3306 c 0,2.0607 0,3.2972 0.34414,4.1215 0.4325,1.1883 1.36858,2.1244 2.55687,2.5569 0.82433,0.3441 2.06076,0.3441 4.12152,0.3441 z"
           style="fill:#ffffff;fill-opacity:1;fill-rule:nonzero;stroke:none"
           id="path240" />
        <g
           id="g242"
           transform="matrix(0.3062598,0,0,-0.3062598,68.74333,356.2145)">
          <path
             d="m 22.92998,0 h 74.14004 c 6.72878,0 10.76608,0 13.45758,1.123671 3.88,1.412222 6.9365,4.468686 8.3487,8.348736 C 120,12.16392 120,16.20119 120,22.92998 v 14.14005 c 0,6.72878 0,10.76605 -1.1237,13.45756 -1.4122,3.88005 -4.4687,6.93652 -8.3487,8.34874 C 107.8361,60 103.7988,60 97.07003,60 H 22.92998 C 16.20119,60 12.16392,60 9.472407,58.87633 5.592357,57.46411 2.535893,54.40764 1.123671,50.52759 0,47.83608 0,43.79881 0,37.07003 V 22.92998 C 0,16.20119 0,12.16392 1.123671,9.472407 2.535893,5.592357 5.592357,2.535893 9.472407,1.123671 12.16392,0 16.20119,0 22.92998,0 Z"
             style="fill:none;stroke:#000000;stroke-width:2;stroke-linecap:butt;stroke-linejoin:miter;stroke-miterlimit:4;stroke-dasharray:none;stroke-opacity:1"
             id="path244" />
        </g>
      </g>
    </g>
    <g
       id="g246">
      <g
         id="g248"
         clip-path="url(#clipPath252)">
        <g
           id="g254"
           transform="matrix(0.3062598,0,0,0.3062598,75.12563,348.3829)">
          <text
             xml:space="preserve"
             transform="scale(1,-1)"
             style="font-variant:normal;font-weight:bold;font-size:18px;font-family:HelveticaNeue;-inkscape-font-specification:HelveticaNeue-Bold;writing-mode:lr-tb;fill:#000000;fill-opacity:1;fill-rule:nonzero;stroke:none"
             id="text258"><tspan
               x="0 13.338 23.67 30.006001 40.338001 51.335999 62.334 69.335999 78.678001"
               y="0"
               id="tspan256">Category </tspan></text>
        </g>
        <g
           id="g260"
           transform="matrix(0.3062598,0,0,0.3062598,76.26697,341.3389)">
          <text
             xml:space="preserve"
             transform="scale(1,-1)"
             style="font-variant:normal;font-weight:bold;font-size:18px;font-family:HelveticaNeue;-inkscape-font-specification:HelveticaNeue-Bold;writing-mode:lr-tb;fill:#000000;fill-opacity:1;fill-rule:nonzero;stroke:none"
             id="text264"><tspan
               x="0 12.33 23.004 33.335999 37.98 47.321999 56.987999 61.632"
               y="0"
               id="tspan262">Analysis</tspan></text>
        </g>
      </g>
    </g>
    <g
       id="g266">
      <g
         id="g268"
         clip-path="url(#clipPath272)">
        <path
           d="m 130.7373,356.2145 h 22.7061 c 2.0607,0 3.2972,0 4.1215,-0.3441 1.1883,-0.4325 2.1244,-1.3686 2.5569,-2.5569 0.3441,-0.8243 0.3441,-2.0608 0.3441,-4.1215 v -4.3306 c 0,-2.0607 0,-3.2971 -0.3441,-4.1214 -0.4325,-1.1884 -1.3686,-2.1244 -2.5569,-2.5569 -0.8243,-0.3442 -2.0608,-0.3442 -4.1215,-0.3442 h -22.7061 c -2.0608,0 -3.2973,0 -4.1216,0.3442 -1.1883,0.4325 -2.1243,1.3685 -2.5568,2.5569 -0.3442,0.8243 -0.3442,2.0607 -0.3442,4.1214 v 4.3306 c 0,2.0607 0,3.2972 0.3442,4.1215 0.4325,1.1883 1.3685,2.1244 2.5568,2.5569 0.8243,0.3441 2.0608,0.3441 4.1216,0.3441 z"
           style="fill:#ffffff;fill-opacity:1;fill-rule:nonzero;stroke:none"
           id="path274" />
        <g
           id="g276"
           transform="matrix(0.3062598,0,0,-0.3062598,123.7147,356.2145)">
          <path
             d="m 22.92998,0 h 74.14005 c 6.72877,0 10.76607,0 13.45757,1.123671 3.88,1.412222 6.9365,4.468686 8.3487,8.348736 C 120,12.16392 120,16.20119 120,22.92997 v 14.14006 c 0,6.72878 0,10.76605 -1.1237,13.45756 -1.4122,3.88005 -4.4687,6.93652 -8.3487,8.34874 C 107.8361,60 103.7988,60 97.07003,60 H 22.92998 C 16.20119,60 12.16392,60 9.472407,58.87633 5.592357,57.46411 2.535893,54.40764 1.123671,50.52759 0,47.83608 0,43.79881 0,37.07003 V 22.92998 C 0,16.20119 0,12.16392 1.123671,9.472407 2.535893,5.592357 5.592357,2.535893 9.472407,1.123671 12.16392,0 16.20119,0 22.92998,0 Z"
             style="fill:none;stroke:#000000;stroke-width:2;stroke-linecap:butt;stroke-linejoin:miter;stroke-miterlimit:4;stroke-dasharray:none;stroke-opacity:1"
             id="path278" />
        </g>
      </g>
    </g>
    <g
       id="g280">
      <g
         id="g282"
         clip-path="url(#clipPath286)">
        <g
           id="g288"
           transform="matrix(0.3062598,0,0,0.3062598,129.9537,348.3829)">
          <text
             xml:space="preserve"
             transform="scale(1,-1)"
             style="font-variant:normal;font-weight:bold;font-size:18px;font-family:HelveticaNeue;-inkscape-font-specification:HelveticaNeue-Bold;writing-mode:lr-tb;fill:#000000;fill-opacity:1;fill-rule:nonzero;stroke:none"
             id="text292"><tspan
               x="0 9 19.332001 35.639999 46.638 57.636002 64.638 74.970001 79.613998"
               y="0"
               id="tspan290">Temporal </tspan></text>
        </g>
        <g
           id="g294"
           transform="matrix(0.3062598,0,0,0.3062598,131.2383,341.3389)">
          <text
             xml:space="preserve"
             transform="scale(1,-1)"
             style="font-variant:normal;font-weight:bold;font-size:18px;font-family:HelveticaNeue;-inkscape-font-specification:HelveticaNeue-Bold;writing-mode:lr-tb;fill:#000000;fill-opacity:1;fill-rule:nonzero;stroke:none"
             id="text298"><tspan
               x="0 12.33 23.004 33.335999 37.98 47.321999 56.987999 61.632"
               y="0"
               id="tspan296">Analysis</tspan></text>
        </g>
      </g>
    </g>
    <g
       id="g300">
      <g
         id="g302"
         clip-path="url(#clipPath306)">
        <g
           id="g308"
           transform="matrix(0.3062598,0,0,-0.3062598,184.4855,370.1873)">
          <path
             d="M 71.28356,0 H 528.289 c 20.6355,0 33.0167,0 41.2709,3.181511 12.4697,4.538596 22.2926,14.361449 26.8312,26.831139 2.5768,5.59198 3.1815,19.36665 3.1815,29.98735 0,10.6207 -0.6047,24.39537 -3.1815,29.98735 C 591.8525,102.457 582.0296,112.2799 569.5599,116.8185 561.3057,120 548.9245,120 528.289,120 H 71.28356 C 50.6481,120 38.26683,120 30.01265,116.8185 17.54296,112.2799 7.720107,102.457 3.181511,89.98735 0.6046577,84.39537 0,70.6207 0,60 0,49.3793 0.6046577,35.60463 3.181511,30.01265 7.720107,17.54296 17.54296,7.720107 30.01265,3.181511 38.26683,0 50.6481,0 71.28356,0 Z"
             style="fill:none;stroke:#000000;stroke-width:2;stroke-linecap:butt;stroke-linejoin:miter;stroke-miterlimit:4;stroke-dasharray:4, 4;stroke-dashoffset:0;stroke-opacity:1"
             id="path310" />
        </g>
        <g
           id="g312"
           transform="matrix(0.3062598,0,0,0.3062598,217.4623,360.6535)">
          <text
             xml:space="preserve"
             transform="scale(1,-1)"
             style="font-style:italic;font-variant:normal;font-weight:bold;font-size:25px;font-family:HelveticaNeue;-inkscape-font-specification:HelveticaNeue-BoldItalic;writing-mode:lr-tb;fill:#000000;fill-opacity:1;fill-rule:nonzero;stroke:none"
             id="text316"><tspan
               x="0 15.275 30.549999 44.900002 51.849998 68.050003 90.724998 106.925 113.875 130.075 145.35001 159.7 182.375 189.325 207.85001 222.2 231.45 245.8 259.70001 268.95001 283.77499 293.5 306.47501 313.42499 320.82501 337.02499 353.22501 371.75 384.72501"
               y="0"
               id="tspan314">The SMS Spam Detectors (SSDs)</tspan></text>
        </g>
      </g>
    </g>
    <g
       id="g318">
      <g
         id="g320"
         clip-path="url(#clipPath324)">
        <path
           d="m 196.505,353.0347 h 41.0817 c 2.0608,0 3.2972,0 4.1215,-0.3441 1.1883,-0.4325 2.1244,-1.3686 2.5569,-2.5569 0.3441,-0.8243 0.3441,-2.0608 0.3441,-4.1215 v -1.268 c 0,-2.0607 0,-3.2972 -0.3441,-4.1215 -0.4325,-1.1883 -1.3686,-2.1244 -2.5569,-2.5569 -0.8243,-0.3441 -2.0607,-0.3441 -4.1215,-0.3441 H 196.505 c -2.0608,0 -3.2972,0 -4.1215,0.3441 -1.1883,0.4325 -2.1244,1.3686 -2.5569,2.5569 -0.3441,0.8243 -0.3441,2.0608 -0.3441,4.1215 v 1.268 c 0,2.0607 0,3.2972 0.3441,4.1215 0.4325,1.1883 1.3686,2.1244 2.5569,2.5569 0.8243,0.3441 2.0607,0.3441 4.1215,0.3441 z"
           style="fill:#ffffff;fill-opacity:1;fill-rule:nonzero;stroke:none"
           id="path326" />
        <g
           id="g328"
           transform="matrix(0.3062598,0,0,-0.3062598,189.4825,353.0347)">
          <path
             d="M 22.92998,0 H 157.07 c 6.7288,0 10.7661,0 13.4576,1.123671 3.88,1.412222 6.9365,4.468686 8.3487,8.348736 C 180,12.16392 180,16.20119 180,22.92997 v 4.14005 c 0,6.72879 0,10.76606 -1.1237,13.45757 -1.4122,3.88005 -4.4687,6.93652 -8.3487,8.34874 C 167.8361,50 163.7988,50 157.07,50 H 22.92998 C 16.20119,50 12.16392,50 9.472407,48.87633 5.592357,47.46411 2.535893,44.40764 1.123671,40.52759 0,37.83608 0,33.79881 0,27.07002 V 22.92997 C 0,16.20119 0,12.16392 1.123671,9.472407 2.535893,5.592357 5.592357,2.535893 9.472407,1.123671 12.16392,0 16.20119,0 22.92998,0 Z"
             style="fill:none;stroke:#000000;stroke-width:2;stroke-linecap:butt;stroke-linejoin:miter;stroke-miterlimit:4;stroke-dasharray:none;stroke-opacity:1"
             id="path330" />
        </g>
      </g>
    </g>
    <g
       id="g332">
      <g
         id="g334"
         clip-path="url(#clipPath338)">
        <g
           id="g340"
           transform="matrix(0.3062598,0,0,0.3062598,200.8605,343.2357)">
          <text
             xml:space="preserve"
             transform="scale(1,-1)"
             style="font-variant:normal;font-weight:bold;font-size:18px;font-family:HelveticaNeue;-inkscape-font-specification:HelveticaNeue-Bold;writing-mode:lr-tb;fill:#000000;fill-opacity:1;fill-rule:nonzero;stroke:none"
             id="text344"><tspan
               x="0 12.672 17.316 27.99 38.321999 45.324001 54.666 59.669998 71.351997 83.033997 96.372002"
               y="0"
               id="tspan342">Binary SSDs</tspan></text>
        </g>
      </g>
    </g>
    <g
       id="g346">
      <g
         id="g348"
         clip-path="url(#clipPath352)">
        <path
           d="m 256.0634,353.0347 h 41.0817 c 2.0608,0 3.2972,0 4.1215,-0.3441 1.1884,-0.4325 2.1244,-1.3686 2.5569,-2.5569 0.3441,-0.8243 0.3441,-2.0608 0.3441,-4.1215 v -1.268 c 0,-2.0607 0,-3.2972 -0.3441,-4.1215 -0.4325,-1.1883 -1.3685,-2.1244 -2.5569,-2.5569 -0.8243,-0.3441 -2.0607,-0.3441 -4.1215,-0.3441 h -41.0817 c -2.0607,0 -3.2972,0 -4.1215,0.3441 -1.1883,0.4325 -2.1244,1.3686 -2.5569,2.5569 -0.3441,0.8243 -0.3441,2.0608 -0.3441,4.1215 v 1.268 c 0,2.0607 0,3.2972 0.3441,4.1215 0.4325,1.1883 1.3686,2.1244 2.5569,2.5569 0.8243,0.3441 2.0608,0.3441 4.1215,0.3441 z"
           style="fill:#ffffff;fill-opacity:1;fill-rule:nonzero;stroke:none"
           id="path354" />
        <g
           id="g356"
           transform="matrix(0.3062598,0,0,-0.3062598,249.0409,353.0347)">
          <path
             d="M 22.92998,0 H 157.07 c 6.7288,0 10.7661,0 13.4576,1.123671 3.88,1.412222 6.9365,4.468686 8.3487,8.348736 C 180,12.16392 180,16.20119 180,22.92997 v 4.14005 c 0,6.72879 0,10.76606 -1.1237,13.45757 -1.4122,3.88005 -4.4687,6.93652 -8.3487,8.34874 C 167.8361,50 163.7988,50 157.07,50 H 22.92998 C 16.20119,50 12.16392,50 9.472407,48.87633 5.592357,47.46411 2.535893,44.40764 1.123671,40.52759 0,37.83608 0,33.79881 0,27.07002 V 22.92997 C 0,16.20119 0,12.16392 1.123671,9.472407 2.535893,5.592357 5.592357,2.535893 9.472407,1.123671 12.16392,0 16.20119,0 22.92998,0 Z"
             style="fill:none;stroke:#000000;stroke-width:2;stroke-linecap:butt;stroke-linejoin:miter;stroke-miterlimit:4;stroke-dasharray:none;stroke-opacity:1"
             id="path358" />
        </g>
      </g>
    </g>
    <g
       id="g360">
      <g
         id="g362"
         clip-path="url(#clipPath366)">
        <g
           id="g368"
           transform="matrix(0.3062598,0,0,0.3062598,253.947,343.2357)">
          <text
             xml:space="preserve"
             transform="scale(1,-1)"
             style="font-variant:normal;font-weight:bold;font-size:18px;font-family:HelveticaNeue;-inkscape-font-specification:HelveticaNeue-Bold;writing-mode:lr-tb;fill:#000000;fill-opacity:1;fill-rule:nonzero;stroke:none"
             id="text372"><tspan
               x="0 16.326 27 31.643999 37.98 42.624001 49.950001 60.624001 70.956001 81.954002 92.286003 96.93 101.934 113.616 125.298 138.636 148.302"
               y="0"
               id="tspan370">Multi-Label SSDs </tspan></text>
        </g>
      </g>
    </g>
    <g
       id="g374">
      <g
         id="g376"
         clip-path="url(#clipPath380)">
        <path
           d="m 315.6219,353.0347 h 41.0816 c 2.0608,0 3.2971,0 4.1216,-0.3441 1.1883,-0.4325 2.1242,-1.3686 2.557,-2.5569 0.3439,-0.8243 0.3439,-2.0608 0.3439,-4.1215 v -1.268 c 0,-2.0607 0,-3.2972 -0.3439,-4.1215 -0.4328,-1.1883 -1.3687,-2.1244 -2.557,-2.5569 -0.8245,-0.3441 -2.0608,-0.3441 -4.1216,-0.3441 h -41.0816 c -2.0608,0 -3.2973,0 -4.1216,0.3441 -1.1883,0.4325 -2.1243,1.3686 -2.5568,2.5569 -0.3442,0.8243 -0.3442,2.0608 -0.3442,4.1215 v 1.268 c 0,2.0607 0,3.2972 0.3442,4.1215 0.4325,1.1883 1.3685,2.1244 2.5568,2.5569 0.8243,0.3441 2.0608,0.3441 4.1216,0.3441 z"
           style="fill:#ffffff;fill-opacity:1;fill-rule:nonzero;stroke:none"
           id="path382" />
        <g
           id="g384"
           transform="matrix(0.3062598,0,0,-0.3062598,308.5993,353.0347)">
          <path
             d="M 22.92998,0 H 157.07 c 6.7288,0 10.7661,0 13.4576,1.123671 3.88,1.412222 6.9365,4.468686 8.3487,8.348736 C 180,12.16392 180,16.20119 180,22.92998 v 4.14005 c 0,6.72878 0,10.76605 -1.1237,13.45756 -1.4122,3.88005 -4.4687,6.93652 -8.3487,8.34874 C 167.8361,50 163.7988,50 157.07,50 H 22.92998 C 16.20119,50 12.16392,50 9.472407,48.87633 5.592357,47.46411 2.535893,44.40764 1.123671,40.52759 0,37.83608 0,33.79881 0,27.07003 V 22.92998 C 0,16.20119 0,12.16392 1.123671,9.472407 2.535893,5.592357 5.592357,2.535893 9.472407,1.123671 12.16392,0 16.20119,0 22.92998,0 Z"
             style="fill:none;stroke:#000000;stroke-width:2;stroke-linecap:butt;stroke-linejoin:miter;stroke-miterlimit:4;stroke-dasharray:none;stroke-opacity:1"
             id="path386" />
        </g>
      </g>
    </g>
    <g
       id="g388">
      <g
         id="g390"
         clip-path="url(#clipPath394)">
        <g
           id="g396"
           transform="matrix(0.3062598,0,0,0.3062598,314.9746,343.2357)">
          <text
             xml:space="preserve"
             transform="scale(1,-1)"
             style="font-variant:normal;font-weight:bold;font-size:18px;font-family:HelveticaNeue;-inkscape-font-specification:HelveticaNeue-Bold;writing-mode:lr-tb;fill:#000000;fill-opacity:1;fill-rule:nonzero;stroke:none"
             id="text400"><tspan
               x="0 10.674 21.348 28.674 38.015999 45.018002 55.349998 59.993999 70.667999 81 91.998001 102.006 113.688 125.37"
               y="0"
               id="tspan398">FL-Trained SSD</tspan></text>
        </g>
      </g>
    </g>
    <g
       id="g402">
      <g
         id="g404"
         clip-path="url(#clipPath408)">
        <g
           id="g410"
           transform="matrix(0.3062598,0,0,-0.3062598,377.1276,478.4195)">
          <path
             d="M 71.28356,0 H 182.2214 c 20.9181,0 33.469,0 41.8362,3.493212 12.0621,4.390246 21.5639,13.892028 25.9542,25.954128 3.4932,8.36725 3.4932,20.91811 3.4932,41.83622 V 394.8989 c 0,20.9181 0,33.4689 -3.4932,41.8362 -4.3903,12.0621 -13.8921,21.5639 -25.9542,25.9541 -8.3672,3.4932 -20.9181,3.4932 -41.8362,3.4932 H 71.28356 c -20.91811,0 -33.46897,0 -41.83622,-3.4932 C 17.38524,458.299 7.883458,448.7972 3.493212,436.7351 0,428.3678 0,415.817 0,394.8989 V 71.28356 C 0,50.36545 0,37.81459 3.493212,29.44734 7.883458,17.38524 17.38524,7.883458 29.44734,3.493212 37.81459,0 50.36545,0 71.28356,0 Z"
             style="fill:none;stroke:#000000;stroke-width:2;stroke-linecap:butt;stroke-linejoin:miter;stroke-miterlimit:4;stroke-dasharray:4, 4;stroke-dashoffset:0;stroke-opacity:1"
             id="path412" />
        </g>
        <g
           id="g414"
           transform="matrix(0.3062598,0,0,0.3062598,400.2089,467.5939)">
          <text
             xml:space="preserve"
             transform="scale(1,-1)"
             style="font-style:italic;font-variant:normal;font-weight:bold;font-size:25px;font-family:HelveticaNeue;-inkscape-font-specification:HelveticaNeue-BoldItalic;writing-mode:lr-tb;fill:#000000;fill-opacity:1;fill-rule:nonzero;stroke:none"
             id="text418"><tspan
               x="0 15.275 30.549999 44.900002 51.849998 68.050003 84.25 102.775"
               y="0"
               id="tspan416">The SSD </tspan></text>
        </g>
        <g
           id="g420"
           transform="matrix(0.3062598,0,0,0.3062598,400.2089,458.4061)">
          <text
             xml:space="preserve"
             transform="scale(1,-1)"
             style="font-style:italic;font-variant:normal;font-weight:bold;font-size:25px;font-family:HelveticaNeue;-inkscape-font-specification:HelveticaNeue-BoldItalic;writing-mode:lr-tb;fill:#000000;fill-opacity:1;fill-rule:nonzero;stroke:none"
             id="text424"><tspan
               x="0 17.125 32.400002 46.75 53.224998 66.199997 78.699997 93.050003"
               y="0"
               id="tspan422">Analyzer</tspan></text>
        </g>
        <path
           d="m 390.2708,452.6017 h 51.2825 c 2.0609,0 3.2972,0 4.1217,-0.3442 1.1883,-0.4325 2.1242,-1.3685 2.5566,-2.5568 0.3443,-0.8244 0.3443,-2.0608 0.3443,-4.1216 v -4.3922 c 0,-2.0607 0,-3.2972 -0.3443,-4.1215 -0.4324,-1.1883 -1.3683,-2.1243 -2.5566,-2.5569 -0.8245,-0.3441 -2.0608,-0.3441 -4.1217,-0.3441 h -51.2825 c -2.0609,0 -3.2972,0 -4.1217,0.3441 -1.1883,0.4326 -2.1242,1.3686 -2.557,2.5569 -0.3439,0.8243 -0.3439,2.0608 -0.3439,4.1215 v 4.3922 c 0,2.0608 0,3.2972 0.3439,4.1216 0.4328,1.1883 1.3687,2.1243 2.557,2.5568 0.8245,0.3442 2.0608,0.3442 4.1217,0.3442 z"
           style="fill:#ffffff;fill-opacity:1;fill-rule:nonzero;stroke:none"
           id="path426" />
        <g
           id="g428"
           transform="matrix(0.3062598,0,0,-0.3062598,383.2482,452.6017)">
          <path
             d="M 22.92998,0 H 190.3783 c 6.7288,0 10.7661,0 13.4576,1.123671 3.8801,1.412222 6.9365,4.468686 8.3487,8.348736 1.1237,2.691513 1.1237,6.728783 1.1237,13.457573 v 14.34143 c 0,6.72878 0,10.76605 -1.1237,13.45757 -1.4122,3.88005 -4.4686,6.93651 -8.3487,8.34873 -2.6915,1.12368 -6.7288,1.12368 -13.4576,1.12368 H 22.92998 c -6.72879,0 -10.76606,0 -13.457573,-1.12368 C 5.592357,57.66549 2.535893,54.60903 1.123671,50.72898 0,48.03746 0,44.00019 0,37.27141 V 22.92998 C 0,16.20119 0,12.16392 1.123671,9.472407 2.535893,5.592357 5.592357,2.535893 9.472407,1.123671 12.16392,0 16.20119,0 22.92998,0 Z"
             style="fill:none;stroke:#000000;stroke-width:2;stroke-linecap:butt;stroke-linejoin:miter;stroke-miterlimit:4;stroke-dasharray:none;stroke-opacity:1"
             id="path430" />
        </g>
      </g>
    </g>
    <g
       id="g432">
      <g
         id="g434"
         clip-path="url(#clipPath438)">
        <g
           id="g440"
           transform="matrix(0.3062598,0,0,0.3062598,398.3073,444.77)">
          <text
             xml:space="preserve"
             transform="scale(1,-1)"
             style="font-variant:normal;font-weight:bold;font-size:18px;font-family:HelveticaNeue;-inkscape-font-specification:HelveticaNeue-Bold;writing-mode:lr-tb;fill:#000000;fill-opacity:1;fill-rule:nonzero;stroke:none"
             id="text444"><tspan
               x="0 13.338 24.336 35.009998 45.341999 55.674 66.671997 73.008003 78.012001 91.349998 98.351997 102.996 108.99 115.326"
               y="0"
               id="tspan442">Concept Drift </tspan></text>
        </g>
        <g
           id="g446"
           transform="matrix(0.3062598,0,0,0.3062598,402.2311,437.726)">
          <text
             xml:space="preserve"
             transform="scale(1,-1)"
             style="font-variant:normal;font-weight:bold;font-size:18px;font-family:HelveticaNeue;-inkscape-font-specification:HelveticaNeue-Bold;writing-mode:lr-tb;fill:#000000;fill-opacity:1;fill-rule:nonzero;stroke:none"
             id="text450"><tspan
               x="0 11.664 21.024 31.356001 36 46.674 57.006001 63.341999 67.986 78.984001"
               y="0"
               id="tspan448">Evaluation</tspan></text>
        </g>
      </g>
    </g>
    <g
       id="g452">
      <g
         id="g454"
         clip-path="url(#clipPath458)">
        <path
           d="m 390.3403,385.1871 h 51.2826 c 2.0608,0 3.2972,0 4.1216,-0.3441 1.1883,-0.4325 2.1242,-1.3686 2.557,-2.5569 0.3439,-0.8243 0.3439,-2.0607 0.3439,-4.1215 v -4.3922 c 0,-2.0607 0,-3.2972 -0.3439,-4.1215 -0.4328,-1.1883 -1.3687,-2.1244 -2.557,-2.5569 -0.8244,-0.3441 -2.0608,-0.3441 -4.1216,-0.3441 h -51.2826 c -2.0609,0 -3.2972,0 -4.1217,0.3441 -1.1883,0.4325 -2.1242,1.3686 -2.5566,2.5569 -0.3443,0.8243 -0.3443,2.0608 -0.3443,4.1215 v 4.3922 c 0,2.0608 0,3.2972 0.3443,4.1215 0.4324,1.1883 1.3683,2.1244 2.5566,2.5569 0.8245,0.3441 2.0608,0.3441 4.1217,0.3441 z"
           style="fill:#ffffff;fill-opacity:1;fill-rule:nonzero;stroke:none"
           id="path460" />
        <g
           id="g462"
           transform="matrix(0.3062598,0,0,-0.3062598,383.3177,385.1871)">
          <path
             d="M 22.92998,0 H 190.3783 c 6.7288,0 10.7661,0 13.4576,1.123671 3.8801,1.412222 6.9365,4.468686 8.3487,8.348736 1.1237,2.691513 1.1237,6.728783 1.1237,13.457563 v 14.34144 c 0,6.72878 0,10.76605 -1.1237,13.45757 -1.4122,3.88005 -4.4686,6.93651 -8.3487,8.34873 -2.6915,1.12368 -6.7288,1.12368 -13.4576,1.12368 H 22.92997 c -6.72878,0 -10.76605,0 -13.457563,-1.12368 C 5.592357,57.66549 2.535893,54.60903 1.123671,50.72898 0,48.03746 0,44.00019 0,37.27141 V 22.92997 C 0,16.20119 0,12.16392 1.123671,9.472407 2.535893,5.592357 5.592357,2.535893 9.472407,1.123671 12.16392,0 16.20119,0 22.92998,0 Z"
             style="fill:none;stroke:#000000;stroke-width:2;stroke-linecap:butt;stroke-linejoin:miter;stroke-miterlimit:4;stroke-dasharray:none;stroke-opacity:1"
             id="path464" />
        </g>
      </g>
    </g>
    <g
       id="g466">
      <g
         id="g468"
         clip-path="url(#clipPath472)">
        <g
           id="g474"
           transform="matrix(0.3062598,0,0,0.3062598,389.1489,377.3555)">
          <text
             xml:space="preserve"
             transform="scale(1,-1)"
             style="font-variant:normal;font-weight:bold;font-size:18px;font-family:HelveticaNeue;-inkscape-font-specification:HelveticaNeue-Bold;writing-mode:lr-tb;fill:#000000;fill-opacity:1;fill-rule:nonzero;stroke:none"
             id="text478"><tspan
               x="0 12.33 23.327999 32.688 43.02 50.021999 59.688 70.019997 77.022003 81.666 91.998001 96.641998 101.646 113.31 122.976 133.308 149.616 160.614 165.258 175.59"
               y="0"
               id="tspan476">Adversarial Example </tspan></text>
        </g>
        <g
           id="g480"
           transform="matrix(0.3062598,0,0,0.3062598,407.9652,370.3115)">
          <text
             xml:space="preserve"
             transform="scale(1,-1)"
             style="font-variant:normal;font-weight:bold;font-size:18px;font-family:HelveticaNeue;-inkscape-font-specification:HelveticaNeue-Bold;writing-mode:lr-tb;fill:#000000;fill-opacity:1;fill-rule:nonzero;stroke:none"
             id="text484"><tspan
               x="0 9 19.332001 28.997999 35.334 45.666"
               y="0"
               id="tspan482">Tester</tspan></text>
        </g>
      </g>
    </g>
    <g
       id="g486">
      <g
         id="g488"
         clip-path="url(#clipPath492)">
        <path
           d="m 390.2708,362.5345 h 51.2825 c 2.0609,0 3.2972,0 4.1217,-0.3442 1.1883,-0.4325 2.1242,-1.3686 2.5566,-2.5568 0.3443,-0.8243 0.3443,-2.0608 0.3443,-4.1216 v -4.3922 c 0,-2.0607 0,-3.2972 -0.3443,-4.1215 -0.4324,-1.1883 -1.3683,-2.1244 -2.5566,-2.5569 -0.8245,-0.3441 -2.0608,-0.3441 -4.1217,-0.3441 h -51.2825 c -2.0609,0 -3.2972,0 -4.1217,0.3441 -1.1883,0.4325 -2.1242,1.3686 -2.557,2.5569 -0.3439,0.8243 -0.3439,2.0608 -0.3439,4.1215 v 4.3922 c 0,2.0608 0,3.2973 0.3439,4.1216 0.4328,1.1882 1.3687,2.1243 2.557,2.5568 0.8245,0.3442 2.0608,0.3442 4.1217,0.3442 z"
           style="fill:#ffffff;fill-opacity:1;fill-rule:nonzero;stroke:none"
           id="path494" />
        <g
           id="g496"
           transform="matrix(0.3062598,0,0,-0.3062598,383.2482,362.5345)">
          <path
             d="M 22.92998,0 H 190.3783 c 6.7288,0 10.7661,0 13.4576,1.123671 3.8801,1.412222 6.9365,4.468686 8.3487,8.348736 1.1237,2.691513 1.1237,6.728783 1.1237,13.457573 v 14.34143 c 0,6.72878 0,10.76605 -1.1237,13.45757 -1.4122,3.88005 -4.4686,6.93651 -8.3487,8.34873 -2.6915,1.12368 -6.7288,1.12368 -13.4576,1.12368 H 22.92998 c -6.72879,0 -10.76606,0 -13.457573,-1.12368 C 5.592357,57.66549 2.535893,54.60903 1.123671,50.72898 0,48.03746 0,44.00019 0,37.27141 V 22.92998 C 0,16.20119 0,12.16392 1.123671,9.472407 2.535893,5.592357 5.592357,2.535893 9.472407,1.123671 12.16392,0 16.20119,0 22.92998,0 Z"
             style="fill:none;stroke:#000000;stroke-width:2;stroke-linecap:butt;stroke-linejoin:miter;stroke-miterlimit:4;stroke-dasharray:none;stroke-opacity:1"
             id="path498" />
        </g>
      </g>
    </g>
    <g
       id="g500">
      <g
         id="g502"
         clip-path="url(#clipPath506)">
        <g
           id="g508"
           transform="matrix(0.3062598,0,0,0.3062598,389.9473,351.0755)">
          <text
             xml:space="preserve"
             transform="scale(1,-1)"
             style="font-variant:normal;font-weight:bold;font-size:18px;font-family:HelveticaNeue;-inkscape-font-specification:HelveticaNeue-Bold;writing-mode:lr-tb;fill:#000000;fill-opacity:1;fill-rule:nonzero;stroke:none"
             id="text512"><tspan
               x="0 12.33 23.327999 32.688 43.02 50.021999 59.688 70.019997 77.022003 81.666 91.998001 96.641998 101.646 110.988 117.99 128.32201 132.966 143.64 148.284 158.95799"
               y="0"
               id="tspan510">Adversarial Training</tspan></text>
        </g>
      </g>
    </g>
    <g
       id="g514">
      <g
         id="g516"
         clip-path="url(#clipPath520)">
        <path
           d="m 390.2708,430.1166 h 51.2825 c 2.0609,0 3.2972,0 4.1217,-0.3441 1.1883,-0.4325 2.1242,-1.3686 2.5566,-2.5569 0.3443,-0.8243 0.3443,-2.0608 0.3443,-4.1215 v -4.3922 c 0,-2.0608 0,-3.2972 -0.3443,-4.1215 -0.4324,-1.1883 -1.3683,-2.1244 -2.5566,-2.5569 -0.8245,-0.3442 -2.0608,-0.3442 -4.1217,-0.3442 h -51.2825 c -2.0609,0 -3.2972,0 -4.1217,0.3442 -1.1883,0.4325 -2.1242,1.3686 -2.557,2.5569 -0.3439,0.8243 -0.3439,2.0607 -0.3439,4.1215 v 4.3922 c 0,2.0607 0,3.2972 0.3439,4.1215 0.4328,1.1883 1.3687,2.1244 2.557,2.5569 0.8245,0.3441 2.0608,0.3441 4.1217,0.3441 z"
           style="fill:#ffffff;fill-opacity:1;fill-rule:nonzero;stroke:none"
           id="path522" />
        <g
           id="g524"
           transform="matrix(0.3062598,0,0,-0.3062598,383.2482,430.1166)">
          <path
             d="M 22.92998,0 H 190.3783 c 6.7288,0 10.7661,0 13.4576,1.123671 3.8801,1.412222 6.9365,4.468686 8.3487,8.348736 1.1237,2.691513 1.1237,6.728783 1.1237,13.457573 v 14.34143 c 0,6.72878 0,10.76605 -1.1237,13.45757 -1.4122,3.88005 -4.4686,6.93651 -8.3487,8.34873 -2.6915,1.12368 -6.7288,1.12368 -13.4576,1.12368 H 22.92998 c -6.72879,0 -10.76606,0 -13.457573,-1.12368 C 5.592357,57.66549 2.535893,54.60903 1.123671,50.72898 0,48.03746 0,44.00019 0,37.27141 V 22.92998 C 0,16.20119 0,12.16392 1.123671,9.472407 2.535893,5.592357 5.592357,2.535893 9.472407,1.123671 12.16392,0 16.20119,0 22.92998,0 Z"
             style="fill:none;stroke:#000000;stroke-width:2;stroke-linecap:butt;stroke-linejoin:miter;stroke-miterlimit:4;stroke-dasharray:none;stroke-opacity:1"
             id="path526" />
        </g>
      </g>
    </g>
    <g
       id="g528">
      <g
         id="g530"
         clip-path="url(#clipPath534)">
        <g
           id="g536"
           transform="matrix(0.3062598,0,0,0.3062598,397.395,422.285)">
          <text
             xml:space="preserve"
             transform="scale(1,-1)"
             style="font-variant:normal;font-weight:bold;font-size:18px;font-family:HelveticaNeue;-inkscape-font-specification:HelveticaNeue-Bold;writing-mode:lr-tb;fill:#000000;fill-opacity:1;fill-rule:nonzero;stroke:none"
             id="text540"><tspan
               x="0 9.342 16.344 26.676001 37.349998 47.015999 53.009998 63.341999 70.344002 80.676003 91.674004 96.318001 100.962 105.606 111.942 121.284"
               y="0"
               id="tspan538">Transferability </tspan></text>
        </g>
        <g
           id="g542"
           transform="matrix(0.3062598,0,0,0.3062598,402.2311,415.241)">
          <text
             xml:space="preserve"
             transform="scale(1,-1)"
             style="font-variant:normal;font-weight:bold;font-size:18px;font-family:HelveticaNeue;-inkscape-font-specification:HelveticaNeue-Bold;writing-mode:lr-tb;fill:#000000;fill-opacity:1;fill-rule:nonzero;stroke:none"
             id="text546"><tspan
               x="0 11.664 21.024 31.356001 36 46.674 57.006001 63.341999 67.986 78.984001"
               y="0"
               id="tspan544">Evaluation</tspan></text>
        </g>
      </g>
    </g>
    <g
       id="g548">
      <g
         id="g550"
         clip-path="url(#clipPath554)">
        <path
           d="m 390.2708,407.6316 h 51.2825 c 2.0609,0 3.2972,0 4.1217,-0.3442 1.1883,-0.4325 2.1242,-1.3686 2.5566,-2.5569 0.3443,-0.8243 0.3443,-2.0607 0.3443,-4.1215 v -4.3922 c 0,-2.0607 0,-3.2972 -0.3443,-4.1215 -0.4324,-1.1883 -1.3683,-2.1244 -2.5566,-2.5569 -0.8245,-0.3441 -2.0608,-0.3441 -4.1217,-0.3441 h -51.2825 c -2.0609,0 -3.2972,0 -4.1217,0.3441 -1.1883,0.4325 -2.1242,1.3686 -2.557,2.5569 -0.3439,0.8243 -0.3439,2.0608 -0.3439,4.1215 v 4.3922 c 0,2.0608 0,3.2972 0.3439,4.1215 0.4328,1.1883 1.3687,2.1244 2.557,2.5569 0.8245,0.3442 2.0608,0.3442 4.1217,0.3442 z"
           style="fill:#ffffff;fill-opacity:1;fill-rule:nonzero;stroke:none"
           id="path556" />
        <g
           id="g558"
           transform="matrix(0.3062598,0,0,-0.3062598,383.2482,407.6316)">
          <path
             d="M 22.92998,0 H 190.3783 c 6.7288,0 10.7661,0 13.4576,1.123671 3.8801,1.412222 6.9365,4.468686 8.3487,8.348736 1.1237,2.691513 1.1237,6.728783 1.1237,13.457573 v 14.34143 c 0,6.72878 0,10.76605 -1.1237,13.45757 -1.4122,3.88005 -4.4686,6.93651 -8.3487,8.34873 -2.6915,1.12368 -6.7288,1.12368 -13.4576,1.12368 H 22.92998 c -6.72879,0 -10.76606,0 -13.457573,-1.12368 C 5.592357,57.66549 2.535893,54.60903 1.123671,50.72898 0,48.03746 0,44.00019 0,37.27141 V 22.92998 C 0,16.20119 0,12.16392 1.123671,9.472407 2.535893,5.592357 5.592357,2.535893 9.472407,1.123671 12.16392,0 16.20119,0 22.92998,0 Z"
             style="fill:none;stroke:#000000;stroke-width:2;stroke-linecap:butt;stroke-linejoin:miter;stroke-miterlimit:4;stroke-dasharray:none;stroke-opacity:1"
             id="path560" />
        </g>
      </g>
    </g>
    <g
       id="g562">
      <g
         id="g564"
         clip-path="url(#clipPath568)">
        <g
           id="g570"
           transform="matrix(0.3062598,0,0,0.3062598,390.5069,399.7999)">
          <text
             xml:space="preserve"
             transform="scale(1,-1)"
             style="font-variant:normal;font-weight:bold;font-size:18px;font-family:HelveticaNeue;-inkscape-font-specification:HelveticaNeue-Bold;writing-mode:lr-tb;fill:#000000;fill-opacity:1;fill-rule:nonzero;stroke:none"
             id="text574"><tspan
               x="0 12.006 19.007999 29.34 39.672001 46.007999 50.652 60.984001 71.316002 75.959999 80.963997 92.970001 103.968 108.612 118.278 129.276 139.95 144.59399 155.26801 166.26601"
               y="0"
               id="tspan572">Practical Poisoning </tspan></text>
        </g>
        <g
           id="g576"
           transform="matrix(0.3062598,0,0,0.3062598,407.8954,392.7559)">
          <text
             xml:space="preserve"
             transform="scale(1,-1)"
             style="font-variant:normal;font-weight:bold;font-size:18px;font-family:HelveticaNeue;-inkscape-font-specification:HelveticaNeue-Bold;writing-mode:lr-tb;fill:#000000;fill-opacity:1;fill-rule:nonzero;stroke:none"
             id="text580"><tspan
               x="0 9 19.332001 28.997999 35.334 45.666"
               y="0"
               id="tspan578">Tester</tspan></text>
        </g>
      </g>
    </g>
    <g
       id="g582">
      <g
         id="g584"
         clip-path="url(#clipPath588)">
        <g
           id="g590"
           transform="matrix(0.3062598,0,0,0.3062598,70.17831,419.049)">
          <text
             xml:space="preserve"
             transform="scale(1,-1)"
             style="font-variant:normal;font-weight:bold;font-size:18px;font-family:HelveticaNeue;-inkscape-font-specification:HelveticaNeue-Bold;writing-mode:lr-tb;fill:#000000;fill-opacity:1;fill-rule:nonzero;stroke:none"
             id="text594"><tspan
               x="0 10.998 21.672001 32.004002 37.007999 51.012001 62.694 76.031998"
               y="0"
               id="tspan592">The OSN </tspan></text>
        </g>
        <g
           id="g596"
           transform="matrix(0.3062598,0,0,0.3062598,63.04215,412.005)">
          <text
             xml:space="preserve"
             transform="scale(1,-1)"
             style="font-variant:normal;font-weight:bold;font-size:18px;font-family:HelveticaNeue;-inkscape-font-specification:HelveticaNeue-Bold;writing-mode:lr-tb;fill:#000000;fill-opacity:1;fill-rule:nonzero;stroke:none"
             id="text600"><tspan
               x="0 12.006 23.004 32.669998 39.006001 44.009998 57.348 68.346001 72.989998 77.634003 87.966003 98.297997 104.634 115.632"
               y="0"
               id="tspan598">Post Collector</tspan></text>
        </g>
      </g>
    </g>
    <g
       id="g602">
      <g
         id="g604"
         clip-path="url(#clipPath608)">
        <path
           d="m 158.2553,459.9299 h 31.8939 c 2.0608,0 3.2973,0 4.1216,-0.3442 1.1883,-0.4325 2.1243,-1.3686 2.5568,-2.5569 0.3442,-0.8243 0.3442,-2.0607 0.3442,-4.1215 v -10.4557 c 0,-2.0607 0,-3.2972 -0.3442,-4.1215 -0.4325,-1.1883 -1.3685,-2.1244 -2.5568,-2.5569 -0.8243,-0.3441 -2.0608,-0.3441 -4.1216,-0.3441 h -31.8939 c -2.0607,0 -3.2972,0 -4.1215,0.3441 -1.1883,0.4325 -2.1243,1.3686 -2.5568,2.5569 -0.3442,0.8243 -0.3442,2.0608 -0.3442,4.1215 v 10.4557 c 0,2.0608 0,3.2972 0.3442,4.1215 0.4325,1.1883 1.3685,2.1244 2.5568,2.5569 0.8243,0.3442 2.0608,0.3442 4.1215,0.3442 z"
           style="fill:#ffffff;fill-opacity:1;fill-rule:nonzero;stroke:none"
           id="path610" />
        <g
           id="g612"
           transform="matrix(0.3062598,0,0,-0.3062598,151.2328,459.9299)">
          <path
             d="M 22.92998,0 H 127.07 c 6.7288,0 10.7661,0 13.4576,1.123671 3.88,1.412222 6.9365,4.468686 8.3487,8.348736 C 150,12.16392 150,16.20119 150,22.92998 v 34.14004 c 0,6.72879 0,10.76606 -1.1237,13.45757 -1.4122,3.88005 -4.4687,6.93652 -8.3487,8.34874 C 137.8361,80 133.7988,80 127.07,80 H 22.92998 C 16.20119,80 12.16392,80 9.472407,78.87633 5.592357,77.46411 2.535893,74.40764 1.123671,70.52759 0,67.83608 0,63.79881 0,57.07002 V 22.92998 C 0,16.20119 0,12.16392 1.123671,9.472407 2.535893,5.592357 5.592357,2.535893 9.472407,1.123671 12.16392,0 16.20119,0 22.92998,0 Z"
             style="fill:none;stroke:#000000;stroke-width:2;stroke-linecap:butt;stroke-linejoin:miter;stroke-miterlimit:4;stroke-dasharray:none;stroke-opacity:1"
             id="path614" />
        </g>
      </g>
    </g>
    <g
       id="g616">
      <g
         id="g618"
         clip-path="url(#clipPath622)">
        <g
           id="g624"
           transform="matrix(0.3062598,0,0,0.3062598,159.1995,448.9557)">
          <text
             xml:space="preserve"
             transform="scale(1,-1)"
             style="font-variant:normal;font-weight:bold;font-size:18px;font-family:HelveticaNeue;-inkscape-font-specification:HelveticaNeue-Bold;writing-mode:lr-tb;fill:#000000;fill-opacity:1;fill-rule:nonzero;stroke:none"
             id="text628"><tspan
               x="0 11.682 28.007999 39.689999 44.694 50.004002 66.311996 76.643997 87.641998 97.973999"
               y="0"
               id="tspan626">SMS Image </tspan></text>
        </g>
        <g
           id="g630"
           transform="matrix(0.3062598,0,0,0.3062598,161.8567,441.9117)">
          <text
             xml:space="preserve"
             transform="scale(1,-1)"
             style="font-variant:normal;font-weight:bold;font-size:18px;font-family:HelveticaNeue;-inkscape-font-specification:HelveticaNeue-Bold;writing-mode:lr-tb;fill:#000000;fill-opacity:1;fill-rule:nonzero;stroke:none"
             id="text634"><tspan
               x="0 13.338 17.982 28.313999 37.98 47.646"
               y="0"
               id="tspan632">Classi</tspan></text>
        </g>
        <g
           id="g636"
           transform="matrix(0.3062598,0,0,0.3062598,161.8567,441.9117)">
          <text
             xml:space="preserve"
             transform="matrix(1,0,0,-1,52.29,0)"
             style="font-variant:normal;font-weight:bold;font-size:18px;font-family:HelveticaNeue;-inkscape-font-specification:HelveticaNeue-Bold;writing-mode:lr-tb;fill:#000000;fill-opacity:1;fill-rule:nonzero;stroke:none"
             id="text640"><tspan
               x="0"
               y="0"
               id="tspan638">f</tspan></text>
        </g>
        <g
           id="g642"
           transform="matrix(0.3062598,0,0,0.3062598,161.8567,441.9117)">
          <text
             xml:space="preserve"
             transform="matrix(1,0,0,-1,63.288,0)"
             style="font-variant:normal;font-weight:bold;font-size:18px;font-family:HelveticaNeue;-inkscape-font-specification:HelveticaNeue-Bold;writing-mode:lr-tb;fill:#000000;fill-opacity:1;fill-rule:nonzero;stroke:none"
             id="text646"><tspan
               x="0 10.332"
               y="0"
               id="tspan644">er</tspan></text>
        </g>
      </g>
    </g>
    <g
       id="g648">
      <g
         id="g650"
         clip-path="url(#clipPath654)">
        <path
           d="m 158.2553,407.3343 h 31.8939 c 2.0608,0 3.2973,0 4.1216,-0.3441 1.1883,-0.4325 2.1243,-1.3686 2.5568,-2.5569 0.3442,-0.8243 0.3442,-2.0608 0.3442,-4.1215 v -10.4557 c 0,-2.0608 0,-3.2973 -0.3442,-4.1216 -0.4325,-1.1882 -1.3685,-2.1243 -2.5568,-2.5568 -0.8243,-0.3442 -2.0608,-0.3442 -4.1216,-0.3442 h -31.8939 c -2.0607,0 -3.2972,0 -4.1215,0.3442 -1.1883,0.4325 -2.1243,1.3686 -2.5568,2.5568 -0.3442,0.8243 -0.3442,2.0608 -0.3442,4.1216 v 10.4557 c 0,2.0607 0,3.2972 0.3442,4.1215 0.4325,1.1883 1.3685,2.1244 2.5568,2.5569 0.8243,0.3441 2.0608,0.3441 4.1215,0.3441 z"
           style="fill:#ffffff;fill-opacity:1;fill-rule:nonzero;stroke:none"
           id="path656" />
        <g
           id="g658"
           transform="matrix(0.3062598,0,0,-0.3062598,151.2328,407.3343)">
          <path
             d="M 22.92998,0 H 127.07 c 6.7288,0 10.7661,0 13.4576,1.123671 3.88,1.412222 6.9365,4.468686 8.3487,8.348736 C 150,12.16392 150,16.20119 150,22.92998 v 34.14004 c 0,6.72879 0,10.76606 -1.1237,13.45757 -1.4122,3.88005 -4.4687,6.93652 -8.3487,8.34874 C 137.8361,80 133.7988,80 127.07,80 H 22.92998 C 16.20119,80 12.16392,80 9.472407,78.87633 5.592357,77.46411 2.535893,74.40764 1.123671,70.52759 0,67.83608 0,63.79881 0,57.07002 V 22.92998 C 0,16.20119 0,12.16392 1.123671,9.472407 2.535893,5.592357 5.592357,2.535893 9.472407,1.123671 12.16392,0 16.20119,0 22.92998,0 Z"
             style="fill:none;stroke:#000000;stroke-width:2;stroke-linecap:butt;stroke-linejoin:miter;stroke-miterlimit:4;stroke-dasharray:none;stroke-opacity:1"
             id="path660" />
        </g>
      </g>
    </g>
    <g
       id="g662">
      <g
         id="g664"
         clip-path="url(#clipPath668)">
        <g
           id="g670"
           transform="matrix(0.3062598,0,0,0.3062598,166.6499,401.7559)">
          <text
             xml:space="preserve"
             transform="scale(1,-1)"
             style="font-variant:normal;font-weight:bold;font-size:18px;font-family:HelveticaNeue;-inkscape-font-specification:HelveticaNeue-Bold;writing-mode:lr-tb;fill:#000000;fill-opacity:1;fill-rule:nonzero;stroke:none"
             id="text674"><tspan
               x="0 11.682 22.68 33.012001 49.32"
               y="0"
               id="tspan672">Spam </tspan></text>
        </g>
        <g
           id="g676"
           transform="matrix(0.3062598,0,0,0.3062598,161.1896,394.7119)">
          <text
             xml:space="preserve"
             transform="scale(1,-1)"
             style="font-variant:normal;font-weight:bold;font-size:18px;font-family:HelveticaNeue;-inkscape-font-specification:HelveticaNeue-Bold;writing-mode:lr-tb;fill:#000000;fill-opacity:1;fill-rule:nonzero;stroke:none"
             id="text680"><tspan
               x="0 12.996 23.327999 34.326 45.324001 52.326 58.661999 63.306 73.980003 84.977997"
               y="0"
               id="tspan678">Reporting </tspan></text>
        </g>
        <g
           id="g682"
           transform="matrix(0.3062598,0,0,0.3062598,155.1174,387.668)">
          <text
             xml:space="preserve"
             transform="scale(1,-1)"
             style="font-variant:normal;font-weight:bold;font-size:18px;font-family:HelveticaNeue;-inkscape-font-specification:HelveticaNeue-Bold;writing-mode:lr-tb;fill:#000000;fill-opacity:1;fill-rule:nonzero;stroke:none"
             id="text686"><tspan
               x="0 12.006 23.004 32.669998 39.006001 44.009998 57.348 61.992001 72.323997 81.989998 91.655998"
               y="0"
               id="tspan684">Post Classi</tspan></text>
        </g>
        <g
           id="g688"
           transform="matrix(0.3062598,0,0,0.3062598,155.1174,387.668)">
          <text
             xml:space="preserve"
             transform="matrix(1,0,0,-1,96.3,0)"
             style="font-variant:normal;font-weight:bold;font-size:18px;font-family:HelveticaNeue;-inkscape-font-specification:HelveticaNeue-Bold;writing-mode:lr-tb;fill:#000000;fill-opacity:1;fill-rule:nonzero;stroke:none"
             id="text692"><tspan
               x="0"
               y="0"
               id="tspan690">f</tspan></text>
        </g>
        <g
           id="g694"
           transform="matrix(0.3062598,0,0,0.3062598,155.1174,387.668)">
          <text
             xml:space="preserve"
             transform="matrix(1,0,0,-1,107.298,0)"
             style="font-variant:normal;font-weight:bold;font-size:18px;font-family:HelveticaNeue;-inkscape-font-specification:HelveticaNeue-Bold;writing-mode:lr-tb;fill:#000000;fill-opacity:1;fill-rule:nonzero;stroke:none"
             id="text698"><tspan
               x="0 10.332"
               y="0"
               id="tspan696">er</tspan></text>
        </g>
      </g>
    </g>
    <g
       id="g700">
      <g
         id="g702"
         clip-path="url(#clipPath706)">
        <g
           id="g708"
           transform="matrix(0,-0.3062598,-0.3062598,0,116.3178,395.7945)">
          <path
             d="m 0,0 h 56 3"
             style="fill:none;stroke:#00a2ff;stroke-width:6;stroke-linecap:butt;stroke-linejoin:miter;stroke-miterlimit:4;stroke-dasharray:none;stroke-opacity:1"
             id="path710" />
        </g>
        <path
           d="m 112.6427,378.644 3.6751,-7.3503 3.6751,7.3503 z"
           style="fill:#00a2ff;fill-opacity:1;fill-rule:nonzero;stroke:none"
           id="path712" />
        <g
           id="g714"
           transform="matrix(0,-0.3062598,-0.3062598,0,276.298,395.7945)">
          <path
             d="m 0,0 h 56 3"
             style="fill:none;stroke:#00a2ff;stroke-width:6;stroke-linecap:butt;stroke-linejoin:miter;stroke-miterlimit:4;stroke-dasharray:none;stroke-opacity:1"
             id="path716" />
        </g>
        <path
           d="m 272.6229,378.644 3.6751,-7.3503 3.6751,7.3503 z"
           style="fill:#00a2ff;fill-opacity:1;fill-rule:nonzero;stroke:none"
           id="path718" />
        <g
           id="g720"
           transform="matrix(0.3062598,0,0,-0.3062598,351.09,360.4876)">
          <path
             d="m 0,0 h 56.0806 3"
             style="fill:none;stroke:#00a2ff;stroke-width:6;stroke-linecap:butt;stroke-linejoin:miter;stroke-miterlimit:4;stroke-dasharray:none;stroke-opacity:1"
             id="path722" />
        </g>
        <path
           d="m 368.2651,356.8125 7.3502,3.6751 -7.3502,3.6751 z"
           style="fill:#00a2ff;fill-opacity:1;fill-rule:nonzero;stroke:none"
           id="path724" />
      </g>
    </g>
  </g>
</svg>
